DancingScript-Bold.ufo
<glyph name="exclam" format="2">
  <advance width="295"/>
  <unicode hex="0021"/>
  <outline>
    <contour>
      <point x="115" y="297" type="curve" smooth="yes"/>
      <point x="93" y="240"/>
      <point x="62" y="159"/>
      <point x="61" y="108" type="curve"/>
      <point x="65" y="107"/>
      <point x="69" y="105"/>
      <point x="73" y="104" type="curve"/>
      <point x="148" y="210"/>
      <point x="369" y="634"/>
      <point x="369" y="690" type="curve" smooth="yes"/>
      <point x="369" y="707"/>
      <point x="355" y="720"/>
      <point x="341" y="720" type="curve" smooth="yes"/>
      <point x="279" y="720"/>
      <point x="189" y="488"/>
    </contour>
    <contour>
      <point x="40" y="-10" type="curve" smooth="yes"/>
      <point x="70" y="-10"/>
      <point x="99" y="17"/>
      <point x="99" y="40" type="curve" smooth="yes"/>
      <point x="99" y="63"/>
      <point x="85" y="71"/>
      <point x="65" y="71" type="curve" smooth="yes"/>
      <point x="33" y="71"/>
      <point x="0" y="49"/>
      <point x="0" y="24" type="curve" smooth="yes"/>
      <point x="0" y="0"/>
      <point x="19" y="-10"/>
    </contour>
  </outline>
</glyph>
<glyph name="numbersign" format="2">
  <advance width="720"/>
  <unicode hex="0023"/>
  <outline>
    <contour>
      <point x="114" y="-162" type="curve"/>
      <point x="218" y="-162"/>
      <point x="245" y="-50"/>
      <point x="289" y="167" type="curve"/>
      <point x="408" y="167" type="line"/>
      <point x="375" y="21"/>
      <point x="334" y="-112"/>
      <point x="292" y="-162" type="curve"/>
      <point x="394" y="-162"/>
      <point x="426" y="-49"/>
      <point x="468" y="170" type="curve"/>
      <point x="499" y="171"/>
      <point x="526" y="171"/>
      <point x="564" y="171" type="curve" smooth="yes"/>
      <point x="597" y="171"/>
      <point x="633" y="172"/>
      <point x="687" y="217" type="curve"/>
      <point x="626" y="217"/>
      <point x="539" y="223"/>
      <point x="479" y="226" type="curve"/>
      <point x="481" y="243"/>
      <point x="486" y="261"/>
      <point x="491" y="287" type="curve"/>
      <point x="522" y="287"/>
      <point x="557" y="288"/>
      <point x="600" y="288" type="curve" smooth="yes"/>
      <point x="633" y="288"/>
      <point x="671" y="289"/>
      <point x="725" y="334" type="curve"/>
      <point x="659" y="334"/>
      <point x="570" y="341"/>
      <point x="501" y="344" type="curve"/>
      <point x="535" y="520"/>
      <point x="560" y="678"/>
      <point x="571" y="722" type="curve"/>
      <point x="520" y="711"/>
      <point x="513" y="691"/>
      <point x="509" y="670" type="curve" smooth="yes"/>
      <point x="495" y="599"/>
      <point x="476" y="483"/>
      <point x="447" y="347" type="curve"/>
      <point x="406" y="349"/>
      <point x="369" y="350"/>
      <point x="325" y="351" type="curve"/>
      <point x="357" y="524"/>
      <point x="384" y="681"/>
      <point x="393" y="722" type="curve"/>
      <point x="341" y="711"/>
      <point x="336" y="691"/>
      <point x="332" y="670" type="curve" smooth="yes"/>
      <point x="317" y="600"/>
      <point x="297" y="485"/>
      <point x="270" y="349" type="curve"/>
      <point x="151" y="346"/>
      <point x="59" y="326"/>
      <point x="55" y="267" type="curve"/>
      <point x="121" y="272" type="line" smooth="yes"/>
      <point x="173" y="276"/>
      <point x="215" y="281"/>
      <point x="254" y="281" type="curve"/>
      <point x="251" y="268"/>
      <point x="248" y="248"/>
      <point x="245" y="233" type="curve"/>
      <point x="118" y="230"/>
      <point x="22" y="211"/>
      <point x="19" y="150" type="curve"/>
      <point x="85" y="155" type="line" smooth="yes"/>
      <point x="142" y="159"/>
      <point x="185" y="163"/>
      <point x="230" y="165" type="curve"/>
      <point x="196" y="18"/>
      <point x="155" y="-113"/>
    </contour>
    <contour>
      <point x="422" y="230" type="line"/>
      <point x="383" y="232"/>
      <point x="344" y="233"/>
      <point x="302" y="233" type="curve"/>
      <point x="312" y="284" type="line"/>
      <point x="350" y="286"/>
      <point x="384" y="286"/>
      <point x="434" y="286" type="curve"/>
    </contour>
  </outline>
</glyph>
<glyph name="percent" format="2">
  <advance width="740"/>
  <unicode hex="0025"/>
  <outline>
    <contour>
      <point x="88" y="-87" type="curve"/>
      <point x="165" y="-87"/>
      <point x="229" y="-13"/>
      <point x="300" y="97" type="curve" smooth="yes"/>
      <point x="388" y="233"/>
      <point x="610" y="654"/>
      <point x="626" y="720" type="curve"/>
      <point x="590" y="720"/>
      <point x="542" y="692"/>
      <point x="534" y="671" type="curve" smooth="yes"/>
      <point x="464" y="490"/>
      <point x="188" y="10"/>
    </contour>
    <contour>
      <point x="203" y="339" type="curve" smooth="yes"/>
      <point x="298" y="339"/>
      <point x="359" y="475"/>
      <point x="359" y="561" type="curve" smooth="yes"/>
      <point x="359" y="627"/>
      <point x="319" y="670"/>
      <point x="262" y="670" type="curve" smooth="yes"/>
      <point x="168" y="670"/>
      <point x="109" y="543"/>
      <point x="109" y="453" type="curve" smooth="yes"/>
      <point x="109" y="393"/>
      <point x="140" y="339"/>
    </contour>
    <contour>
      <point x="209" y="391" type="curve" smooth="yes"/>
      <point x="190" y="391"/>
      <point x="180" y="416"/>
      <point x="180" y="451" type="curve" smooth="yes"/>
      <point x="180" y="511"/>
      <point x="209" y="620"/>
      <point x="264" y="620" type="curve" smooth="yes"/>
      <point x="284" y="620"/>
      <point x="292" y="598"/>
      <point x="292" y="566" type="curve" smooth="yes"/>
      <point x="292" y="494"/>
      <point x="255" y="391"/>
    </contour>
    <contour>
      <point x="548" y="-1" type="curve" smooth="yes"/>
      <point x="643" y="-1"/>
      <point x="703" y="135"/>
      <point x="703" y="220" type="curve" smooth="yes"/>
      <point x="703" y="286"/>
      <point x="664" y="329"/>
      <point x="607" y="329" type="curve" smooth="yes"/>
      <point x="511" y="329"/>
      <point x="454" y="202"/>
      <point x="454" y="112" type="curve" smooth="yes"/>
      <point x="454" y="52"/>
      <point x="484" y="-1"/>
    </contour>
    <contour>
      <point x="553" y="51" type="curve" smooth="yes"/>
      <point x="535" y="51"/>
      <point x="524" y="73"/>
      <point x="524" y="108" type="curve" smooth="yes"/>
      <point x="524" y="168"/>
      <point x="552" y="280"/>
      <point x="608" y="280" type="curve" smooth="yes"/>
      <point x="628" y="280"/>
      <point x="637" y="257"/>
      <point x="637" y="225" type="curve" smooth="yes"/>
      <point x="637" y="153"/>
      <point x="599" y="51"/>
    </contour>
  </outline>
</glyph>
<glyph name="ampersand" format="2">
  <advance width="675"/>
  <unicode hex="0026"/>
  <outline>
    <contour>
      <point x="231" y="-87" type="curve" smooth="yes"/>
      <point x="409" y="-87"/>
      <point x="569" y="78"/>
      <point x="588" y="259" type="curve"/>
      <point x="605" y="259"/>
      <point x="620" y="260"/>
      <point x="644" y="260" type="curve" smooth="yes"/>
      <point x="660" y="260"/>
      <point x="676" y="262"/>
      <point x="697" y="306" type="curve"/>
      <point x="631" y="306"/>
      <point x="590" y="323"/>
      <point x="526" y="323" type="curve" smooth="yes"/>
      <point x="464" y="323"/>
      <point x="414" y="306"/>
      <point x="413" y="238" type="curve"/>
      <point x="486" y="251"/>
      <point x="510" y="256"/>
      <point x="549" y="258" type="curve"/>
      <point x="530" y="108"/>
      <point x="400" y="-39"/>
      <point x="257" y="-39" type="curve" smooth="yes"/>
      <point x="162" y="-39"/>
      <point x="127" y="38"/>
      <point x="127" y="99" type="curve" smooth="yes"/>
      <point x="127" y="199"/>
      <point x="218" y="316"/>
      <point x="363" y="339" type="curve"/>
      <point x="298" y="390"/>
      <point x="290" y="455"/>
      <point x="290" y="501" type="curve" smooth="yes"/>
      <point x="290" y="598"/>
      <point x="338" y="685"/>
      <point x="429" y="685" type="curve" smooth="yes"/>
      <point x="475" y="685"/>
      <point x="496" y="659"/>
      <point x="496" y="622" type="curve" smooth="yes"/>
      <point x="496" y="575"/>
      <point x="459" y="531"/>
      <point x="410" y="491" type="curve"/>
      <point x="422" y="470"/>
      <point x="439" y="450"/>
      <point x="458" y="450" type="curve" smooth="yes"/>
      <point x="496" y="450"/>
      <point x="541" y="531"/>
      <point x="541" y="608" type="curve" smooth="yes"/>
      <point x="541" y="680"/>
      <point x="498" y="719"/>
      <point x="418" y="719" type="curve" smooth="yes"/>
      <point x="287" y="719"/>
      <point x="200" y="617"/>
      <point x="200" y="509" type="curve" smooth="yes"/>
      <point x="200" y="456"/>
      <point x="225" y="401"/>
      <point x="272" y="359" type="curve"/>
      <point x="124" y="338"/>
      <point x="17" y="219"/>
      <point x="17" y="99" type="curve" smooth="yes"/>
      <point x="17" y="-2"/>
      <point x="102" y="-87"/>
    </contour>
  </outline>
</glyph>
<glyph name="parenleft" format="2">
  <advance width="295"/>
  <unicode hex="0028"/>
  <outline>
    <contour>
      <point x="178" y="-87" type="curve"/>
      <point x="188" y="-82"/>
      <point x="198" y="-74"/>
      <point x="206" y="-58" type="curve"/>
      <point x="172" y="-7"/>
      <point x="151" y="76"/>
      <point x="151" y="181" type="curve" smooth="yes"/>
      <point x="151" y="371"/>
      <point x="222" y="588"/>
      <point x="393" y="720" type="curve"/>
      <point x="293" y="720"/>
      <point x="77" y="509"/>
      <point x="77" y="192" type="curve" smooth="yes"/>
      <point x="77" y="61"/>
      <point x="122" y="-57"/>
    </contour>
  </outline>
</glyph>
<glyph name="hyphen" format="2">
  <advance width="507"/>
  <unicode hex="002D"/>
  <outline>
    <contour>
      <point x="55" y="142" type="curve"/>
      <point x="70" y="144"/>
      <point x="133" y="150"/>
      <point x="183" y="150" type="curve" smooth="yes"/>
      <point x="234" y="150"/>
      <point x="280" y="144"/>
      <point x="308" y="144" type="curve" smooth="yes"/>
      <point x="363" y="144"/>
      <point x="416" y="167"/>
      <point x="430" y="198" type="curve"/>
      <point x="394" y="200"/>
      <point x="249" y="205"/>
      <point x="214" y="205" type="curve" smooth="yes"/>
      <point x="183" y="205"/>
      <point x="73" y="201"/>
    </contour>
  </outline>
</glyph>
<glyph name="zero" format="2">
  <advance width="660"/>
  <unicode hex="0030"/>
  <outline>
    <contour>
      <point x="273" y="-87" type="curve" smooth="yes"/>
      <point x="492" y="-87"/>
      <point x="653" y="199"/>
      <point x="653" y="442" type="curve" smooth="yes"/>
      <point x="653" y="621"/>
      <point x="566" y="720"/>
      <point x="436" y="720" type="curve" smooth="yes"/>
      <point x="204" y="720"/>
      <point x="63" y="402"/>
      <point x="63" y="185" type="curve" smooth="yes"/>
      <point x="63" y="34"/>
      <point x="131" y="-87"/>
    </contour>
    <contour>
      <point x="287" y="-39" type="curve" smooth="yes"/>
      <point x="209" y="-39"/>
      <point x="163" y="43"/>
      <point x="163" y="168" type="curve" smooth="yes"/>
      <point x="163" y="347"/>
      <point x="257" y="679"/>
      <point x="436" y="679" type="curve" smooth="yes"/>
      <point x="527" y="679"/>
      <point x="562" y="594"/>
      <point x="562" y="481" type="curve" smooth="yes"/>
      <point x="562" y="269"/>
      <point x="438" y="-39"/>
    </contour>
  </outline>
</glyph>
<glyph name="two" format="2">
  <advance width="599"/>
  <unicode hex="0032"/>
  <outline>
    <contour>
      <point x="438" y="-87" type="curve" smooth="yes"/>
      <point x="497" y="-87"/>
      <point x="532" y="-51"/>
      <point x="553" y="31" type="curve"/>
      <point x="511" y="8"/>
      <point x="493" y="0"/>
      <point x="460" y="0" type="curve" smooth="yes"/>
      <point x="416" y="0"/>
      <point x="340" y="14"/>
      <point x="254" y="33" type="curve"/>
      <point x="352" y="112"/>
      <point x="446" y="232"/>
      <point x="497" y="352" type="curve" smooth="yes"/>
      <point x="522" y="411"/>
      <point x="537" y="469"/>
      <point x="537" y="523" type="curve" smooth="yes"/>
      <point x="537" y="635"/>
      <point x="474" y="720"/>
      <point x="355" y="720" type="curve" smooth="yes"/>
      <point x="225" y="720"/>
      <point x="133" y="619"/>
      <point x="133" y="512" type="curve" smooth="yes"/>
      <point x="133" y="444"/>
      <point x="171" y="420"/>
      <point x="210" y="416" type="curve"/>
      <point x="217" y="415"/>
      <point x="224" y="414"/>
      <point x="229" y="414" type="curve"/>
      <point x="216" y="444"/>
      <point x="210" y="469"/>
      <point x="210" y="501" type="curve" smooth="yes"/>
      <point x="210" y="585"/>
      <point x="253" y="679"/>
      <point x="344" y="679" type="curve" smooth="yes"/>
      <point x="406" y="679"/>
      <point x="452" y="635"/>
      <point x="452" y="541" type="curve" smooth="yes"/>
      <point x="452" y="375"/>
      <point x="309" y="152"/>
      <point x="187" y="47" type="curve"/>
      <point x="145" y="55"/>
      <point x="108" y="60"/>
      <point x="78" y="60" type="curve" smooth="yes"/>
      <point x="18" y="60"/>
      <point x="-6" y="39"/>
      <point x="-6" y="7" type="curve" smooth="yes"/>
      <point x="-6" y="-30"/>
      <point x="27" y="-54"/>
      <point x="73" y="-54" type="curve" smooth="yes"/>
      <point x="109" y="-54"/>
      <point x="148" y="-39"/>
      <point x="192" y="-13" type="curve"/>
      <point x="274" y="-43"/>
      <point x="372" y="-87"/>
    </contour>
    <contour>
      <point x="71" y="-13" type="curve" smooth="yes"/>
      <point x="55" y="-13"/>
      <point x="40" y="-6"/>
      <point x="39" y="4" type="curve" smooth="yes"/>
      <point x="39" y="10"/>
      <point x="45" y="20"/>
      <point x="69" y="20" type="curve" smooth="yes"/>
      <point x="84" y="20"/>
      <point x="107" y="16"/>
      <point x="132" y="8" type="curve"/>
      <point x="109" y="-5"/>
      <point x="89" y="-13"/>
    </contour>
  </outline>
</glyph>
<glyph name="three" format="2">
  <advance width="542"/>
  <unicode hex="0033"/>
  <outline>
    <contour>
      <point x="201" y="-87" type="curve" smooth="yes"/>
      <point x="369" y="-87"/>
      <point x="486" y="45"/>
      <point x="486" y="169" type="curve" smooth="yes"/>
      <point x="486" y="238"/>
      <point x="450" y="325"/>
      <point x="344" y="361" type="curve"/>
      <point x="438" y="397"/>
      <point x="504" y="498"/>
      <point x="504" y="579" type="curve" smooth="yes"/>
      <point x="504" y="671"/>
      <point x="419" y="720"/>
      <point x="334" y="720" type="curve" smooth="yes"/>
      <point x="235" y="720"/>
      <point x="135" y="663"/>
      <point x="135" y="568" type="curve" smooth="yes"/>
      <point x="135" y="528"/>
      <point x="153" y="480"/>
      <point x="182" y="480" type="curve" smooth="yes"/>
      <point x="201" y="480"/>
      <point x="223" y="499"/>
      <point x="231" y="515" type="curve"/>
      <point x="218" y="539"/>
      <point x="211" y="563"/>
      <point x="211" y="584" type="curve" smooth="yes"/>
      <point x="211" y="644"/>
      <point x="267" y="679"/>
      <point x="322" y="679" type="curve" smooth="yes"/>
      <point x="367" y="679"/>
      <point x="412" y="656"/>
      <point x="412" y="591" type="curve" smooth="yes"/>
      <point x="412" y="509"/>
      <point x="343" y="396"/>
      <point x="232" y="349" type="curve"/>
      <point x="336" y="322"/>
      <point x="367" y="239"/>
      <point x="367" y="164" type="curve" smooth="yes"/>
      <point x="367" y="44"/>
      <point x="287" y="-41"/>
      <point x="209" y="-41" type="curve" smooth="yes"/>
      <point x="145" y="-41"/>
      <point x="101" y="16"/>
      <point x="101" y="72" type="curve" smooth="yes"/>
      <point x="101" y="107"/>
      <point x="118" y="149"/>
      <point x="143" y="169" type="curve"/>
      <point x="122" y="173"/>
      <point x="114" y="173"/>
      <point x="108" y="173" type="curve" smooth="yes"/>
      <point x="48" y="173"/>
      <point x="19" y="113"/>
      <point x="19" y="62" type="curve" smooth="yes"/>
      <point x="19" y="-5"/>
      <point x="68" y="-87"/>
    </contour>
  </outline>
</glyph>
<glyph name="four" format="2">
  <advance width="508"/>
  <unicode hex="0034"/>
  <outline>
    <contour>
      <point x="341" y="-87" type="curve"/>
      <point x="341" y="-22"/>
      <point x="361" y="110"/>
      <point x="372" y="181" type="curve" smooth="yes"/>
      <point x="376" y="207"/>
      <point x="379" y="225"/>
      <point x="380" y="229" type="curve"/>
      <point x="382" y="229"/>
      <point x="385" y="229"/>
      <point x="387" y="229" type="curve"/>
      <point x="431" y="232"/>
      <point x="476" y="263"/>
      <point x="508" y="307" type="curve"/>
      <point x="478" y="299"/>
      <point x="458" y="296"/>
      <point x="407" y="296" type="curve"/>
      <point x="403" y="296"/>
      <point x="397" y="296"/>
      <point x="392" y="296" type="curve"/>
      <point x="421" y="456"/>
      <point x="447" y="584"/>
      <point x="458" y="630" type="curve"/>
      <point x="471" y="650"/>
      <point x="478" y="671"/>
      <point x="478" y="685" type="curve" smooth="yes"/>
      <point x="478" y="706"/>
      <point x="463" y="715"/>
      <point x="453" y="720" type="curve"/>
      <point x="350" y="575"/>
      <point x="148" y="385"/>
      <point x="53" y="297" type="curve"/>
      <point x="26" y="272"/>
      <point x="3" y="251"/>
      <point x="3" y="216" type="curve"/>
      <point x="22" y="226"/>
      <point x="189" y="234"/>
      <point x="221" y="234" type="curve" smooth="yes"/>
      <point x="232" y="234"/>
      <point x="264" y="233"/>
      <point x="291" y="230" type="curve"/>
      <point x="284" y="194"/>
      <point x="277" y="153"/>
      <point x="271" y="125" type="curve"/>
      <point x="250" y="12"/>
      <point x="247" y="-21"/>
      <point x="247" y="-33" type="curve"/>
      <point x="247" y="-62"/>
      <point x="280" y="-83"/>
    </contour>
    <contour>
      <point x="119" y="298" type="curve"/>
      <point x="133" y="312"/>
      <point x="149" y="327"/>
      <point x="165" y="343" type="curve"/>
      <point x="226" y="399"/>
      <point x="299" y="463"/>
      <point x="359" y="519" type="curve"/>
      <point x="339" y="453"/>
      <point x="323" y="380"/>
      <point x="306" y="299" type="curve"/>
      <point x="276" y="300"/>
      <point x="243" y="301"/>
      <point x="209" y="301" type="curve" smooth="yes"/>
      <point x="174" y="301"/>
      <point x="145" y="300"/>
    </contour>
  </outline>
</glyph>
<glyph name="six" format="2">
  <advance width="592"/>
  <unicode hex="0036"/>
  <outline>
    <contour>
      <point x="282" y="-87" type="curve" smooth="yes"/>
      <point x="446" y="-87"/>
      <point x="554" y="31"/>
      <point x="554" y="181" type="curve" smooth="yes"/>
      <point x="554" y="321"/>
      <point x="460" y="381"/>
      <point x="354" y="381" type="curve" smooth="yes"/>
      <point x="293" y="381"/>
      <point x="233" y="361"/>
      <point x="188" y="327" type="curve"/>
      <point x="230" y="497"/>
      <point x="326" y="683"/>
      <point x="451" y="683" type="curve" smooth="yes"/>
      <point x="494" y="683"/>
      <point x="503" y="661"/>
      <point x="503" y="633" type="curve" smooth="yes"/>
      <point x="503" y="623"/>
      <point x="502" y="610"/>
      <point x="501" y="600" type="curve"/>
      <point x="550" y="613"/>
      <point x="561" y="634"/>
      <point x="561" y="656" type="curve" smooth="yes"/>
      <point x="561" y="700"/>
      <point x="515" y="720"/>
      <point x="454" y="720" type="curve" smooth="yes"/>
      <point x="206" y="720"/>
      <point x="58" y="386"/>
      <point x="58" y="168" type="curve" smooth="yes"/>
      <point x="58" y="23"/>
      <point x="123" y="-87"/>
    </contour>
    <contour>
      <point x="287" y="-41" type="curve" smooth="yes"/>
      <point x="187" y="-41"/>
      <point x="164" y="73"/>
      <point x="164" y="145" type="curve" smooth="yes"/>
      <point x="164" y="242"/>
      <point x="205" y="333"/>
      <point x="316" y="333" type="curve" smooth="yes"/>
      <point x="394" y="333"/>
      <point x="450" y="288"/>
      <point x="450" y="185" type="curve" smooth="yes"/>
      <point x="450" y="75"/>
      <point x="387" y="-41"/>
    </contour>
  </outline>
</glyph>
<glyph name="greater" format="2">
  <advance width="337"/>
  <unicode hex="003E"/>
  <outline>
    <contour>
      <point x="116" y="44" type="curve" smooth="yes"/>
      <point x="166" y="44"/>
      <point x="272" y="123"/>
      <point x="282" y="166" type="curve"/>
      <point x="208" y="194"/>
      <point x="120" y="266"/>
      <point x="77" y="320" type="curve"/>
      <point x="70" y="309"/>
      <point x="66" y="298"/>
      <point x="66" y="287" type="curve" smooth="yes"/>
      <point x="66" y="234"/>
      <point x="163" y="181"/>
      <point x="232" y="147" type="curve"/>
      <point x="194" y="121"/>
      <point x="166" y="104"/>
      <point x="72" y="70" type="curve"/>
      <point x="80" y="58"/>
      <point x="97" y="44"/>
    </contour>
  </outline>
</glyph>
<glyph name="question" format="2">
  <advance width="462"/>
  <unicode hex="003F"/>
  <outline>
    <contour>
      <point x="265" y="119" type="curve"/>
      <point x="281" y="163"/>
      <point x="278" y="191"/>
      <point x="292" y="237" type="curve" smooth="yes"/>
      <point x="337" y="387"/>
      <point x="489" y="434"/>
      <point x="489" y="582" type="curve" smooth="yes"/>
      <point x="489" y="671"/>
      <point x="429" y="720"/>
      <point x="339" y="720" type="curve" smooth="yes"/>
      <point x="204" y="720"/>
      <point x="118" y="611"/>
      <point x="118" y="497" type="curve" smooth="yes"/>
      <point x="118" y="454"/>
      <point x="135" y="423"/>
      <point x="200" y="413" type="curve"/>
      <point x="192" y="439"/>
      <point x="189" y="458"/>
      <point x="189" y="481" type="curve" smooth="yes"/>
      <point x="189" y="590"/>
      <point x="267" y="680"/>
      <point x="336" y="680" type="curve" smooth="yes"/>
      <point x="380" y="680"/>
      <point x="413" y="641"/>
      <point x="413" y="569" type="curve" smooth="yes"/>
      <point x="413" y="402"/>
      <point x="223" y="332"/>
      <point x="223" y="175" type="curve" smooth="yes"/>
      <point x="223" y="145"/>
      <point x="232" y="136"/>
    </contour>
    <contour>
      <point x="222" y="-10" type="curve" smooth="yes"/>
      <point x="253" y="-10"/>
      <point x="282" y="16"/>
      <point x="282" y="42" type="curve" smooth="yes"/>
      <point x="282" y="62"/>
      <point x="267" y="71"/>
      <point x="247" y="71" type="curve" smooth="yes"/>
      <point x="218" y="71"/>
      <point x="182" y="50"/>
      <point x="182" y="23" type="curve" smooth="yes"/>
      <point x="182" y="1"/>
      <point x="201" y="-10"/>
    </contour>
  </outline>
</glyph>
<glyph name="at" format="2">
  <advance width="613"/>
  <unicode hex="0040"/>
  <outline>
    <contour>
      <point x="242" y="-121" type="curve" smooth="yes"/>
      <point x="348" y="-121"/>
      <point x="429" y="-75"/>
      <point x="484" y="-15" type="curve"/>
      <point x="470" y="3" type="line"/>
      <point x="396" y="-64"/>
      <point x="320" y="-85"/>
      <point x="252" y="-85" type="curve" smooth="yes"/>
      <point x="112" y="-85"/>
      <point x="63" y="5"/>
      <point x="63" y="89" type="curve" smooth="yes"/>
      <point x="63" y="216"/>
      <point x="173" y="353"/>
      <point x="344" y="353" type="curve" smooth="yes"/>
      <point x="474" y="353"/>
      <point x="526" y="273"/>
      <point x="526" y="203" type="curve" smooth="yes"/>
      <point x="526" y="126"/>
      <point x="463" y="46"/>
      <point x="402" y="46" type="curve" smooth="yes"/>
      <point x="376" y="46"/>
      <point x="372" y="61"/>
      <point x="372" y="71" type="curve" smooth="yes"/>
      <point x="372" y="107"/>
      <point x="418" y="156"/>
      <point x="418" y="180" type="curve" smooth="yes"/>
      <point x="418" y="192"/>
      <point x="393" y="204"/>
      <point x="376" y="207" type="curve"/>
      <point x="347" y="142"/>
      <point x="234" y="35"/>
      <point x="202" y="35" type="curve" smooth="yes"/>
      <point x="194" y="35"/>
      <point x="187" y="41"/>
      <point x="187" y="61" type="curve" smooth="yes"/>
      <point x="187" y="131"/>
      <point x="276" y="279"/>
      <point x="352" y="279" type="curve" smooth="yes"/>
      <point x="382" y="279"/>
      <point x="384" y="255"/>
      <point x="384" y="233" type="curve" smooth="yes"/>
      <point x="384" y="226"/>
      <point x="383" y="220"/>
      <point x="382" y="213" type="curve"/>
      <point x="392" y="211"/>
      <point x="433" y="213"/>
      <point x="433" y="253" type="curve" smooth="yes"/>
      <point x="433" y="283"/>
      <point x="398" y="310"/>
      <point x="351" y="310" type="curve" smooth="yes"/>
      <point x="240" y="310"/>
      <point x="121" y="158"/>
      <point x="121" y="64" type="curve" smooth="yes"/>
      <point x="121" y="16"/>
      <point x="153" y="-8"/>
      <point x="188" y="-8" type="curve" smooth="yes"/>
      <point x="230" y="-8"/>
      <point x="272" y="27"/>
      <point x="316" y="79" type="curve"/>
      <point x="316" y="68"/>
      <point x="317" y="58"/>
      <point x="320" y="48" type="curve" smooth="yes"/>
      <point x="329" y="23"/>
      <point x="349" y="5"/>
      <point x="391" y="5" type="curve" smooth="yes"/>
      <point x="492" y="5"/>
      <point x="572" y="112"/>
      <point x="572" y="210" type="curve" smooth="yes"/>
      <point x="572" y="304"/>
      <point x="498" y="395"/>
      <point x="343" y="395" type="curve" smooth="yes"/>
      <point x="141" y="395"/>
      <point x="13" y="241"/>
      <point x="13" y="92" type="curve" smooth="yes"/>
      <point x="13" y="-19"/>
      <point x="84" y="-121"/>
    </contour>
  </outline>
</glyph>
<glyph name="D" format="2">
  <advance width="687"/>
  <unicode hex="0044"/>
  <outline>
    <contour>
      <point x="191" y="-87" type="curve" smooth="yes"/>
      <point x="435" y="-87"/>
      <point x="686" y="153"/>
      <point x="686" y="440" type="curve" smooth="yes"/>
      <point x="686" y="596"/>
      <point x="612" y="720"/>
      <point x="417" y="720" type="curve" smooth="yes"/>
      <point x="231" y="720"/>
      <point x="85" y="608"/>
      <point x="85" y="515" type="curve" smooth="yes"/>
      <point x="85" y="479"/>
      <point x="107" y="451"/>
      <point x="165" y="451" type="curve"/>
      <point x="158" y="467"/>
      <point x="156" y="484"/>
      <point x="156" y="499" type="curve" smooth="yes"/>
      <point x="156" y="602"/>
      <point x="253" y="679"/>
      <point x="384" y="679" type="curve" smooth="yes"/>
      <point x="507" y="679"/>
      <point x="597" y="611"/>
      <point x="597" y="450" type="curve" smooth="yes"/>
      <point x="597" y="241"/>
      <point x="417" y="-50"/>
      <point x="201" y="-50" type="curve" smooth="yes"/>
      <point x="184" y="-50"/>
      <point x="162" y="-48"/>
      <point x="151" y="-44" type="curve"/>
      <point x="192" y="145"/>
      <point x="281" y="432"/>
      <point x="364" y="620" type="curve"/>
      <point x="349" y="630"/>
      <point x="336" y="634"/>
      <point x="326" y="634" type="curve" smooth="yes"/>
      <point x="280" y="634"/>
      <point x="249" y="559"/>
      <point x="241" y="537" type="curve" smooth="yes"/>
      <point x="212" y="462"/>
      <point x="82" y="59"/>
      <point x="70" y="-37" type="curve"/>
      <point x="101" y="-78"/>
      <point x="144" y="-87"/>
    </contour>
  </outline>
</glyph>
<glyph name="F" format="2">
  <advance width="522"/>
  <unicode hex="0046"/>
  <outline>
    <contour>
      <point x="188" y="-87" type="curve"/>
      <point x="188" y="-27"/>
      <point x="200" y="47"/>
      <point x="237" y="175" type="curve" smooth="yes"/>
      <point x="240" y="185"/>
      <point x="261" y="255"/>
      <point x="278" y="316" type="curve"/>
      <point x="430" y="319"/>
      <point x="453" y="321"/>
      <point x="484" y="364" type="curve"/>
      <point x="416" y="366"/>
      <point x="366" y="375"/>
      <point x="297" y="380" type="curve"/>
      <point x="329" y="481"/>
      <point x="360" y="579"/>
      <point x="387" y="643" type="curve"/>
      <point x="446" y="639"/>
      <point x="499" y="627"/>
      <point x="531" y="627" type="curve" smooth="yes"/>
      <point x="570" y="627"/>
      <point x="605" y="645"/>
      <point x="669" y="716" type="curve"/>
      <point x="629" y="705"/>
      <point x="601" y="701"/>
      <point x="568" y="701" type="curve" smooth="yes"/>
      <point x="507" y="701"/>
      <point x="434" y="715"/>
      <point x="363" y="715" type="curve" smooth="yes"/>
      <point x="199" y="715"/>
      <point x="73" y="641"/>
      <point x="73" y="537" type="curve" smooth="yes"/>
      <point x="73" y="492"/>
      <point x="97" y="460"/>
      <point x="160" y="450" type="curve"/>
      <point x="147" y="482"/>
      <point x="140" y="506"/>
      <point x="140" y="540" type="curve" smooth="yes"/>
      <point x="140" y="609"/>
      <point x="170" y="649"/>
      <point x="293" y="649" type="curve" smooth="yes"/>
      <point x="312" y="649"/>
      <point x="321" y="648"/>
      <point x="329" y="647" type="curve"/>
      <point x="292" y="571"/>
      <point x="255" y="477"/>
      <point x="220" y="381" type="curve"/>
      <point x="144" y="379"/>
      <point x="78" y="359"/>
      <point x="73" y="298" type="curve"/>
      <point x="103" y="303"/>
      <point x="173" y="309"/>
      <point x="195" y="311" type="curve"/>
      <point x="145" y="194"/>
      <point x="102" y="68"/>
      <point x="102" y="-6" type="curve" smooth="yes"/>
      <point x="102" y="-50"/>
      <point x="117" y="-82"/>
    </contour>
  </outline>
</glyph>
<glyph name="H" format="2">
  <advance width="663"/>
  <unicode hex="0048"/>
  <outline>
    <contour>
      <point x="72" y="-87" type="curve"/>
      <point x="97" y="-87"/>
      <point x="141" y="-68"/>
      <point x="156" y="-19" type="curve" smooth="yes"/>
      <point x="246" y="268"/>
      <point x="255" y="301"/>
      <point x="259" y="313" type="curve"/>
      <point x="319" y="318"/>
      <point x="368" y="319"/>
      <point x="490" y="320" type="curve"/>
      <point x="463" y="234"/>
      <point x="445" y="172"/>
      <point x="434" y="123" type="curve" smooth="yes"/>
      <point x="422" y="72"/>
      <point x="418" y="36"/>
      <point x="418" y="6" type="curve" smooth="yes"/>
      <point x="418" y="-59"/>
      <point x="438" y="-80"/>
      <point x="506" y="-87" type="curve"/>
      <point x="503" y="-71"/>
      <point x="501" y="-55"/>
      <point x="501" y="-34" type="curve" smooth="yes"/>
      <point x="501" y="6"/>
      <point x="508" y="69"/>
      <point x="524" y="155" type="curve" smooth="yes"/>
      <point x="532" y="203"/>
      <point x="544" y="259"/>
      <point x="559" y="321" type="curve"/>
      <point x="586" y="321"/>
      <point x="616" y="325"/>
      <point x="658" y="367" type="curve"/>
      <point x="629" y="367"/>
      <point x="590" y="370"/>
      <point x="571" y="370" type="curve"/>
      <point x="604" y="501"/>
      <point x="650" y="650"/>
      <point x="676" y="721" type="curve"/>
      <point x="628" y="721"/>
      <point x="611" y="681"/>
      <point x="604" y="665" type="curve" smooth="yes"/>
      <point x="581" y="611"/>
      <point x="556" y="542"/>
      <point x="506" y="375" type="curve"/>
      <point x="453" y="380"/>
      <point x="396" y="383"/>
      <point x="331" y="383" type="curve" smooth="yes"/>
      <point x="314" y="383"/>
      <point x="297" y="383"/>
      <point x="281" y="382" type="curve"/>
      <point x="354" y="622" type="line" smooth="yes"/>
      <point x="358" y="635"/>
      <point x="362" y="650"/>
      <point x="362" y="665" type="curve" smooth="yes"/>
      <point x="362" y="693"/>
      <point x="349" y="720"/>
      <point x="306" y="720" type="curve" smooth="yes"/>
      <point x="223" y="720"/>
      <point x="96" y="616"/>
      <point x="96" y="526" type="curve" smooth="yes"/>
      <point x="96" y="487"/>
      <point x="119" y="460"/>
      <point x="175" y="460" type="curve"/>
      <point x="167" y="483"/>
      <point x="165" y="494"/>
      <point x="165" y="505" type="curve" smooth="yes"/>
      <point x="165" y="566"/>
      <point x="226" y="678"/>
      <point x="280" y="678" type="curve" smooth="yes"/>
      <point x="290" y="678"/>
      <point x="293" y="674"/>
      <point x="293" y="664" type="curve" smooth="yes"/>
      <point x="293" y="646"/>
      <point x="283" y="622"/>
      <point x="281" y="616" type="curve" smooth="yes"/>
      <point x="207" y="398"/>
      <point x="213" y="419"/>
      <point x="198" y="374" type="curve"/>
      <point x="146" y="363"/>
      <point x="111" y="342"/>
      <point x="111" y="300" type="curve"/>
      <point x="131" y="301"/>
      <point x="156" y="304"/>
      <point x="176" y="306" type="curve"/>
      <point x="109" y="100"/>
      <point x="87" y="8"/>
    </contour>
  </outline>
</glyph>
<glyph name="I" format="2">
  <advance width="503"/>
  <unicode hex="0049"/>
  <anchor x="204" y="-53" name="ogonek"/>
  <anchor x="20" y="720" name="topleft"/>
  <outline>
    <contour>
      <point x="-18" y="-88" type="curve"/>
      <point x="83" y="-71"/>
      <point x="125" y="-70"/>
      <point x="303" y="-70" type="curve" smooth="yes"/>
      <point x="334" y="-70"/>
      <point x="385" y="-64"/>
      <point x="438" y="-14" type="curve"/>
      <point x="351" y="-12"/>
      <point x="282" y="-1"/>
      <point x="212" y="4" type="curve"/>
      <point x="243" y="33"/>
      <point x="267" y="95"/>
      <point x="284" y="164" type="curve" smooth="yes"/>
      <point x="311" y="272"/>
      <point x="355" y="536"/>
      <point x="377" y="649" type="curve"/>
      <point x="409" y="650"/>
      <point x="441" y="650"/>
      <point x="485" y="650" type="curve" smooth="yes"/>
      <point x="514" y="650"/>
      <point x="556" y="654"/>
      <point x="601" y="697" type="curve"/>
      <point x="547" y="704"/>
      <point x="417" y="719"/>
      <point x="311" y="719" type="curve" smooth="yes"/>
      <point x="168" y="719"/>
      <point x="103" y="692"/>
      <point x="89" y="625" type="curve"/>
      <point x="163" y="639"/>
      <point x="224" y="647"/>
      <point x="326" y="649" type="curve"/>
      <point x="283" y="521"/>
      <point x="225" y="159"/>
      <point x="154" y="6" type="curve"/>
      <point x="65" y="6"/>
      <point x="-11" y="-3"/>
    </contour>
  </outline>
</glyph>
<glyph name="K" format="2">
  <advance width="637"/>
  <unicode hex="004B"/>
  <outline>
    <contour>
      <point x="542" y="-87" type="curve" smooth="yes"/>
      <point x="565" y="-87"/>
      <point x="592" y="-68"/>
      <point x="604" y="-45" type="curve"/>
      <point x="422" y="94"/>
      <point x="360" y="189"/>
      <point x="276" y="320" type="curve"/>
      <point x="406" y="403"/>
      <point x="645" y="566"/>
      <point x="645" y="669" type="curve" smooth="yes"/>
      <point x="645" y="682"/>
      <point x="641" y="708"/>
      <point x="625" y="723" type="curve"/>
      <point x="560" y="625"/>
      <point x="457" y="520"/>
      <point x="345" y="433" type="curve" smooth="yes"/>
      <point x="306" y="403"/>
      <point x="291" y="391"/>
      <point x="276" y="382" type="curve"/>
      <point x="350" y="622" type="line" smooth="yes"/>
      <point x="354" y="634"/>
      <point x="357" y="647"/>
      <point x="357" y="662" type="curve" smooth="yes"/>
      <point x="357" y="690"/>
      <point x="347" y="720"/>
      <point x="302" y="720" type="curve" smooth="yes"/>
      <point x="219" y="720"/>
      <point x="91" y="615"/>
      <point x="91" y="525" type="curve" smooth="yes"/>
      <point x="91" y="487"/>
      <point x="114" y="460"/>
      <point x="171" y="460" type="curve"/>
      <point x="165" y="474"/>
      <point x="161" y="491"/>
      <point x="161" y="506" type="curve" smooth="yes"/>
      <point x="161" y="564"/>
      <point x="217" y="678"/>
      <point x="280" y="678" type="curve" smooth="yes"/>
      <point x="295" y="678"/>
      <point x="300" y="671"/>
      <point x="300" y="659" type="curve" smooth="yes"/>
      <point x="300" y="644"/>
      <point x="291" y="625"/>
      <point x="288" y="616" type="curve" smooth="yes"/>
      <point x="121" y="153"/>
      <point x="91" y="33"/>
      <point x="43" y="-69" type="curve"/>
      <point x="83" y="-69"/>
      <point x="136" y="-67"/>
      <point x="151" y="-19" type="curve" smooth="yes"/>
      <point x="242" y="275" type="line"/>
      <point x="312" y="142"/>
      <point x="463" y="-87"/>
    </contour>
  </outline>
</glyph>
<glyph name="N" format="2">
  <advance width="674"/>
  <unicode hex="004E"/>
  <outline>
    <contour>
      <point x="56" y="-87" type="curve"/>
      <point x="132" y="-87"/>
      <point x="162" y="8"/>
      <point x="312" y="555" type="curve"/>
      <point x="330" y="457"/>
      <point x="399" y="66"/>
      <point x="415" y="-1" type="curve" smooth="yes"/>
      <point x="431" y="-69"/>
      <point x="462" y="-87"/>
      <point x="511" y="-87" type="curve"/>
      <point x="511" y="70"/>
      <point x="637" y="539"/>
      <point x="707" y="721" type="curve"/>
      <point x="663" y="721"/>
      <point x="638" y="689"/>
      <point x="626" y="668" type="curve" smooth="yes"/>
      <point x="578" y="585"/>
      <point x="523" y="306"/>
      <point x="475" y="114" type="curve"/>
      <point x="463" y="177"/>
      <point x="460" y="193"/>
      <point x="429" y="407" type="curve" smooth="yes"/>
      <point x="405" y="571"/>
      <point x="383" y="720"/>
      <point x="291" y="720" type="curve" smooth="yes"/>
      <point x="214" y="720"/>
      <point x="84" y="616"/>
      <point x="84" y="525" type="curve" smooth="yes"/>
      <point x="84" y="488"/>
      <point x="105" y="460"/>
      <point x="164" y="460" type="curve"/>
      <point x="158" y="474"/>
      <point x="154" y="491"/>
      <point x="154" y="507" type="curve" smooth="yes"/>
      <point x="154" y="565"/>
      <point x="205" y="669"/>
      <point x="262" y="669" type="curve" smooth="yes"/>
      <point x="273" y="669"/>
      <point x="275" y="665"/>
      <point x="275" y="655" type="curve" smooth="yes"/>
      <point x="275" y="639"/>
      <point x="269" y="620"/>
      <point x="268" y="616" type="curve" smooth="yes"/>
      <point x="152" y="213"/>
      <point x="97" y="45"/>
    </contour>
  </outline>
</glyph>
<glyph name="Q" format="2">
  <advance width="728"/>
  <unicode hex="0051"/>
  <outline>
    <contour>
      <point x="559" y="-119" type="curve" smooth="yes"/>
      <point x="594" y="-119"/>
      <point x="644" y="-107"/>
      <point x="669" y="-22" type="curve"/>
      <point x="641" y="-29"/>
      <point x="633" y="-37"/>
      <point x="598" y="-37" type="curve" smooth="yes"/>
      <point x="547" y="-37"/>
      <point x="499" y="-20"/>
      <point x="455" y="2" type="curve"/>
      <point x="583" y="106"/>
      <point x="677" y="309"/>
      <point x="677" y="472" type="curve" smooth="yes"/>
      <point x="677" y="627"/>
      <point x="591" y="720"/>
      <point x="454" y="720" type="curve" smooth="yes"/>
      <point x="219" y="720"/>
      <point x="44" y="449"/>
      <point x="44" y="201" type="curve" smooth="yes"/>
      <point x="44" y="126"/>
      <point x="65" y="57"/>
      <point x="142" y="57" type="curve"/>
      <point x="132" y="95"/>
      <point x="130" y="130"/>
      <point x="130" y="157" type="curve" smooth="yes"/>
      <point x="130" y="380"/>
      <point x="261" y="679"/>
      <point x="454" y="679" type="curve" smooth="yes"/>
      <point x="551" y="679"/>
      <point x="591" y="604"/>
      <point x="591" y="496" type="curve" smooth="yes"/>
      <point x="591" y="358"/>
      <point x="526" y="130"/>
      <point x="411" y="26" type="curve"/>
      <point x="353" y="59"/>
      <point x="302" y="88"/>
      <point x="246" y="88" type="curve" smooth="yes"/>
      <point x="184" y="88"/>
      <point x="164" y="53"/>
      <point x="164" y="26" type="curve" smooth="yes"/>
      <point x="164" y="2"/>
      <point x="180" y="-64"/>
      <point x="283" y="-64" type="curve" smooth="yes"/>
      <point x="321" y="-64"/>
      <point x="357" y="-55"/>
      <point x="390" y="-39" type="curve"/>
      <point x="441" y="-80"/>
      <point x="495" y="-119"/>
    </contour>
    <contour>
      <point x="265" y="-34" type="curve" smooth="yes"/>
      <point x="211" y="-34"/>
      <point x="194" y="-2"/>
      <point x="194" y="19" type="curve" smooth="yes"/>
      <point x="194" y="38"/>
      <point x="208" y="50"/>
      <point x="235" y="50" type="curve" smooth="yes"/>
      <point x="276" y="50"/>
      <point x="315" y="22"/>
      <point x="354" y="-10" type="curve"/>
      <point x="333" y="-20"/>
      <point x="301" y="-34"/>
    </contour>
  </outline>
</glyph>
<glyph name="R" format="2">
  <advance width="616"/>
  <unicode hex="0052"/>
  <outline>
    <contour>
      <point x="505" y="-121" type="curve" smooth="yes"/>
      <point x="526" y="-121"/>
      <point x="560" y="-104"/>
      <point x="566" y="-77" type="curve"/>
      <point x="395" y="53"/>
      <point x="329" y="174"/>
      <point x="243" y="309" type="curve"/>
      <point x="338" y="311"/>
      <point x="622" y="338"/>
      <point x="622" y="527" type="curve" smooth="yes"/>
      <point x="622" y="666"/>
      <point x="470" y="720"/>
      <point x="349" y="720" type="curve" smooth="yes"/>
      <point x="253" y="720"/>
      <point x="163" y="686"/>
      <point x="108" y="664" type="curve"/>
      <point x="108" y="649"/>
      <point x="137" y="625"/>
      <point x="148" y="625" type="curve" smooth="yes"/>
      <point x="162" y="625"/>
      <point x="211" y="663"/>
      <point x="290" y="679" type="curve"/>
      <point x="177" y="420"/>
      <point x="141" y="316"/>
      <point x="45" y="25" type="curve" smooth="yes"/>
      <point x="39" y="6"/>
      <point x="31" y="-15"/>
      <point x="31" y="-30" type="curve" smooth="yes"/>
      <point x="31" y="-65"/>
      <point x="72" y="-88"/>
      <point x="111" y="-88" type="curve"/>
      <point x="140" y="13"/>
      <point x="173" y="136"/>
      <point x="209" y="259" type="curve"/>
      <point x="277" y="121"/>
      <point x="425" y="-121"/>
    </contour>
    <contour>
      <point x="232" y="339" type="curve"/>
      <point x="272" y="470"/>
      <point x="315" y="596"/>
      <point x="360" y="685" type="curve"/>
      <point x="449" y="683"/>
      <point x="539" y="650"/>
      <point x="539" y="547" type="curve" smooth="yes"/>
      <point x="539" y="411"/>
      <point x="381" y="350"/>
    </contour>
  </outline>
</glyph>
<glyph name="T" format="2">
  <advance width="540"/>
  <unicode hex="0054"/>
  <outline>
    <contour>
      <point x="233" y="-87" type="curve"/>
      <point x="230" y="-72"/>
      <point x="230" y="-65"/>
      <point x="230" y="-58" type="curve" smooth="yes"/>
      <point x="230" y="3"/>
      <point x="242" y="46"/>
      <point x="268" y="143" type="curve" smooth="yes"/>
      <point x="313" y="308"/>
      <point x="366" y="481"/>
      <point x="430" y="639" type="curve"/>
      <point x="519" y="639"/>
      <point x="636" y="641"/>
      <point x="696" y="698" type="curve"/>
      <point x="604" y="697"/>
      <point x="498" y="720"/>
      <point x="341" y="720" type="curve" smooth="yes"/>
      <point x="191" y="720"/>
      <point x="85" y="698"/>
      <point x="76" y="615" type="curve"/>
      <point x="164" y="630"/>
      <point x="232" y="637"/>
      <point x="369" y="639" type="curve"/>
      <point x="314" y="507"/>
      <point x="233" y="327"/>
      <point x="170" y="137" type="curve" smooth="yes"/>
      <point x="154" y="88"/>
      <point x="135" y="29"/>
      <point x="135" y="-10" type="curve" smooth="yes"/>
      <point x="136" y="-55"/>
      <point x="160" y="-87"/>
    </contour>
  </outline>
</glyph>
<glyph name="V" format="2">
  <advance width="669"/>
  <unicode hex="0056"/>
  <outline>
    <contour>
      <point x="245" y="-87" type="curve" smooth="yes"/>
      <point x="423" y="-87"/>
      <point x="695" y="361"/>
      <point x="695" y="576" type="curve" smooth="yes"/>
      <point x="695" y="658"/>
      <point x="656" y="706"/>
      <point x="620" y="706" type="curve" smooth="yes"/>
      <point x="598" y="706"/>
      <point x="567" y="689"/>
      <point x="549" y="649" type="curve"/>
      <point x="588" y="636"/>
      <point x="616" y="601"/>
      <point x="616" y="530" type="curve" smooth="yes"/>
      <point x="616" y="316"/>
      <point x="381" y="-42"/>
      <point x="267" y="-42" type="curve" smooth="yes"/>
      <point x="247" y="-42"/>
      <point x="243" y="-30"/>
      <point x="243" y="-8" type="curve" smooth="yes"/>
      <point x="243" y="112"/>
      <point x="366" y="352"/>
      <point x="366" y="535" type="curve" smooth="yes"/>
      <point x="366" y="650"/>
      <point x="318" y="720"/>
      <point x="228" y="720" type="curve" smooth="yes"/>
      <point x="120" y="720"/>
      <point x="34" y="621"/>
      <point x="34" y="540" type="curve" smooth="yes"/>
      <point x="34" y="495"/>
      <point x="61" y="460"/>
      <point x="127" y="460" type="curve"/>
      <point x="116" y="481"/>
      <point x="112" y="502"/>
      <point x="112" y="525" type="curve" smooth="yes"/>
      <point x="112" y="585"/>
      <point x="139" y="678"/>
      <point x="208" y="678" type="curve" smooth="yes"/>
      <point x="258" y="678"/>
      <point x="269" y="629"/>
      <point x="269" y="559" type="curve" smooth="yes"/>
      <point x="269" y="326"/>
      <point x="149" y="104"/>
      <point x="149" y="2" type="curve" smooth="yes"/>
      <point x="149" y="-73"/>
      <point x="213" y="-87"/>
    </contour>
  </outline>
</glyph>
<glyph name="W" format="2">
  <advance width="953"/>
  <unicode hex="0057"/>
  <outline>
    <contour>
      <point x="246" y="-87" type="curve" smooth="yes"/>
      <point x="311" y="-87"/>
      <point x="377" y="-33"/>
      <point x="443" y="50" type="curve"/>
      <point x="437" y="32"/>
      <point x="433" y="15"/>
      <point x="433" y="-1" type="curve" smooth="yes"/>
      <point x="433" y="-53"/>
      <point x="471" y="-87"/>
      <point x="523" y="-87" type="curve" smooth="yes"/>
      <point x="712" y="-87"/>
      <point x="980" y="362"/>
      <point x="980" y="575" type="curve" smooth="yes"/>
      <point x="980" y="659"/>
      <point x="939" y="697"/>
      <point x="908" y="697" type="curve" smooth="yes"/>
      <point x="887" y="697"/>
      <point x="857" y="680"/>
      <point x="833" y="641" type="curve"/>
      <point x="871" y="628"/>
      <point x="901" y="603"/>
      <point x="901" y="530" type="curve" smooth="yes"/>
      <point x="901" y="325"/>
      <point x="665" y="-42"/>
      <point x="553" y="-42" type="curve" smooth="yes"/>
      <point x="533" y="-42"/>
      <point x="527" y="-31"/>
      <point x="527" y="-4" type="curve" smooth="yes"/>
      <point x="527" y="67"/>
      <point x="567" y="161"/>
      <point x="600" y="238" type="curve" smooth="yes"/>
      <point x="627" y="301"/>
      <point x="637" y="329"/>
      <point x="637" y="343" type="curve" smooth="yes"/>
      <point x="637" y="368"/>
      <point x="608" y="404"/>
      <point x="557" y="404" type="curve"/>
      <point x="537" y="269"/>
      <point x="372" y="-42"/>
      <point x="265" y="-42" type="curve" smooth="yes"/>
      <point x="247" y="-42"/>
      <point x="243" y="-33"/>
      <point x="243" y="-8" type="curve" smooth="yes"/>
      <point x="243" y="71"/>
      <point x="281" y="158"/>
      <point x="301" y="222" type="curve" smooth="yes"/>
      <point x="338" y="339"/>
      <point x="366" y="436"/>
      <point x="366" y="528" type="curve" smooth="yes"/>
      <point x="366" y="651"/>
      <point x="317" y="720"/>
      <point x="227" y="720" type="curve" smooth="yes"/>
      <point x="120" y="720"/>
      <point x="34" y="621"/>
      <point x="34" y="540" type="curve" smooth="yes"/>
      <point x="34" y="495"/>
      <point x="61" y="460"/>
      <point x="127" y="460" type="curve"/>
      <point x="117" y="479"/>
      <point x="112" y="505"/>
      <point x="112" y="533" type="curve" smooth="yes"/>
      <point x="112" y="602"/>
      <point x="144" y="680"/>
      <point x="208" y="680" type="curve" smooth="yes"/>
      <point x="256" y="680"/>
      <point x="269" y="635"/>
      <point x="269" y="554" type="curve" smooth="yes"/>
      <point x="269" y="413"/>
      <point x="229" y="304"/>
      <point x="193" y="186" type="curve" smooth="yes"/>
      <point x="161" y="82"/>
      <point x="149" y="35"/>
      <point x="149" y="2" type="curve" smooth="yes"/>
      <point x="149" y="-78"/>
      <point x="220" y="-87"/>
    </contour>
  </outline>
</glyph>
<glyph name="X" format="2">
  <advance width="706"/>
  <unicode hex="0058"/>
  <outline>
    <contour>
      <point x="45" y="-112" type="curve"/>
      <point x="95" y="-72"/>
      <point x="216" y="53"/>
      <point x="333" y="191" type="curve"/>
      <point x="345" y="71"/>
      <point x="373" y="-80"/>
      <point x="488" y="-80" type="curve" smooth="yes"/>
      <point x="573" y="-80"/>
      <point x="629" y="2"/>
      <point x="711" y="164" type="curve"/>
      <point x="689" y="182" type="line"/>
      <point x="611" y="49"/>
      <point x="556" y="-29"/>
      <point x="513" y="-29" type="curve" smooth="yes"/>
      <point x="453" y="-29"/>
      <point x="426" y="126"/>
      <point x="417" y="294" type="curve"/>
      <point x="553" y="460"/>
      <point x="665" y="621"/>
      <point x="665" y="675" type="curve" smooth="yes"/>
      <point x="665" y="695"/>
      <point x="648" y="721"/>
      <point x="637" y="728" type="curve"/>
      <point x="589" y="631"/>
      <point x="518" y="509"/>
      <point x="415" y="370" type="curve"/>
      <point x="408" y="487"/>
      <point x="434" y="723"/>
      <point x="273" y="723" type="curve" smooth="yes"/>
      <point x="170" y="723"/>
      <point x="78" y="628"/>
      <point x="78" y="544" type="curve" smooth="yes"/>
      <point x="78" y="501"/>
      <point x="102" y="468"/>
      <point x="167" y="468" type="curve"/>
      <point x="158" y="488"/>
      <point x="154" y="510"/>
      <point x="154" y="532" type="curve" smooth="yes"/>
      <point x="154" y="595"/>
      <point x="185" y="684"/>
      <point x="251" y="684" type="curve" smooth="yes"/>
      <point x="305" y="684"/>
      <point x="304" y="623"/>
      <point x="310" y="484" type="curve" smooth="yes"/>
      <point x="312" y="424"/>
      <point x="316" y="348"/>
      <point x="327" y="257" type="curve"/>
      <point x="225" y="133"/>
      <point x="186" y="90"/>
      <point x="97" y="-3" type="curve" smooth="yes"/>
      <point x="66" y="-35"/>
      <point x="51" y="-52"/>
    </contour>
  </outline>
</glyph>
<glyph name="bracketleft" format="2">
  <advance width="438"/>
  <unicode hex="005B"/>
  <outline>
    <contour>
      <point x="233" y="-87" type="curve" smooth="yes"/>
      <point x="329" y="-87"/>
      <point x="370" y="-59"/>
      <point x="370" y="3" type="curve"/>
      <point x="306" y="-15"/>
      <point x="268" y="-17"/>
      <point x="125" y="-18" type="curve"/>
      <point x="155" y="85"/>
      <point x="203" y="478"/>
      <point x="259" y="643" type="curve"/>
      <point x="295" y="636"/>
      <point x="333" y="627"/>
      <point x="367" y="627" type="curve" smooth="yes"/>
      <point x="427" y="627"/>
      <point x="479" y="636"/>
      <point x="482" y="725" type="curve"/>
      <point x="446" y="705"/>
      <point x="407" y="701"/>
      <point x="371" y="701" type="curve" smooth="yes"/>
      <point x="341" y="701"/>
      <point x="314" y="704"/>
      <point x="295" y="704" type="curve" smooth="yes"/>
      <point x="250" y="704"/>
      <point x="188" y="667"/>
      <point x="158" y="496" type="curve" smooth="yes"/>
      <point x="65" y="-32"/>
      <point x="60" y="-44"/>
      <point x="48" y="-65" type="curve"/>
      <point x="81" y="-72"/>
      <point x="167" y="-87"/>
    </contour>
  </outline>
</glyph>
<glyph name="c" format="2">
  <advance width="333"/>
  <unicode hex="0063"/>
  <outline>
    <contour>
      <point x="113" y="-56" type="curve" smooth="yes"/>
      <point x="215" y="-56"/>
      <point x="328" y="33"/>
      <point x="376" y="155" type="curve"/>
      <point x="356" y="173" type="line"/>
      <point x="312" y="64"/>
      <point x="218" y="-5"/>
      <point x="142" y="-5" type="curve" smooth="yes"/>
      <point x="86" y="-5"/>
      <point x="71" y="33"/>
      <point x="71" y="70" type="curve" smooth="yes"/>
      <point x="71" y="159"/>
      <point x="160" y="298"/>
      <point x="227" y="298" type="curve" smooth="yes"/>
      <point x="241" y="298"/>
      <point x="246" y="292"/>
      <point x="246" y="281" type="curve" smooth="yes"/>
      <point x="246" y="241"/>
      <point x="227" y="215"/>
      <point x="214" y="206" type="curve"/>
      <point x="222" y="193"/>
      <point x="234" y="187"/>
      <point x="245" y="187" type="curve" smooth="yes"/>
      <point x="275" y="187"/>
      <point x="295" y="231"/>
      <point x="295" y="268" type="curve" smooth="yes"/>
      <point x="295" y="305"/>
      <point x="272" y="338"/>
      <point x="216" y="338" type="curve" smooth="yes"/>
      <point x="107" y="338"/>
      <point x="-6" y="207"/>
      <point x="-6" y="76" type="curve" smooth="yes"/>
      <point x="-6" y="-14"/>
      <point x="44" y="-56"/>
    </contour>
  </outline>
</glyph>
<glyph name="e" format="2">
  <advance width="341"/>
  <unicode hex="0065"/>
  <anchor x="254" y="0" name="ogonek"/>
  <outline>
    <contour>
      <point x="116" y="-44" type="curve" smooth="yes"/>
      <point x="223" y="-44"/>
      <point x="331" y="36"/>
      <point x="385" y="156" type="curve"/>
      <point x="365" y="172" type="line"/>
      <point x="314" y="76"/>
      <point x="221" y="-1"/>
      <point x="138" y="-1" type="curve" smooth="yes"/>
      <point x="62" y="-1"/>
      <point x="61" y="63"/>
      <point x="61" y="77" type="curve" smooth="yes"/>
      <point x="61" y="90"/>
      <point x="62" y="95"/>
      <point x="63" y="100" type="curve"/>
      <point x="183" y="113"/>
      <point x="315" y="193"/>
      <point x="315" y="294" type="curve" smooth="yes"/>
      <point x="315" y="347"/>
      <point x="277" y="361"/>
      <point x="242" y="361" type="curve" smooth="yes"/>
      <point x="118" y="361"/>
      <point x="-17" y="195"/>
      <point x="-17" y="77" type="curve" smooth="yes"/>
      <point x="-17" y="8"/>
      <point x="30" y="-44"/>
    </contour>
    <contour>
      <point x="74" y="137" type="curve"/>
      <point x="102" y="220"/>
      <point x="183" y="318"/>
      <point x="244" y="318" type="curve" smooth="yes"/>
      <point x="256" y="318"/>
      <point x="261" y="314"/>
      <point x="261" y="299" type="curve" smooth="yes"/>
      <point x="261" y="224"/>
      <point x="144" y="145"/>
    </contour>
  </outline>
</glyph>
<glyph name="g" format="2">
  <advance width="403"/>
  <unicode hex="0067"/>
  <outline>
    <contour>
      <point x="50" y="-280" type="curve" smooth="yes"/>
      <point x="131" y="-280"/>
      <point x="197" y="-173"/>
      <point x="252" y="-40" type="curve"/>
      <point x="318" y="-10"/>
      <point x="414" y="59"/>
      <point x="446" y="152" type="curve"/>
      <point x="428" y="170" type="line"/>
      <point x="399" y="88"/>
      <point x="326" y="27"/>
      <point x="265" y="2" type="curve"/>
      <point x="307" y="115"/>
      <point x="340" y="233"/>
      <point x="340" y="268" type="curve"/>
      <point x="328" y="271"/>
      <point x="318" y="272"/>
      <point x="311" y="272" type="curve" smooth="yes"/>
      <point x="278" y="272"/>
      <point x="261" y="247"/>
      <point x="248" y="194" type="curve"/>
      <point x="246" y="186"/>
      <point x="244" y="177"/>
      <point x="242" y="167" type="curve"/>
      <point x="192" y="97"/>
      <point x="134" y="42"/>
      <point x="97" y="42" type="curve" smooth="yes"/>
      <point x="79" y="42"/>
      <point x="66" y="56"/>
      <point x="66" y="83" type="curve" smooth="yes"/>
      <point x="66" y="163"/>
      <point x="159" y="300"/>
      <point x="264" y="300" type="curve" smooth="yes"/>
      <point x="283" y="300"/>
      <point x="295" y="296"/>
      <point x="309" y="282" type="curve"/>
      <point x="312" y="283"/>
      <point x="325" y="293"/>
      <point x="325" y="309" type="curve" smooth="yes"/>
      <point x="325" y="329"/>
      <point x="304" y="347"/>
      <point x="261" y="347" type="curve" smooth="yes"/>
      <point x="144" y="347"/>
      <point x="-16" y="227"/>
      <point x="-16" y="87" type="curve" smooth="yes"/>
      <point x="-16" y="26"/>
      <point x="17" y="-15"/>
      <point x="71" y="-15" type="curve" smooth="yes"/>
      <point x="124" y="-15"/>
      <point x="176" y="28"/>
      <point x="223" y="87" type="curve"/>
      <point x="211" y="39"/>
      <point x="197" y="-2"/>
      <point x="183" y="-38" type="curve"/>
      <point x="95" y="-80"/>
      <point x="-18" y="-132"/>
      <point x="-18" y="-216" type="curve" smooth="yes"/>
      <point x="-18" y="-261"/>
      <point x="17" y="-280"/>
    </contour>
    <contour>
      <point x="46" y="-234" type="curve" smooth="yes"/>
      <point x="35" y="-234"/>
      <point x="27" y="-223"/>
      <point x="27" y="-206" type="curve" smooth="yes"/>
      <point x="27" y="-160"/>
      <point x="91" y="-121"/>
      <point x="164" y="-85" type="curve"/>
      <point x="115" y="-193"/>
      <point x="70" y="-234"/>
    </contour>
  </outline>
</glyph>
<glyph name="h" format="2">
  <advance width="494"/>
  <unicode hex="0068"/>
  <outline>
    <contour>
      <point x="46" y="-38" type="curve" smooth="yes"/>
      <point x="125" y="-38"/>
      <point x="148" y="233"/>
      <point x="250" y="233" type="curve" smooth="yes"/>
      <point x="270" y="233"/>
      <point x="286" y="223"/>
      <point x="286" y="191" type="curve" smooth="yes"/>
      <point x="286" y="149"/>
      <point x="257" y="87"/>
      <point x="257" y="46" type="curve" smooth="yes"/>
      <point x="257" y="6"/>
      <point x="284" y="-24"/>
      <point x="335" y="-24" type="curve" smooth="yes"/>
      <point x="420" y="-24"/>
      <point x="491" y="59"/>
      <point x="537" y="160" type="curve"/>
      <point x="521" y="177" type="line"/>
      <point x="479" y="89"/>
      <point x="404" y="16"/>
      <point x="360" y="16" type="curve" smooth="yes"/>
      <point x="345" y="16"/>
      <point x="333" y="24"/>
      <point x="333" y="48" type="curve" smooth="yes"/>
      <point x="333" y="92"/>
      <point x="375" y="143"/>
      <point x="375" y="207" type="curve" smooth="yes"/>
      <point x="375" y="252"/>
      <point x="355" y="306"/>
      <point x="287" y="306" type="curve" smooth="yes"/>
      <point x="153" y="306"/>
      <point x="98" y="94"/>
      <point x="86" y="75" type="curve"/>
      <point x="86" y="82"/>
      <point x="85" y="89"/>
      <point x="85" y="96" type="curve" smooth="yes"/>
      <point x="85" y="145"/>
      <point x="93" y="197"/>
      <point x="119" y="266" type="curve"/>
      <point x="242" y="338"/>
      <point x="353" y="553"/>
      <point x="353" y="643" type="curve" smooth="yes"/>
      <point x="353" y="676"/>
      <point x="338" y="714"/>
      <point x="310" y="714" type="curve" smooth="yes"/>
      <point x="214" y="714"/>
      <point x="5" y="260"/>
      <point x="5" y="75" type="curve" smooth="yes"/>
      <point x="5" y="15"/>
      <point x="17" y="-38"/>
    </contour>
    <contour>
      <point x="140" y="330" type="curve"/>
      <point x="189" y="475"/>
      <point x="288" y="620"/>
      <point x="305" y="620" type="curve" smooth="yes"/>
      <point x="305" y="619"/>
      <point x="305" y="618"/>
      <point x="305" y="617" type="curve" smooth="yes"/>
      <point x="303" y="570"/>
      <point x="226" y="408"/>
    </contour>
  </outline>
</glyph>
<glyph name="j" format="2">
  <advance width="227"/>
  <unicode hex="006A"/>
  <outline>
    <contour>
      <point x="-134" y="-280" type="curve" smooth="yes"/>
      <point x="-48" y="-280"/>
      <point x="22" y="-160"/>
      <point x="67" y="-39" type="curve"/>
      <point x="129" y="0"/>
      <point x="205" y="25"/>
      <point x="268" y="154" type="curve"/>
      <point x="250" y="166" type="line"/>
      <point x="194" y="71"/>
      <point x="140" y="38"/>
      <point x="83" y="6" type="curve"/>
      <point x="129" y="143"/>
      <point x="155" y="284"/>
      <point x="155" y="313" type="curve" smooth="yes"/>
      <point x="155" y="334"/>
      <point x="142" y="350"/>
      <point x="124" y="350" type="curve" smooth="yes"/>
      <point x="74" y="350"/>
      <point x="54" y="230"/>
      <point x="5" y="140" type="curve"/>
      <point x="22" y="113" type="line"/>
      <point x="33" y="133"/>
      <point x="46" y="151"/>
      <point x="57" y="170" type="curve"/>
      <point x="42" y="90"/>
      <point x="22" y="22"/>
      <point x="0" y="-33" type="curve"/>
      <point x="-24" y="-43"/>
      <point x="-47" y="-54"/>
      <point x="-69" y="-66" type="curve" smooth="yes"/>
      <point x="-144" y="-111"/>
      <point x="-197" y="-169"/>
      <point x="-197" y="-221" type="curve" smooth="yes"/>
      <point x="-197" y="-256"/>
      <point x="-173" y="-280"/>
    </contour>
    <contour>
      <point x="-145" y="-232" type="curve" smooth="yes"/>
      <point x="-152" y="-232"/>
      <point x="-157" y="-228"/>
      <point x="-157" y="-215" type="curve" smooth="yes"/>
      <point x="-157" y="-179"/>
      <point x="-112" y="-130"/>
      <point x="-23" y="-85" type="curve"/>
      <point x="-71" y="-183"/>
      <point x="-121" y="-232"/>
    </contour>
    <contour>
      <point x="139" y="424" type="curve" smooth="yes"/>
      <point x="177" y="424"/>
      <point x="212" y="454"/>
      <point x="212" y="487" type="curve" smooth="yes"/>
      <point x="212" y="511"/>
      <point x="194" y="522"/>
      <point x="171" y="522" type="curve" smooth="yes"/>
      <point x="135" y="522"/>
      <point x="89" y="496"/>
      <point x="89" y="462" type="curve" smooth="yes"/>
      <point x="89" y="437"/>
      <point x="114" y="424"/>
    </contour>
  </outline>
</glyph>
<glyph name="k" format="2">
  <advance width="462"/>
  <unicode hex="006B"/>
  <outline>
    <contour>
      <point x="317" y="-38" type="curve" smooth="yes"/>
      <point x="392" y="-38"/>
      <point x="468" y="60"/>
      <point x="503" y="161" type="curve"/>
      <point x="489" y="178" type="line"/>
      <point x="448" y="86"/>
      <point x="390" y="10"/>
      <point x="340" y="10" type="curve" smooth="yes"/>
      <point x="288" y="10"/>
      <point x="269" y="91"/>
      <point x="261" y="127" type="curve"/>
      <point x="305" y="129"/>
      <point x="405" y="164"/>
      <point x="405" y="245" type="curve" smooth="yes"/>
      <point x="405" y="301"/>
      <point x="358" y="343"/>
      <point x="305" y="343" type="curve" smooth="yes"/>
      <point x="207" y="343"/>
      <point x="130" y="203"/>
      <point x="83" y="95" type="curve"/>
      <point x="88" y="160"/>
      <point x="108" y="249"/>
      <point x="145" y="336" type="curve"/>
      <point x="268" y="408"/>
      <point x="352" y="551"/>
      <point x="352" y="641" type="curve" smooth="yes"/>
      <point x="352" y="683"/>
      <point x="334" y="714"/>
      <point x="312" y="714" type="curve" smooth="yes"/>
      <point x="232" y="714"/>
      <point x="2" y="289"/>
      <point x="2" y="44" type="curve" smooth="yes"/>
      <point x="2" y="-27"/>
      <point x="26" y="-31"/>
      <point x="41" y="-31" type="curve" smooth="yes"/>
      <point x="66" y="-31"/>
      <point x="76" y="-20"/>
      <point x="91" y="20" type="curve" smooth="yes"/>
      <point x="121" y="100"/>
      <point x="189" y="277"/>
      <point x="283" y="277" type="curve" smooth="yes"/>
      <point x="311" y="277"/>
      <point x="327" y="261"/>
      <point x="327" y="237" type="curve" smooth="yes"/>
      <point x="327" y="179"/>
      <point x="234" y="156"/>
      <point x="198" y="148" type="curve"/>
      <point x="198" y="86"/>
      <point x="233" y="-38"/>
    </contour>
    <contour>
      <point x="174" y="404" type="curve"/>
      <point x="225" y="517"/>
      <point x="284" y="611"/>
      <point x="305" y="620" type="curve" smooth="yes"/>
      <point x="305" y="619"/>
      <point x="305" y="618"/>
      <point x="305" y="617" type="curve" smooth="yes"/>
      <point x="303" y="543"/>
      <point x="227" y="451"/>
    </contour>
  </outline>
</glyph>
<glyph name="n" format="2">
  <advance width="473"/>
  <unicode hex="006E"/>
  <outline>
    <contour>
      <point x="337" y="-20" type="curve" smooth="yes"/>
      <point x="417" y="-20"/>
      <point x="473" y="61"/>
      <point x="516" y="159" type="curve"/>
      <point x="499" y="173" type="line"/>
      <point x="463" y="101"/>
      <point x="406" y="20"/>
      <point x="358" y="20" type="curve" smooth="yes"/>
      <point x="346" y="20"/>
      <point x="334" y="28"/>
      <point x="334" y="49" type="curve" smooth="yes"/>
      <point x="334" y="93"/>
      <point x="373" y="138"/>
      <point x="373" y="199" type="curve" smooth="yes"/>
      <point x="373" y="246"/>
      <point x="346" y="292"/>
      <point x="289" y="292" type="curve" smooth="yes"/>
      <point x="221" y="292"/>
      <point x="152" y="225"/>
      <point x="100" y="156" type="curve"/>
      <point x="111" y="196"/>
      <point x="117" y="229"/>
      <point x="117" y="245" type="curve" smooth="yes"/>
      <point x="117" y="264"/>
      <point x="104" y="275"/>
      <point x="82" y="275" type="curve" smooth="yes"/>
      <point x="61" y="275"/>
      <point x="39" y="261"/>
      <point x="30" y="251" type="curve"/>
      <point x="30" y="165"/>
      <point x="-35" y="28"/>
      <point x="-38" y="14" type="curve"/>
      <point x="-22" y="-7"/>
      <point x="2" y="-15"/>
      <point x="27" y="-15" type="curve"/>
      <point x="78" y="69"/>
      <point x="169" y="220"/>
      <point x="250" y="220" type="curve" smooth="yes"/>
      <point x="268" y="220"/>
      <point x="285" y="210"/>
      <point x="285" y="181" type="curve" smooth="yes"/>
      <point x="285" y="138"/>
      <point x="257" y="89"/>
      <point x="257" y="49" type="curve" smooth="yes"/>
      <point x="257" y="9"/>
      <point x="285" y="-20"/>
    </contour>
  </outline>
</glyph>
<glyph name="o" format="2">
  <advance width="372"/>
  <unicode hex="006F"/>
  <anchor x="160" y="1" name="ogonek"/>
  <anchor x="246" y="352" name="topright"/>
  <outline>
    <contour>
      <point x="66" y="-32" type="curve" smooth="yes"/>
      <point x="126" y="-32"/>
      <point x="188" y="14"/>
      <point x="233" y="68" type="curve"/>
      <point x="248" y="63"/>
      <point x="266" y="59"/>
      <point x="283" y="59" type="curve" smooth="yes"/>
      <point x="330" y="59"/>
      <point x="383" y="89"/>
      <point x="413" y="157" type="curve"/>
      <point x="395" y="170" type="line"/>
      <point x="370" y="114"/>
      <point x="316" y="95"/>
      <point x="286" y="95" type="curve" smooth="yes"/>
      <point x="275" y="95"/>
      <point x="266" y="97"/>
      <point x="258" y="101" type="curve"/>
      <point x="294" y="156"/>
      <point x="324" y="221"/>
      <point x="324" y="271" type="curve" smooth="yes"/>
      <point x="324" y="315"/>
      <point x="303" y="352"/>
      <point x="246" y="352" type="curve" smooth="yes"/>
      <point x="166" y="352"/>
      <point x="138" y="279"/>
      <point x="138" y="237" type="curve" smooth="yes"/>
      <point x="138" y="171"/>
      <point x="155" y="128"/>
      <point x="198" y="90" type="curve"/>
      <point x="166" y="52"/>
      <point x="127" y="19"/>
      <point x="102" y="19" type="curve" smooth="yes"/>
      <point x="77" y="19"/>
      <point x="68" y="38"/>
      <point x="68" y="65" type="curve" smooth="yes"/>
      <point x="68" y="121"/>
      <point x="105" y="204"/>
      <point x="138" y="244" type="curve"/>
      <point x="132" y="250"/>
      <point x="117" y="254"/>
      <point x="108" y="254" type="curve" smooth="yes"/>
      <point x="48" y="254"/>
      <point x="-12" y="147"/>
      <point x="-12" y="62" type="curve" smooth="yes"/>
      <point x="-12" y="15"/>
      <point x="6" y="-32"/>
    </contour>
    <contour>
      <point x="224" y="122" type="curve"/>
      <point x="205" y="145"/>
      <point x="195" y="192"/>
      <point x="195" y="220" type="curve" smooth="yes"/>
      <point x="195" y="274"/>
      <point x="228" y="315"/>
      <point x="254" y="315" type="curve" smooth="yes"/>
      <point x="272" y="315"/>
      <point x="282" y="301"/>
      <point x="282" y="271" type="curve" smooth="yes"/>
      <point x="282" y="226"/>
      <point x="256" y="168"/>
    </contour>
  </outline>
</glyph>
<glyph name="p" format="2">
  <advance width="413"/>
  <unicode hex="0070"/>
  <outline>
    <contour>
      <point x="-56" y="-280" type="curve" smooth="yes"/>
      <point x="-50" y="-280"/>
      <point x="-45" y="-278"/>
      <point x="-39" y="-273" type="curve" smooth="yes"/>
      <point x="7" y="-236"/>
      <point x="34" y="-49"/>
      <point x="85" y="128" type="curve"/>
      <point x="109" y="182"/>
      <point x="180" y="282"/>
      <point x="248" y="282" type="curve" smooth="yes"/>
      <point x="287" y="282"/>
      <point x="304" y="248"/>
      <point x="304" y="208" type="curve" smooth="yes"/>
      <point x="304" y="118"/>
      <point x="220" y="7"/>
      <point x="94" y="4" type="curve" smooth="yes"/>
      <point x="82" y="4"/>
      <point x="70" y="3"/>
      <point x="70" y="-6" type="curve" smooth="yes"/>
      <point x="70" y="-19"/>
      <point x="97" y="-32"/>
      <point x="140" y="-32" type="curve" smooth="yes"/>
      <point x="285" y="-32"/>
      <point x="383" y="117"/>
      <point x="383" y="220" type="curve" smooth="yes"/>
      <point x="383" y="292"/>
      <point x="335" y="340"/>
      <point x="270" y="340" type="curve" smooth="yes"/>
      <point x="200" y="340"/>
      <point x="144" y="283"/>
      <point x="107" y="226" type="curve"/>
      <point x="116" y="271"/>
      <point x="121" y="306"/>
      <point x="121" y="320" type="curve" smooth="yes"/>
      <point x="121" y="347"/>
      <point x="103" y="373"/>
      <point x="62" y="373" type="curve" smooth="yes"/>
      <point x="41" y="373"/>
      <point x="40" y="366"/>
      <point x="38" y="350" type="curve"/>
      <point x="-2" y="37"/>
      <point x="-12" y="-13"/>
      <point x="-96" y="-255" type="curve" smooth="yes"/>
      <point x="-95" y="-264"/>
      <point x="-72" y="-280"/>
    </contour>
  </outline>
</glyph>
<glyph name="q" format="2">
  <advance width="417"/>
  <unicode hex="0071"/>
  <anchor x="330" y="333" name="center"/>
  <outline>
    <contour>
      <point x="216" y="-280" type="curve" smooth="yes"/>
      <point x="264" y="-280"/>
      <point x="296" y="-205"/>
      <point x="296" y="-106" type="curve" smooth="yes"/>
      <point x="296" y="-70"/>
      <point x="290" y="-33"/>
      <point x="279" y="-1" type="curve"/>
      <point x="344" y="10"/>
      <point x="411" y="54"/>
      <point x="460" y="153" type="curve"/>
      <point x="442" y="169" type="line"/>
      <point x="393" y="77"/>
      <point x="333" y="36"/>
      <point x="279" y="29" type="curve"/>
      <point x="307" y="147"/>
      <point x="366" y="195"/>
      <point x="366" y="237" type="curve" smooth="yes"/>
      <point x="366" y="244"/>
      <point x="364" y="250"/>
      <point x="358" y="256" type="curve" smooth="yes"/>
      <point x="351" y="263"/>
      <point x="322" y="270"/>
      <point x="315" y="264" type="curve" smooth="yes"/>
      <point x="305" y="255"/>
      <point x="299" y="247"/>
      <point x="287" y="230" type="curve" smooth="yes"/>
      <point x="224" y="140"/>
      <point x="153" y="25"/>
      <point x="102" y="25" type="curve" smooth="yes"/>
      <point x="80" y="25"/>
      <point x="69" y="45"/>
      <point x="69" y="69" type="curve" smooth="yes"/>
      <point x="69" y="141"/>
      <point x="157" y="315"/>
      <point x="271" y="315" type="curve" smooth="yes"/>
      <point x="304" y="315"/>
      <point x="326" y="296"/>
      <point x="326" y="268" type="curve"/>
      <point x="337" y="264"/>
      <point x="345" y="264"/>
      <point x="351" y="267" type="curve" smooth="yes"/>
      <point x="363" y="273"/>
      <point x="367" y="290"/>
      <point x="367" y="301" type="curve" smooth="yes"/>
      <point x="367" y="334"/>
      <point x="327" y="357"/>
      <point x="277" y="357" type="curve" smooth="yes"/>
      <point x="134" y="357"/>
      <point x="-14" y="174"/>
      <point x="-14" y="56" type="curve" smooth="yes"/>
      <point x="-14" y="-10"/>
      <point x="35" y="-36"/>
      <point x="69" y="-36" type="curve" smooth="yes"/>
      <point x="116" y="-36"/>
      <point x="165" y="11"/>
      <point x="218" y="77" type="curve"/>
      <point x="191" y="-18"/>
      <point x="173" y="-139"/>
      <point x="173" y="-201" type="curve" smooth="yes"/>
      <point x="173" y="-263"/>
      <point x="194" y="-280"/>
    </contour>
    <contour>
      <point x="237" y="-215" type="curve" smooth="yes"/>
      <point x="234" y="-215"/>
      <point x="233" y="-211"/>
      <point x="233" y="-194" type="curve" smooth="yes"/>
      <point x="233" y="-151"/>
      <point x="239" y="-106"/>
      <point x="250" y="-53" type="curve"/>
      <point x="252" y="-66"/>
      <point x="253" y="-77"/>
      <point x="253" y="-100" type="curve" smooth="yes"/>
      <point x="253" y="-153"/>
      <point x="248" y="-215"/>
    </contour>
  </outline>
</glyph>
<glyph name="s" format="2">
  <advance width="351"/>
  <unicode hex="0073"/>
  <outline>
    <contour>
      <point x="117" y="-51" type="curve" smooth="yes"/>
      <point x="178" y="-51"/>
      <point x="230" y="-25"/>
      <point x="252" y="30" type="curve"/>
      <point x="316" y="40"/>
      <point x="365" y="88"/>
      <point x="391" y="164" type="curve"/>
      <point x="379" y="173" type="line"/>
      <point x="343" y="104"/>
      <point x="302" y="70"/>
      <point x="261" y="60" type="curve"/>
      <point x="263" y="72"/>
      <point x="265" y="85"/>
      <point x="265" y="101" type="curve" smooth="yes"/>
      <point x="265" y="190"/>
      <point x="207" y="278"/>
      <point x="207" y="339" type="curve" smooth="yes"/>
      <point x="207" y="357"/>
      <point x="212" y="367"/>
      <point x="212" y="375" type="curve" smooth="yes"/>
      <point x="211" y="386"/>
      <point x="204" y="395"/>
      <point x="188" y="395" type="curve" smooth="yes"/>
      <point x="164" y="395"/>
      <point x="143" y="375"/>
      <point x="143" y="322" type="curve" smooth="yes"/>
      <point x="143" y="312" type="line"/>
      <point x="117" y="256"/>
      <point x="79" y="209"/>
      <point x="46" y="175" type="curve" smooth="yes"/>
      <point x="33" y="161"/>
      <point x="-20" y="164"/>
      <point x="-20" y="86" type="curve" smooth="yes"/>
      <point x="-20" y="21"/>
      <point x="16" y="-51"/>
    </contour>
    <contour>
      <point x="110" y="-7" type="curve" smooth="yes"/>
      <point x="61" y="-7"/>
      <point x="35" y="40"/>
      <point x="35" y="84" type="curve" smooth="yes"/>
      <point x="35" y="101"/>
      <point x="39" y="109"/>
      <point x="49" y="111" type="curve"/>
      <point x="73" y="79"/>
      <point x="119" y="44"/>
      <point x="174" y="32" type="curve"/>
      <point x="161" y="6"/>
      <point x="136" y="-7"/>
    </contour>
    <contour>
      <point x="182" y="62" type="curve"/>
      <point x="128" y="75"/>
      <point x="85" y="111"/>
      <point x="64" y="147" type="curve"/>
      <point x="92" y="176"/>
      <point x="127" y="230"/>
      <point x="151" y="272" type="curve"/>
      <point x="166" y="210"/>
      <point x="184" y="153"/>
      <point x="185" y="93" type="curve" smooth="yes"/>
      <point x="185" y="86"/>
      <point x="185" y="71"/>
    </contour>
  </outline>
</glyph>
<glyph name="v" format="2">
  <advance width="410"/>
  <unicode hex="0076"/>
  <outline>
    <contour>
      <point x="74" y="-39" type="curve" smooth="yes"/>
      <point x="138" y="-39"/>
      <point x="208" y="63"/>
      <point x="257" y="153" type="curve"/>
      <point x="271" y="99"/>
      <point x="298" y="60"/>
      <point x="342" y="60" type="curve" smooth="yes"/>
      <point x="377" y="60"/>
      <point x="417" y="86"/>
      <point x="448" y="159" type="curve"/>
      <point x="437" y="168" type="line"/>
      <point x="409" y="113"/>
      <point x="385" y="94"/>
      <point x="359" y="94" type="curve" smooth="yes"/>
      <point x="320" y="94"/>
      <point x="316" y="136"/>
      <point x="316" y="164" type="curve" smooth="yes"/>
      <point x="316" y="249"/>
      <point x="348" y="257"/>
      <point x="348" y="288" type="curve" smooth="yes"/>
      <point x="348" y="304"/>
      <point x="338" y="332"/>
      <point x="305" y="332" type="curve" smooth="yes"/>
      <point x="276" y="332"/>
      <point x="256" y="308"/>
      <point x="253" y="218" type="curve"/>
      <point x="214" y="131"/>
      <point x="143" y="14"/>
      <point x="96" y="14" type="curve" smooth="yes"/>
      <point x="80" y="14"/>
      <point x="78" y="32"/>
      <point x="78" y="74" type="curve" smooth="yes"/>
      <point x="78" y="117"/>
      <point x="83" y="164"/>
      <point x="83" y="204" type="curve" smooth="yes"/>
      <point x="83" y="242"/>
      <point x="82" y="252"/>
      <point x="50" y="252" type="curve" smooth="yes"/>
      <point x="15" y="252"/>
      <point x="13" y="240"/>
      <point x="12" y="200" type="curve" smooth="yes"/>
      <point x="9" y="132"/>
      <point x="8" y="95"/>
      <point x="8" y="81" type="curve" smooth="yes"/>
      <point x="8" y="10"/>
      <point x="24" y="-39"/>
    </contour>
  </outline>
</glyph>
<glyph name="w" format="2">
  <advance width="631"/>
  <unicode hex="0077"/>
  <outline>
    <contour>
      <point x="291" y="-38" type="curve" smooth="yes"/>
      <point x="356" y="-38"/>
      <point x="426" y="58"/>
      <point x="476" y="145" type="curve"/>
      <point x="493" y="98"/>
      <point x="524" y="62"/>
      <point x="568" y="62" type="curve" smooth="yes"/>
      <point x="603" y="62"/>
      <point x="643" y="84"/>
      <point x="672" y="153" type="curve"/>
      <point x="653" y="168" type="line"/>
      <point x="623" y="109"/>
      <point x="600" y="92"/>
      <point x="576" y="92" type="curve" smooth="yes"/>
      <point x="539" y="92"/>
      <point x="532" y="131"/>
      <point x="532" y="166" type="curve" smooth="yes"/>
      <point x="532" y="209"/>
      <point x="542" y="235"/>
      <point x="552" y="255" type="curve" smooth="yes"/>
      <point x="556" y="264"/>
      <point x="565" y="276"/>
      <point x="565" y="289" type="curve" smooth="yes"/>
      <point x="565" y="303"/>
      <point x="554" y="332"/>
      <point x="521" y="332" type="curve" smooth="yes"/>
      <point x="491" y="332"/>
      <point x="466" y="308"/>
      <point x="466" y="205" type="curve"/>
      <point x="423" y="115"/>
      <point x="356" y="14"/>
      <point x="319" y="14" type="curve" smooth="yes"/>
      <point x="303" y="14"/>
      <point x="301" y="33"/>
      <point x="301" y="65" type="curve" smooth="yes"/>
      <point x="301" y="133"/>
      <point x="310" y="204"/>
      <point x="323" y="246" type="curve"/>
      <point x="324" y="249"/>
      <point x="328" y="262"/>
      <point x="328" y="264" type="curve" smooth="yes"/>
      <point x="328" y="283"/>
      <point x="313" y="293"/>
      <point x="288" y="293" type="curve" smooth="yes"/>
      <point x="269" y="293"/>
      <point x="262" y="287"/>
      <point x="245" y="202" type="curve"/>
      <point x="201" y="116"/>
      <point x="145" y="23"/>
      <point x="102" y="23" type="curve" smooth="yes"/>
      <point x="73" y="23"/>
      <point x="71" y="69"/>
      <point x="71" y="82" type="curve" smooth="yes"/>
      <point x="71" y="143"/>
      <point x="113" y="237"/>
      <point x="136" y="270" type="curve"/>
      <point x="130" y="287"/>
      <point x="99" y="299"/>
      <point x="90" y="299" type="curve" smooth="yes"/>
      <point x="57" y="299"/>
      <point x="-1" y="150"/>
      <point x="-1" y="74" type="curve" smooth="yes"/>
      <point x="-1" y="17"/>
      <point x="32" y="-30"/>
      <point x="77" y="-30" type="curve" smooth="yes"/>
      <point x="138" y="-30"/>
      <point x="193" y="54"/>
      <point x="235" y="130" type="curve"/>
      <point x="233" y="111"/>
      <point x="233" y="78"/>
      <point x="232" y="62" type="curve" smooth="yes"/>
      <point x="234" y="7"/>
      <point x="246" y="-38"/>
    </contour>
  </outline>
</glyph>
<glyph name="z" format="2">
  <advance width="331"/>
  <unicode hex="007A"/>
  <outline>
    <contour>
      <point x="8" y="-280" type="curve" smooth="yes"/>
      <point x="140" y="-280"/>
      <point x="258" y="-150"/>
      <point x="258" y="-33" type="curve" smooth="yes"/>
      <point x="258" y="-18"/>
      <point x="256" y="-9"/>
      <point x="254" y="0" type="curve"/>
      <point x="307" y="39"/>
      <point x="348" y="91"/>
      <point x="368" y="150" type="curve"/>
      <point x="355" y="166" type="line"/>
      <point x="332" y="107"/>
      <point x="292" y="63"/>
      <point x="244" y="26" type="curve"/>
      <point x="231" y="54"/>
      <point x="208" y="85"/>
      <point x="179" y="108" type="curve"/>
      <point x="241" y="140"/>
      <point x="292" y="200"/>
      <point x="292" y="263" type="curve" smooth="yes"/>
      <point x="292" y="322"/>
      <point x="247" y="353"/>
      <point x="193" y="353" type="curve" smooth="yes"/>
      <point x="99" y="353"/>
      <point x="51" y="257"/>
      <point x="8" y="139" type="curve"/>
      <point x="27" y="123" type="line"/>
      <point x="71" y="216"/>
      <point x="118" y="304"/>
      <point x="178" y="304" type="curve" smooth="yes"/>
      <point x="209" y="304"/>
      <point x="219" y="281"/>
      <point x="219" y="257" type="curve" smooth="yes"/>
      <point x="219" y="206"/>
      <point x="175" y="138"/>
      <point x="98" y="117" type="curve"/>
      <point x="159" y="73"/>
      <point x="180" y="36"/>
      <point x="182" y="-6" type="curve"/>
      <point x="61" y="-85"/>
      <point x="-68" y="-132"/>
      <point x="-68" y="-222" type="curve" smooth="yes"/>
      <point x="-68" y="-264"/>
      <point x="-39" y="-280"/>
    </contour>
    <contour>
      <point x="-6" y="-242" type="curve" smooth="yes"/>
      <point x="-21" y="-242"/>
      <point x="-33" y="-234"/>
      <point x="-33" y="-215" type="curve" smooth="yes"/>
      <point x="-33" y="-157"/>
      <point x="80" y="-109"/>
      <point x="180" y="-46" type="curve"/>
      <point x="162" y="-168"/>
      <point x="42" y="-242"/>
    </contour>
  </outline>
</glyph>
<glyph name="braceleft" format="2">
  <advance width="304"/>
  <unicode hex="007B"/>
  <outline>
    <contour>
      <point x="140" y="-87" type="curve" smooth="yes"/>
      <point x="164" y="-87"/>
      <point x="191" y="-81"/>
      <point x="194" y="-39" type="curve"/>
      <point x="185" y="-45"/>
      <point x="173" y="-49"/>
      <point x="162" y="-49" type="curve" smooth="yes"/>
      <point x="146" y="-49"/>
      <point x="132" y="-41"/>
      <point x="132" y="-23" type="curve" smooth="yes"/>
      <point x="132" y="53"/>
      <point x="205" y="140"/>
      <point x="205" y="253" type="curve" smooth="yes"/>
      <point x="205" y="286"/>
      <point x="199" y="304"/>
      <point x="184" y="321" type="curve"/>
      <point x="231" y="339"/>
      <point x="240" y="420"/>
      <point x="250" y="511" type="curve" smooth="yes"/>
      <point x="259" y="591"/>
      <point x="268" y="667"/>
      <point x="306" y="667" type="curve" smooth="yes"/>
      <point x="313" y="667"/>
      <point x="321" y="665"/>
      <point x="345" y="652" type="curve"/>
      <point x="363" y="707"/>
      <point x="314" y="720"/>
      <point x="291" y="720" type="curve" smooth="yes"/>
      <point x="198" y="720"/>
      <point x="193" y="620"/>
      <point x="185" y="522" type="curve" smooth="yes"/>
      <point x="177" y="432"/>
      <point x="167" y="345"/>
      <point x="83" y="337" type="curve"/>
      <point x="125" y="305"/>
      <point x="135" y="268"/>
      <point x="135" y="237" type="curve" smooth="yes"/>
      <point x="135" y="152"/>
      <point x="62" y="57"/>
      <point x="62" y="-15" type="curve" smooth="yes"/>
      <point x="62" y="-52"/>
      <point x="81" y="-87"/>
    </contour>
  </outline>
</glyph>
<glyph name="bar" format="2">
  <advance width="294"/>
  <unicode hex="007C"/>
  <outline>
    <contour>
      <point x="78" y="-132" type="curve"/>
      <point x="149" y="-132"/>
      <point x="183" y="-59"/>
      <point x="193" y="55" type="curve" smooth="yes"/>
      <point x="204" y="171"/>
      <point x="215" y="479"/>
      <point x="216" y="610" type="curve" smooth="yes"/>
      <point x="216" y="636"/>
      <point x="213" y="683"/>
      <point x="176" y="698" type="curve"/>
      <point x="145" y="596"/>
      <point x="140" y="33"/>
    </contour>
  </outline>
</glyph>
<glyph name="braceright" format="2">
  <advance width="301"/>
  <unicode hex="007D"/>
  <outline>
    <contour>
      <point x="70" y="-87" type="curve" smooth="yes"/>
      <point x="168" y="-87"/>
      <point x="166" y="26"/>
      <point x="175" y="136" type="curve" smooth="yes"/>
      <point x="182" y="227"/>
      <point x="196" y="316"/>
      <point x="279" y="336" type="curve"/>
      <point x="237" y="361"/>
      <point x="229" y="400"/>
      <point x="229" y="433" type="curve" smooth="yes"/>
      <point x="229" y="530"/>
      <point x="301" y="627"/>
      <point x="301" y="682" type="curve" smooth="yes"/>
      <point x="301" y="715"/>
      <point x="276" y="729"/>
      <point x="239" y="729" type="curve" smooth="yes"/>
      <point x="187" y="729"/>
      <point x="167" y="695"/>
      <point x="173" y="669" type="curve"/>
      <point x="183" y="676"/>
      <point x="194" y="680"/>
      <point x="204" y="680" type="curve" smooth="yes"/>
      <point x="214" y="680"/>
      <point x="226" y="676"/>
      <point x="226" y="659" type="curve" smooth="yes"/>
      <point x="226" y="618"/>
      <point x="157" y="501"/>
      <point x="157" y="417" type="curve" smooth="yes"/>
      <point x="157" y="393"/>
      <point x="163" y="369"/>
      <point x="180" y="349" type="curve"/>
      <point x="128" y="314"/>
      <point x="117" y="222"/>
      <point x="107" y="134" type="curve" smooth="yes"/>
      <point x="98" y="52"/>
      <point x="86" y="-32"/>
      <point x="49" y="-32" type="curve" smooth="yes"/>
      <point x="39" y="-32"/>
      <point x="24" y="-26"/>
      <point x="6" y="-14" type="curve"/>
      <point x="2" y="-70"/>
      <point x="44" y="-87"/>
    </contour>
  </outline>
</glyph>
<glyph name="exclamdown" format="2">
  <advance width="297"/>
  <unicode hex="00A1"/>
  <outline>
    <contour>
      <point x="-32" y="-249" type="curve" smooth="yes"/>
      <point x="30" y="-249"/>
      <point x="120" y="-17"/>
      <point x="194" y="174" type="curve" smooth="yes"/>
      <point x="216" y="231"/>
      <point x="247" y="312"/>
      <point x="248" y="363" type="curve"/>
      <point x="244" y="364"/>
      <point x="240" y="366"/>
      <point x="236" y="367" type="curve"/>
      <point x="161" y="261"/>
      <point x="-60" y="-163"/>
      <point x="-60" y="-219" type="curve" smooth="yes"/>
      <point x="-60" y="-236"/>
      <point x="-46" y="-249"/>
    </contour>
    <contour>
      <point x="244" y="400" type="curve"/>
      <point x="276" y="400"/>
      <point x="309" y="422"/>
      <point x="309" y="447" type="curve" smooth="yes"/>
      <point x="309" y="471"/>
      <point x="290" y="481"/>
      <point x="269" y="481" type="curve" smooth="yes"/>
      <point x="239" y="481"/>
      <point x="210" y="454"/>
      <point x="210" y="431" type="curve" smooth="yes"/>
      <point x="210" y="408"/>
      <point x="224" y="400"/>
    </contour>
  </outline>
</glyph>
<glyph name="cent" format="2">
  <advance width="426"/>
  <unicode hex="00A2"/>
  <outline>
    <contour>
      <point x="75" y="-162" type="curve"/>
      <point x="174" y="-162"/>
      <point x="205" y="-56"/>
      <point x="243" y="117" type="curve"/>
      <point x="295" y="129"/>
      <point x="346" y="159"/>
      <point x="391" y="200" type="curve"/>
      <point x="369" y="224" type="line"/>
      <point x="333" y="193"/>
      <point x="292" y="174"/>
      <point x="252" y="166" type="curve"/>
      <point x="271" y="259"/>
      <point x="290" y="366"/>
      <point x="309" y="470" type="curve"/>
      <point x="331" y="470"/>
      <point x="345" y="454"/>
      <point x="345" y="435" type="curve" smooth="yes"/>
      <point x="345" y="411"/>
      <point x="334" y="383"/>
      <point x="322" y="377" type="curve"/>
      <point x="333" y="363"/>
      <point x="344" y="358"/>
      <point x="355" y="358" type="curve" smooth="yes"/>
      <point x="386" y="358"/>
      <point x="400" y="395"/>
      <point x="400" y="429" type="curve" smooth="yes"/>
      <point x="400" y="482"/>
      <point x="369" y="512"/>
      <point x="317" y="512" type="curve"/>
      <point x="355" y="722" type="line"/>
      <point x="303" y="711"/>
      <point x="297" y="689"/>
      <point x="294" y="670" type="curve" smooth="yes"/>
      <point x="288" y="629"/>
      <point x="278" y="567"/>
      <point x="266" y="505" type="curve"/>
      <point x="164" y="476"/>
      <point x="60" y="361"/>
      <point x="60" y="241" type="curve" smooth="yes"/>
      <point x="60" y="158"/>
      <point x="110" y="113"/>
      <point x="177" y="110" type="curve"/>
      <point x="144" y="-18"/>
      <point x="107" y="-128"/>
    </contour>
    <contour>
      <point x="190" y="162" type="curve"/>
      <point x="151" y="170"/>
      <point x="138" y="203"/>
      <point x="138" y="236" type="curve" smooth="yes"/>
      <point x="138" y="308"/>
      <point x="187" y="404"/>
      <point x="255" y="449" type="curve"/>
      <point x="235" y="354"/>
      <point x="215" y="261"/>
    </contour>
  </outline>
</glyph>
<glyph name="currency" format="2">
  <advance width="735"/>
  <unicode hex="00A4"/>
  <outline>
    <contour>
      <point x="647" y="20" type="curve"/>
      <point x="653" y="40"/>
      <point x="653" y="46"/>
      <point x="653" y="53" type="curve" smooth="yes"/>
      <point x="652" y="102"/>
      <point x="601" y="161"/>
      <point x="533" y="220" type="curve"/>
      <point x="563" y="276"/>
      <point x="584" y="335"/>
      <point x="584" y="390" type="curve" smooth="yes"/>
      <point x="584" y="398"/>
      <point x="583" y="407"/>
      <point x="582" y="416" type="curve"/>
      <point x="671" y="516"/>
      <point x="725" y="573"/>
      <point x="744" y="602" type="curve"/>
      <point x="732" y="604"/>
      <point x="720" y="606"/>
      <point x="713" y="606" type="curve" smooth="yes"/>
      <point x="629" y="606"/>
      <point x="608" y="550"/>
      <point x="561" y="490" type="curve"/>
      <point x="538" y="529"/>
      <point x="498" y="552"/>
      <point x="449" y="552" type="curve" smooth="yes"/>
      <point x="397" y="552"/>
      <point x="352" y="522"/>
      <point x="317" y="480" type="curve"/>
      <point x="237" y="562"/>
      <point x="168" y="629"/>
      <point x="149" y="646" type="curve"/>
      <point x="142" y="630"/>
      <point x="139" y="614"/>
      <point x="139" y="602" type="curve" smooth="yes"/>
      <point x="140" y="576"/>
      <point x="149" y="547"/>
      <point x="161" y="537" type="curve" smooth="yes"/>
      <point x="193" y="510"/>
      <point x="237" y="471"/>
      <point x="283" y="425" type="curve"/>
      <point x="253" y="369"/>
      <point x="240" y="307"/>
      <point x="240" y="253" type="curve" smooth="yes"/>
      <point x="240" y="230"/>
      <point x="244" y="209"/>
      <point x="250" y="189" type="curve"/>
      <point x="191" y="109"/>
      <point x="150" y="102"/>
      <point x="90" y="47" type="curve"/>
      <point x="151" y="47"/>
      <point x="219" y="70"/>
      <point x="282" y="135" type="curve"/>
      <point x="302" y="112"/>
      <point x="332" y="98"/>
      <point x="369" y="98" type="curve" smooth="yes"/>
      <point x="418" y="98"/>
      <point x="462" y="126"/>
      <point x="497" y="167" type="curve"/>
      <point x="562" y="105"/>
      <point x="615" y="69"/>
    </contour>
    <contour>
      <point x="376" y="165" type="curve" smooth="yes"/>
      <point x="348" y="165"/>
      <point x="312" y="197"/>
      <point x="312" y="245" type="curve" smooth="yes"/>
      <point x="312" y="328"/>
      <point x="372" y="489"/>
      <point x="453" y="489" type="curve" smooth="yes"/>
      <point x="484" y="489"/>
      <point x="515" y="456"/>
      <point x="515" y="410" type="curve" smooth="yes"/>
      <point x="515" y="310"/>
      <point x="443" y="165"/>
    </contour>
  </outline>
</glyph>
<glyph name="brokenbar" format="2">
  <advance width="295"/>
  <unicode hex="00A6"/>
  <outline>
    <contour>
      <point x="79" y="-132" type="curve"/>
      <point x="180" y="-132"/>
      <point x="204" y="-9"/>
      <point x="204" y="195" type="curve"/>
      <point x="204" y="207"/>
      <point x="200" y="225"/>
      <point x="185" y="225" type="curve" smooth="yes"/>
      <point x="163" y="225"/>
      <point x="143" y="213"/>
      <point x="131" y="199" type="curve"/>
      <point x="119" y="63"/>
      <point x="105" y="-64"/>
    </contour>
    <contour>
      <point x="137" y="282" type="curve"/>
      <point x="177" y="310" type="line" smooth="yes"/>
      <point x="206" y="330"/>
      <point x="211" y="366"/>
      <point x="211" y="380" type="curve" smooth="yes"/>
      <point x="211" y="477"/>
      <point x="217" y="576"/>
      <point x="217" y="627" type="curve" smooth="yes"/>
      <point x="217" y="644"/>
      <point x="214" y="684"/>
      <point x="177" y="699" type="curve"/>
      <point x="160" y="638"/>
      <point x="151" y="466"/>
    </contour>
  </outline>
</glyph>
<glyph name="section" format="2">
  <advance width="443"/>
  <unicode hex="00A7"/>
  <outline>
    <contour>
      <point x="168" y="-87" type="curve" smooth="yes"/>
      <point x="256" y="-87"/>
      <point x="353" y="-33"/>
      <point x="353" y="55" type="curve" smooth="yes"/>
      <point x="353" y="124"/>
      <point x="292" y="161"/>
      <point x="244" y="187" type="curve"/>
      <point x="248" y="186"/>
      <point x="254" y="186"/>
      <point x="261" y="186" type="curve" smooth="yes"/>
      <point x="346" y="186"/>
      <point x="408" y="230"/>
      <point x="408" y="320" type="curve" smooth="yes"/>
      <point x="408" y="480"/>
      <point x="216" y="470"/>
      <point x="216" y="560" type="curve" smooth="yes"/>
      <point x="216" y="610"/>
      <point x="275" y="690"/>
      <point x="355" y="690" type="curve" smooth="yes"/>
      <point x="379" y="690"/>
      <point x="385" y="683"/>
      <point x="385" y="670" type="curve" smooth="yes"/>
      <point x="385" y="637"/>
      <point x="349" y="576"/>
      <point x="349" y="539" type="curve" smooth="yes"/>
      <point x="349" y="523"/>
      <point x="356" y="508"/>
      <point x="381" y="504" type="curve"/>
      <point x="404" y="539"/>
      <point x="432" y="600"/>
      <point x="432" y="649" type="curve" smooth="yes"/>
      <point x="432" y="691"/>
      <point x="412" y="719"/>
      <point x="352" y="719" type="curve" smooth="yes"/>
      <point x="237" y="719"/>
      <point x="162" y="617"/>
      <point x="162" y="545" type="curve" smooth="yes"/>
      <point x="162" y="491"/>
      <point x="205" y="461"/>
      <point x="250" y="435" type="curve"/>
      <point x="138" y="433"/>
      <point x="83" y="362"/>
      <point x="83" y="291" type="curve" smooth="yes"/>
      <point x="83" y="153"/>
      <point x="295" y="137"/>
      <point x="295" y="35" type="curve" smooth="yes"/>
      <point x="295" y="-18"/>
      <point x="238" y="-48"/>
      <point x="181" y="-48" type="curve" smooth="yes"/>
      <point x="115" y="-48"/>
      <point x="81" y="-9"/>
      <point x="81" y="32" type="curve" smooth="yes"/>
      <point x="81" y="60"/>
      <point x="97" y="94"/>
      <point x="127" y="124" type="curve"/>
      <point x="79" y="124"/>
      <point x="20" y="104"/>
      <point x="20" y="33" type="curve" smooth="yes"/>
      <point x="20" y="-47"/>
      <point x="93" y="-87"/>
    </contour>
    <contour>
      <point x="242" y="232" type="curve" smooth="yes"/>
      <point x="159" y="232"/>
      <point x="148" y="291"/>
      <point x="148" y="315" type="curve" smooth="yes"/>
      <point x="148" y="367"/>
      <point x="197" y="396"/>
      <point x="250" y="396" type="curve" smooth="yes"/>
      <point x="311" y="396"/>
      <point x="337" y="358"/>
      <point x="337" y="314" type="curve" smooth="yes"/>
      <point x="337" y="263"/>
      <point x="303" y="232"/>
    </contour>
  </outline>
</glyph>
<glyph name="copyright" format="2">
  <advance width="620"/>
  <unicode hex="00A9"/>
  <outline>
    <contour>
      <point x="344" y="100" type="curve" smooth="yes"/>
      <point x="464" y="100"/>
      <point x="610" y="183"/>
      <point x="610" y="362" type="curve" smooth="yes"/>
      <point x="610" y="535"/>
      <point x="466" y="620"/>
      <point x="346" y="620" type="curve" smooth="yes"/>
      <point x="226" y="620"/>
      <point x="88" y="537"/>
      <point x="88" y="358" type="curve" smooth="yes"/>
      <point x="92" y="185"/>
      <point x="224" y="100"/>
    </contour>
    <contour>
      <point x="344" y="142" type="curve" smooth="yes"/>
      <point x="213" y="142"/>
      <point x="129" y="235"/>
      <point x="129" y="362" type="curve" smooth="yes"/>
      <point x="129" y="490"/>
      <point x="220" y="578"/>
      <point x="347" y="578" type="curve" smooth="yes"/>
      <point x="477" y="578"/>
      <point x="569" y="487"/>
      <point x="569" y="362" type="curve" smooth="yes"/>
      <point x="569" y="231"/>
      <point x="473" y="142"/>
    </contour>
    <contour>
      <point x="353" y="206" type="curve" smooth="yes"/>
      <point x="409" y="206"/>
      <point x="442" y="241"/>
      <point x="442" y="284" type="curve"/>
      <point x="442" y="299"/>
      <point x="432" y="305"/>
      <point x="418" y="305" type="curve" smooth="yes"/>
      <point x="406" y="305"/>
      <point x="402" y="298"/>
      <point x="400" y="289" type="curve" smooth="yes"/>
      <point x="394" y="271"/>
      <point x="394" y="246"/>
      <point x="354" y="246" type="curve" smooth="yes"/>
      <point x="314" y="246"/>
      <point x="303" y="263"/>
      <point x="303" y="300" type="curve" smooth="yes"/>
      <point x="303" y="429" type="line" smooth="yes"/>
      <point x="303" y="466"/>
      <point x="317" y="483"/>
      <point x="349" y="483" type="curve" smooth="yes"/>
      <point x="390" y="483"/>
      <point x="390" y="458"/>
      <point x="396" y="441" type="curve" smooth="yes"/>
      <point x="399" y="431"/>
      <point x="404" y="424"/>
      <point x="418" y="424" type="curve" smooth="yes"/>
      <point x="427" y="424"/>
      <point x="440" y="427"/>
      <point x="440" y="448" type="curve" smooth="yes"/>
      <point x="440" y="473"/>
      <point x="415" y="524"/>
      <point x="347" y="524" type="curve" smooth="yes"/>
      <point x="295" y="524"/>
      <point x="259" y="498"/>
      <point x="259" y="429" type="curve" smooth="yes"/>
      <point x="259" y="300" type="line" smooth="yes"/>
      <point x="259" y="232"/>
      <point x="302" y="206"/>
    </contour>
  </outline>
</glyph>
<glyph name="ordfeminine" format="2">
  <advance width="410"/>
  <unicode hex="00AA"/>
  <outline>
    <contour>
      <point x="182" y="447" type="curve" smooth="yes"/>
      <point x="217" y="447"/>
      <point x="253" y="476"/>
      <point x="292" y="522" type="curve"/>
      <point x="292" y="515"/>
      <point x="293" y="507"/>
      <point x="294" y="500" type="curve" smooth="yes"/>
      <point x="298" y="479"/>
      <point x="308" y="459"/>
      <point x="339" y="459" type="curve" smooth="yes"/>
      <point x="388" y="459"/>
      <point x="446" y="510"/>
      <point x="476" y="587" type="curve"/>
      <point x="466" y="603" type="line"/>
      <point x="423" y="531"/>
      <point x="382" y="497"/>
      <point x="359" y="497" type="curve" smooth="yes"/>
      <point x="345" y="497"/>
      <point x="341" y="510"/>
      <point x="341" y="520" type="curve" smooth="yes"/>
      <point x="341" y="550"/>
      <point x="380" y="590"/>
      <point x="380" y="610" type="curve" smooth="yes"/>
      <point x="380" y="619"/>
      <point x="365" y="626"/>
      <point x="340" y="634" type="curve"/>
      <point x="311" y="591"/>
      <point x="239" y="490"/>
      <point x="200" y="490" type="curve" smooth="yes"/>
      <point x="191" y="490"/>
      <point x="187" y="495"/>
      <point x="187" y="510" type="curve" smooth="yes"/>
      <point x="187" y="573"/>
      <point x="259" y="688"/>
      <point x="320" y="688" type="curve" smooth="yes"/>
      <point x="341" y="688"/>
      <point x="350" y="674"/>
      <point x="350" y="659" type="curve" smooth="yes"/>
      <point x="350" y="652"/>
      <point x="348" y="643"/>
      <point x="345" y="634" type="curve"/>
      <point x="367" y="631"/>
      <point x="394" y="645"/>
      <point x="394" y="667" type="curve" smooth="yes"/>
      <point x="394" y="699"/>
      <point x="362" y="720"/>
      <point x="321" y="720" type="curve" smooth="yes"/>
      <point x="224" y="720"/>
      <point x="125" y="592"/>
      <point x="125" y="511" type="curve" smooth="yes"/>
      <point x="125" y="468"/>
      <point x="152" y="447"/>
    </contour>
  </outline>
</glyph>
<glyph name="registered" format="2">
  <advance width="619"/>
  <unicode hex="00AE"/>
  <outline>
    <contour>
      <point x="342" y="100" type="curve" smooth="yes"/>
      <point x="461" y="100"/>
      <point x="610" y="183"/>
      <point x="610" y="362" type="curve" smooth="yes"/>
      <point x="610" y="535"/>
      <point x="471" y="620"/>
      <point x="350" y="620" type="curve" smooth="yes"/>
      <point x="231" y="620"/>
      <point x="88" y="537"/>
      <point x="88" y="358" type="curve" smooth="yes"/>
      <point x="88" y="185"/>
      <point x="221" y="100"/>
    </contour>
    <contour>
      <point x="342" y="142" type="curve" smooth="yes"/>
      <point x="210" y="142"/>
      <point x="129" y="236"/>
      <point x="129" y="359" type="curve" smooth="yes"/>
      <point x="129" y="492"/>
      <point x="225" y="578"/>
      <point x="352" y="578" type="curve" smooth="yes"/>
      <point x="482" y="578"/>
      <point x="569" y="487"/>
      <point x="569" y="363" type="curve" smooth="yes"/>
      <point x="569" y="231"/>
      <point x="470" y="142"/>
    </contour>
    <contour>
      <point x="290" y="207" type="curve" smooth="yes"/>
      <point x="300" y="207"/>
      <point x="312" y="214"/>
      <point x="312" y="228" type="curve" smooth="yes"/>
      <point x="312" y="346" type="line"/>
      <point x="344" y="346" type="line"/>
      <point x="399" y="238" type="line" smooth="yes"/>
      <point x="405" y="226"/>
      <point x="415" y="207"/>
      <point x="429" y="207" type="curve" smooth="yes"/>
      <point x="440" y="207"/>
      <point x="452" y="217"/>
      <point x="452" y="227" type="curve" smooth="yes"/>
      <point x="452" y="231"/>
      <point x="450" y="236"/>
      <point x="449" y="238" type="curve" smooth="yes"/>
      <point x="445" y="246"/>
      <point x="415" y="300"/>
      <point x="390" y="350" type="curve"/>
      <point x="424" y="359"/>
      <point x="448" y="387"/>
      <point x="448" y="434" type="curve" smooth="yes"/>
      <point x="448" y="503"/>
      <point x="397" y="523"/>
      <point x="349" y="523" type="curve" smooth="yes"/>
      <point x="284" y="523" type="line" smooth="yes"/>
      <point x="271" y="523"/>
      <point x="263" y="513"/>
      <point x="263" y="503" type="curve" smooth="yes"/>
      <point x="267" y="228" type="line" smooth="yes"/>
      <point x="267" y="214"/>
      <point x="279" y="207"/>
    </contour>
    <contour>
      <point x="310" y="386" type="line"/>
      <point x="310" y="483" type="line"/>
      <point x="351" y="483" type="line" smooth="yes"/>
      <point x="379" y="483"/>
      <point x="403" y="470"/>
      <point x="403" y="434" type="curve" smooth="yes"/>
      <point x="403" y="401"/>
      <point x="383" y="386"/>
      <point x="352" y="386" type="curve" smooth="yes"/>
    </contour>
  </outline>
</glyph>
<glyph name="degree" format="2">
  <advance width="293"/>
  <unicode hex="00B0"/>
  <outline>
    <contour>
      <point x="191" y="396" type="curve" smooth="yes"/>
      <point x="262" y="396"/>
      <point x="318" y="458"/>
      <point x="318" y="505" type="curve" smooth="yes"/>
      <point x="318" y="536"/>
      <point x="294" y="562"/>
      <point x="236" y="562" type="curve" smooth="yes"/>
      <point x="165" y="562"/>
      <point x="112" y="499"/>
      <point x="112" y="453" type="curve" smooth="yes"/>
      <point x="112" y="421"/>
      <point x="136" y="396"/>
    </contour>
    <contour>
      <point x="195" y="428" type="curve" smooth="yes"/>
      <point x="168" y="428"/>
      <point x="158" y="440"/>
      <point x="158" y="454" type="curve" smooth="yes"/>
      <point x="158" y="485"/>
      <point x="196" y="529"/>
      <point x="236" y="529" type="curve" smooth="yes"/>
      <point x="262" y="529"/>
      <point x="274" y="519"/>
      <point x="274" y="505" type="curve" smooth="yes"/>
      <point x="274" y="473"/>
      <point x="232" y="428"/>
    </contour>
  </outline>
</glyph>
<glyph name="plusminus" format="2">
  <advance width="485"/>
  <unicode hex="00B1"/>
  <outline>
    <contour>
      <point x="197" y="106" type="curve"/>
      <point x="248" y="124"/>
      <point x="255" y="177"/>
      <point x="256" y="242" type="curve"/>
      <point x="301" y="242" type="line" smooth="yes"/>
      <point x="329" y="242"/>
      <point x="371" y="248"/>
      <point x="420" y="278" type="curve"/>
      <point x="394" y="280"/>
      <point x="317" y="286"/>
      <point x="256" y="287" type="curve"/>
      <point x="253" y="334"/>
      <point x="247" y="384"/>
      <point x="242" y="411" type="curve"/>
      <point x="212" y="372"/>
      <point x="208" y="343"/>
      <point x="208" y="318" type="curve" smooth="yes"/>
      <point x="208" y="287" type="line"/>
      <point x="133" y="284"/>
      <point x="73" y="272"/>
      <point x="58" y="233" type="curve"/>
      <point x="122" y="242"/>
      <point x="155" y="242"/>
      <point x="208" y="242" type="curve"/>
      <point x="208" y="198"/>
      <point x="205" y="151"/>
    </contour>
    <contour>
      <point x="56" y="23" type="curve"/>
      <point x="139" y="33"/>
      <point x="157" y="35"/>
      <point x="245" y="37" type="curve" smooth="yes"/>
      <point x="338" y="39"/>
      <point x="367" y="40"/>
      <point x="424" y="71" type="curve"/>
      <point x="387" y="75"/>
      <point x="312" y="80"/>
      <point x="244" y="80" type="curve" smooth="yes"/>
      <point x="157" y="80"/>
      <point x="63" y="72"/>
    </contour>
  </outline>
</glyph>
<glyph name="twosuperior" format="2">
  <advance width="398"/>
  <unicode hex="00B2"/>
  <outline>
    <contour>
      <point x="319" y="301" type="curve" smooth="yes"/>
      <point x="354" y="301"/>
      <point x="373" y="326"/>
      <point x="387" y="380" type="curve"/>
      <point x="355" y="361"/>
      <point x="341" y="355"/>
      <point x="331" y="355" type="curve" smooth="yes"/>
      <point x="308" y="355"/>
      <point x="277" y="362"/>
      <point x="243" y="369" type="curve"/>
      <point x="315" y="430"/>
      <point x="376" y="529"/>
      <point x="376" y="615" type="curve" smooth="yes"/>
      <point x="376" y="669"/>
      <point x="336" y="712"/>
      <point x="280" y="712" type="curve" smooth="yes"/>
      <point x="208" y="712"/>
      <point x="160" y="659"/>
      <point x="160" y="602" type="curve" smooth="yes"/>
      <point x="160" y="570"/>
      <point x="178" y="557"/>
      <point x="207" y="550" type="curve"/>
      <point x="226" y="550" type="line"/>
      <point x="216" y="572"/>
      <point x="214" y="582"/>
      <point x="214" y="595" type="curve" smooth="yes"/>
      <point x="214" y="644"/>
      <point x="236" y="681"/>
      <point x="272" y="681" type="curve" smooth="yes"/>
      <point x="299" y="681"/>
      <point x="318" y="663"/>
      <point x="318" y="618" type="curve" smooth="yes"/>
      <point x="318" y="536"/>
      <point x="251" y="430"/>
      <point x="192" y="379" type="curve"/>
      <point x="172" y="383"/>
      <point x="156" y="385"/>
      <point x="140" y="385" type="curve" smooth="yes"/>
      <point x="106" y="385"/>
      <point x="92" y="373"/>
      <point x="92" y="353" type="curve" smooth="yes"/>
      <point x="92" y="332"/>
      <point x="113" y="317"/>
      <point x="139" y="317" type="curve" smooth="yes"/>
      <point x="157" y="317"/>
      <point x="176" y="324"/>
      <point x="198" y="337" type="curve"/>
      <point x="230" y="321"/>
      <point x="287" y="301"/>
    </contour>
    <contour>
      <point x="137" y="349" type="curve" smooth="yes"/>
      <point x="133" y="349"/>
      <point x="129" y="350"/>
      <point x="129" y="352" type="curve" smooth="yes"/>
      <point x="129" y="353"/>
      <point x="130" y="354"/>
      <point x="137" y="354" type="curve" smooth="yes"/>
      <point x="140" y="354"/>
      <point x="145" y="354"/>
      <point x="151" y="353" type="curve"/>
      <point x="145" y="350"/>
      <point x="142" y="349"/>
    </contour>
  </outline>
</glyph>
<glyph name="threesuperior" format="2">
  <advance width="335"/>
  <unicode hex="00B3"/>
  <outline>
    <contour>
      <point x="199" y="314" type="curve" smooth="yes"/>
      <point x="287" y="314"/>
      <point x="346" y="380"/>
      <point x="346" y="444" type="curve" smooth="yes"/>
      <point x="346" y="475"/>
      <point x="330" y="515"/>
      <point x="286" y="537" type="curve"/>
      <point x="328" y="559"/>
      <point x="355" y="608"/>
      <point x="355" y="647" type="curve" smooth="yes"/>
      <point x="355" y="694"/>
      <point x="310" y="718"/>
      <point x="265" y="718" type="curve" smooth="yes"/>
      <point x="213" y="718"/>
      <point x="161" y="688"/>
      <point x="161" y="636" type="curve" smooth="yes"/>
      <point x="161" y="617"/>
      <point x="172" y="589"/>
      <point x="190" y="589" type="curve" smooth="yes"/>
      <point x="200" y="589"/>
      <point x="215" y="600"/>
      <point x="222" y="612" type="curve"/>
      <point x="216" y="624"/>
      <point x="212" y="633"/>
      <point x="212" y="642" type="curve" smooth="yes"/>
      <point x="212" y="670"/>
      <point x="234" y="693"/>
      <point x="259" y="693" type="curve" smooth="yes"/>
      <point x="277" y="693"/>
      <point x="295" y="677"/>
      <point x="295" y="649" type="curve" smooth="yes"/>
      <point x="295" y="612"/>
      <point x="258" y="557"/>
      <point x="195" y="530" type="curve"/>
      <point x="256" y="515"/>
      <point x="273" y="476"/>
      <point x="273" y="439" type="curve" smooth="yes"/>
      <point x="273" y="385"/>
      <point x="237" y="343"/>
      <point x="203" y="343" type="curve" smooth="yes"/>
      <point x="174" y="343"/>
      <point x="160" y="373"/>
      <point x="160" y="399" type="curve" smooth="yes"/>
      <point x="160" y="414"/>
      <point x="169" y="433"/>
      <point x="185" y="445" type="curve"/>
      <point x="164" y="452"/>
      <point x="159" y="452"/>
      <point x="155" y="452" type="curve" smooth="yes"/>
      <point x="120" y="452"/>
      <point x="103" y="419"/>
      <point x="103" y="392" type="curve" smooth="yes"/>
      <point x="103" y="357"/>
      <point x="131" y="314"/>
    </contour>
  </outline>
</glyph>
<glyph name="micro" format="2">
  <advance width="616"/>
  <unicode hex="00B5"/>
  <outline>
    <contour>
      <point x="11" y="-280" type="curve" smooth="yes"/>
      <point x="33" y="-280"/>
      <point x="65" y="-187"/>
      <point x="113" y="-18" type="curve"/>
      <point x="122" y="-27"/>
      <point x="141" y="-36"/>
      <point x="155" y="-36" type="curve" smooth="yes"/>
      <point x="203" y="-36"/>
      <point x="242" y="5"/>
      <point x="277" y="60" type="curve"/>
      <point x="276" y="54"/>
      <point x="276" y="49"/>
      <point x="276" y="44" type="curve" smooth="yes"/>
      <point x="276" y="-3"/>
      <point x="308" y="-36"/>
      <point x="357" y="-36" type="curve" smooth="yes"/>
      <point x="433" y="-36"/>
      <point x="525" y="42"/>
      <point x="570" y="153" type="curve"/>
      <point x="546" y="169" type="line"/>
      <point x="496" y="67"/>
      <point x="420" y="8"/>
      <point x="378" y="8" type="curve" smooth="yes"/>
      <point x="357" y="8"/>
      <point x="350" y="22"/>
      <point x="350" y="42" type="curve" smooth="yes"/>
      <point x="350" y="112"/>
      <point x="414" y="241"/>
      <point x="414" y="241" type="curve" smooth="yes"/>
      <point x="414" y="263"/>
      <point x="368" y="272"/>
      <point x="355" y="274" type="curve"/>
      <point x="316" y="204"/>
      <point x="236" y="18"/>
      <point x="174" y="18" type="curve" smooth="yes"/>
      <point x="159" y="18"/>
      <point x="149" y="31"/>
      <point x="149" y="60" type="curve" smooth="yes"/>
      <point x="149" y="107"/>
      <point x="166" y="192"/>
      <point x="194" y="321" type="curve"/>
      <point x="192" y="347"/>
      <point x="177" y="373"/>
      <point x="137" y="373" type="curve" smooth="yes"/>
      <point x="114" y="373"/>
      <point x="113" y="366"/>
      <point x="111" y="350" type="curve"/>
      <point x="71" y="-41"/>
      <point x="18" y="-72"/>
      <point x="-29" y="-234" type="curve"/>
      <point x="-28" y="-239"/>
      <point x="-11" y="-280"/>
    </contour>
  </outline>
</glyph>
<glyph name="paragraph" format="2">
  <advance width="686"/>
  <unicode hex="00B6"/>
  <outline>
    <contour>
      <point x="358" y="-87" type="curve"/>
      <point x="398" y="-87"/>
      <point x="451" y="-64"/>
      <point x="462" y="-33" type="curve"/>
      <point x="466" y="-21"/>
      <point x="473" y="152"/>
      <point x="473" y="312" type="curve" smooth="yes"/>
      <point x="473" y="388"/>
      <point x="471" y="437"/>
      <point x="465" y="542" type="curve"/>
      <point x="476" y="540"/>
      <point x="495" y="538"/>
      <point x="504" y="535" type="curve"/>
      <point x="515" y="329"/>
      <point x="491" y="-74"/>
      <point x="486" y="-87" type="curve"/>
      <point x="523" y="-87"/>
      <point x="561" y="-67"/>
      <point x="571" y="-34" type="curve"/>
      <point x="577" y="-15"/>
      <point x="582" y="124"/>
      <point x="582" y="371" type="curve" smooth="yes"/>
      <point x="582" y="413"/>
      <point x="581" y="457"/>
      <point x="577" y="504" type="curve"/>
      <point x="598" y="494"/>
      <point x="606" y="488"/>
      <point x="614" y="488" type="curve" smooth="yes"/>
      <point x="623" y="488"/>
      <point x="659" y="511"/>
      <point x="665" y="525" type="curve"/>
      <point x="640" y="536"/>
      <point x="609" y="549"/>
      <point x="575" y="559" type="curve"/>
      <point x="569" y="643"/>
      <point x="556" y="716"/>
      <point x="528" y="716" type="curve" smooth="yes"/>
      <point x="519" y="716"/>
      <point x="507" y="714"/>
      <point x="494" y="705" type="curve"/>
      <point x="498" y="675"/>
      <point x="501" y="628"/>
      <point x="504" y="576" type="curve"/>
      <point x="494" y="580"/>
      <point x="471" y="581"/>
      <point x="461" y="583" type="curve"/>
      <point x="461" y="634"/>
      <point x="460" y="716"/>
      <point x="415" y="716" type="curve" smooth="yes"/>
      <point x="405" y="716"/>
      <point x="394" y="714"/>
      <point x="378" y="706" type="curve"/>
      <point x="384" y="667"/>
      <point x="388" y="626"/>
      <point x="390" y="581" type="curve"/>
      <point x="242" y="567"/>
      <point x="71" y="485"/>
      <point x="71" y="336" type="curve" smooth="yes"/>
      <point x="71" y="186"/>
      <point x="287" y="157"/>
      <point x="375" y="152" type="curve"/>
      <point x="368" y="67"/>
      <point x="362" y="-17"/>
    </contour>
  </outline>
</glyph>
<glyph name="ordmasculine" format="2">
  <advance width="310"/>
  <unicode hex="00BA"/>
  <outline>
    <contour>
      <point x="191" y="452" type="curve" smooth="yes"/>
      <point x="242" y="452"/>
      <point x="287" y="496"/>
      <point x="317" y="559" type="curve"/>
      <point x="324" y="554"/>
      <point x="332" y="551"/>
      <point x="342" y="551" type="curve" smooth="yes"/>
      <point x="362" y="551"/>
      <point x="381" y="562"/>
      <point x="381" y="586" type="curve"/>
      <point x="375" y="583"/>
      <point x="369" y="582"/>
      <point x="357" y="582" type="curve" smooth="yes"/>
      <point x="348" y="582"/>
      <point x="341" y="584"/>
      <point x="341" y="594" type="curve" smooth="yes"/>
      <point x="341" y="619"/>
      <point x="368" y="654"/>
      <point x="368" y="674" type="curve" smooth="yes"/>
      <point x="368" y="686"/>
      <point x="358" y="704"/>
      <point x="335" y="706" type="curve"/>
      <point x="328" y="714"/>
      <point x="318" y="719"/>
      <point x="301" y="719" type="curve" smooth="yes"/>
      <point x="210" y="719"/>
      <point x="127" y="588"/>
      <point x="127" y="517" type="curve" smooth="yes"/>
      <point x="127" y="478"/>
      <point x="152" y="452"/>
    </contour>
    <contour>
      <point x="208" y="492" type="curve" smooth="yes"/>
      <point x="193" y="492"/>
      <point x="183" y="505"/>
      <point x="183" y="524" type="curve" smooth="yes"/>
      <point x="183" y="567"/>
      <point x="233" y="667"/>
      <point x="300" y="677" type="curve"/>
      <point x="296" y="667"/>
      <point x="294" y="654"/>
      <point x="294" y="626" type="curve" smooth="yes"/>
      <point x="294" y="607"/>
      <point x="295" y="601"/>
      <point x="298" y="589" type="curve"/>
      <point x="277" y="540"/>
      <point x="237" y="492"/>
    </contour>
  </outline>
</glyph>
<glyph name="guillemetright" format="2">
  <advance width="492"/>
  <unicode hex="00BB"/>
  <outline>
    <contour>
      <point x="261" y="44" type="curve" smooth="yes"/>
      <point x="312" y="44"/>
      <point x="421" y="123"/>
      <point x="434" y="165" type="curve"/>
      <point x="361" y="194"/>
      <point x="282" y="258"/>
      <point x="236" y="319" type="curve"/>
      <point x="233" y="316"/>
      <point x="224" y="294"/>
      <point x="224" y="287" type="curve" smooth="yes"/>
      <point x="224" y="233"/>
      <point x="315" y="182"/>
      <point x="384" y="147" type="curve"/>
      <point x="344" y="121"/>
      <point x="314" y="104"/>
      <point x="220" y="70" type="curve"/>
      <point x="231" y="58"/>
      <point x="246" y="44"/>
    </contour>
    <contour>
      <point x="108" y="44" type="curve" smooth="yes"/>
      <point x="159" y="44"/>
      <point x="268" y="123"/>
      <point x="281" y="165" type="curve"/>
      <point x="208" y="194"/>
      <point x="129" y="258"/>
      <point x="83" y="319" type="curve"/>
      <point x="80" y="316"/>
      <point x="71" y="294"/>
      <point x="71" y="287" type="curve" smooth="yes"/>
      <point x="71" y="233"/>
      <point x="162" y="182"/>
      <point x="231" y="147" type="curve"/>
      <point x="191" y="121"/>
      <point x="161" y="104"/>
      <point x="67" y="70" type="curve"/>
      <point x="78" y="58"/>
      <point x="93" y="44"/>
    </contour>
  </outline>
</glyph>
<glyph name="onequarter" format="2">
  <advance width="686"/>
  <unicode hex="00BC"/>
  <outline>
    <contour>
      <point x="52" y="-87" type="curve"/>
      <point x="128" y="-87"/>
      <point x="193" y="-13"/>
      <point x="264" y="97" type="curve" smooth="yes"/>
      <point x="351" y="233"/>
      <point x="574" y="654"/>
      <point x="596" y="710" type="curve"/>
      <point x="558" y="716"/>
      <point x="505" y="692"/>
      <point x="497" y="671" type="curve" smooth="yes"/>
      <point x="427" y="491"/>
      <point x="152" y="10"/>
    </contour>
    <contour>
      <point x="560" y="-27" type="curve"/>
      <point x="560" y="14"/>
      <point x="573" y="101"/>
      <point x="577" y="130" type="curve"/>
      <point x="596" y="130"/>
      <point x="625" y="151"/>
      <point x="648" y="182" type="curve"/>
      <point x="623" y="178"/>
      <point x="605" y="174"/>
      <point x="595" y="174" type="curve" smooth="yes"/>
      <point x="585" y="174" type="line"/>
      <point x="609" y="303"/>
      <point x="628" y="350"/>
      <point x="628" y="362" type="curve" smooth="yes"/>
      <point x="627" y="376"/>
      <point x="620" y="382"/>
      <point x="607" y="383" type="curve"/>
      <point x="558" y="302"/>
      <point x="452" y="212"/>
      <point x="389" y="159" type="curve"/>
      <point x="383" y="154"/>
      <point x="377" y="142"/>
      <point x="377" y="121" type="curve"/>
      <point x="405" y="128"/>
      <point x="446" y="132"/>
      <point x="485" y="132" type="curve" smooth="yes"/>
      <point x="496" y="132"/>
      <point x="507" y="132"/>
      <point x="518" y="131" type="curve"/>
      <point x="501" y="48"/>
      <point x="497" y="17"/>
      <point x="497" y="8" type="curve" smooth="yes"/>
      <point x="497" y="-14"/>
      <point x="519" y="-25"/>
    </contour>
    <contour>
      <point x="459" y="177" type="curve"/>
      <point x="479" y="198"/>
      <point x="484" y="202"/>
      <point x="519" y="233" type="curve" smooth="yes"/>
      <point x="547" y="258" type="line"/>
      <point x="539" y="232"/>
      <point x="538" y="224"/>
      <point x="529" y="176" type="curve"/>
      <point x="498" y="176"/>
      <point x="475" y="177"/>
    </contour>
    <contour>
      <point x="140" y="314" type="curve" smooth="yes"/>
      <point x="168" y="314"/>
      <point x="189" y="318"/>
      <point x="226" y="318" type="curve" smooth="yes"/>
      <point x="239" y="318"/>
      <point x="265" y="316"/>
      <point x="278" y="315" type="curve"/>
      <point x="270" y="352"/>
      <point x="246" y="361"/>
      <point x="216" y="361" type="curve"/>
      <point x="224" y="377"/>
      <point x="230" y="399"/>
      <point x="236" y="427" type="curve" smooth="yes"/>
      <point x="270" y="596"/>
      <point x="288" y="678"/>
      <point x="288" y="694" type="curve" smooth="yes"/>
      <point x="288" y="697"/>
      <point x="288" y="706"/>
      <point x="286" y="711" type="curve" smooth="yes"/>
      <point x="285" y="714"/>
      <point x="284" y="715"/>
      <point x="282" y="717" type="curve"/>
      <point x="278" y="717" type="line"/>
      <point x="231" y="680"/>
      <point x="175" y="641"/>
      <point x="157" y="632" type="curve"/>
      <point x="157" y="609"/>
      <point x="165" y="602"/>
      <point x="179" y="602" type="curve" smooth="yes"/>
      <point x="185" y="602"/>
      <point x="196" y="606"/>
      <point x="221" y="620" type="curve"/>
      <point x="208" y="571"/>
      <point x="190" y="419"/>
      <point x="163" y="355" type="curve"/>
      <point x="135" y="352"/>
      <point x="121" y="352"/>
      <point x="81" y="352" type="curve"/>
      <point x="99" y="326"/>
      <point x="125" y="314"/>
    </contour>
  </outline>
</glyph>
<glyph name="threequarters" format="2">
  <advance width="733"/>
  <unicode hex="00BE"/>
  <outline>
    <contour>
      <point x="100" y="-87" type="curve"/>
      <point x="179" y="-87"/>
      <point x="240" y="-13"/>
      <point x="310" y="98" type="curve" smooth="yes"/>
      <point x="419" y="270"/>
      <point x="621" y="653"/>
      <point x="638" y="720" type="curve"/>
      <point x="601" y="720"/>
      <point x="556" y="694"/>
      <point x="545" y="671" type="curve" smooth="yes"/>
      <point x="459" y="496"/>
      <point x="326" y="187"/>
    </contour>
    <contour>
      <point x="193" y="307" type="curve" smooth="yes"/>
      <point x="282" y="307"/>
      <point x="342" y="376"/>
      <point x="342" y="439" type="curve" smooth="yes"/>
      <point x="342" y="474"/>
      <point x="323" y="514"/>
      <point x="281" y="534" type="curve"/>
      <point x="323" y="556"/>
      <point x="351" y="606"/>
      <point x="351" y="645" type="curve" smooth="yes"/>
      <point x="351" y="695"/>
      <point x="305" y="718"/>
      <point x="260" y="718" type="curve" smooth="yes"/>
      <point x="208" y="718"/>
      <point x="154" y="688"/>
      <point x="154" y="635" type="curve" smooth="yes"/>
      <point x="156" y="616"/>
      <point x="166" y="588"/>
      <point x="184" y="588" type="curve" smooth="yes"/>
      <point x="194" y="588"/>
      <point x="210" y="599"/>
      <point x="216" y="611" type="curve"/>
      <point x="210" y="623"/>
      <point x="206" y="634"/>
      <point x="206" y="644" type="curve" smooth="yes"/>
      <point x="206" y="670"/>
      <point x="230" y="692"/>
      <point x="254" y="692" type="curve" smooth="yes"/>
      <point x="273" y="692"/>
      <point x="292" y="677"/>
      <point x="292" y="648" type="curve" smooth="yes"/>
      <point x="292" y="611"/>
      <point x="252" y="554"/>
      <point x="190" y="527" type="curve"/>
      <point x="252" y="513"/>
      <point x="269" y="472"/>
      <point x="269" y="435" type="curve" smooth="yes"/>
      <point x="269" y="381"/>
      <point x="232" y="339"/>
      <point x="198" y="339" type="curve" smooth="yes"/>
      <point x="171" y="339"/>
      <point x="152" y="366"/>
      <point x="152" y="391" type="curve" smooth="yes"/>
      <point x="152" y="408"/>
      <point x="161" y="428"/>
      <point x="179" y="441" type="curve"/>
      <point x="160" y="446"/>
      <point x="155" y="447"/>
      <point x="148" y="447" type="curve" smooth="yes"/>
      <point x="112" y="447"/>
      <point x="96" y="414"/>
      <point x="96" y="386" type="curve" smooth="yes"/>
      <point x="96" y="351"/>
      <point x="122" y="307"/>
    </contour>
    <contour>
      <point x="608" y="-27" type="curve"/>
      <point x="608" y="14"/>
      <point x="621" y="101"/>
      <point x="625" y="130" type="curve"/>
      <point x="644" y="130"/>
      <point x="673" y="151"/>
      <point x="696" y="182" type="curve"/>
      <point x="671" y="178"/>
      <point x="653" y="174"/>
      <point x="643" y="174" type="curve" smooth="yes"/>
      <point x="633" y="174" type="line"/>
      <point x="657" y="303"/>
      <point x="676" y="350"/>
      <point x="676" y="362" type="curve" smooth="yes"/>
      <point x="675" y="376"/>
      <point x="668" y="382"/>
      <point x="655" y="383" type="curve"/>
      <point x="606" y="302"/>
      <point x="500" y="212"/>
      <point x="437" y="159" type="curve"/>
      <point x="431" y="154"/>
      <point x="425" y="142"/>
      <point x="425" y="121" type="curve"/>
      <point x="453" y="128"/>
      <point x="494" y="132"/>
      <point x="533" y="132" type="curve" smooth="yes"/>
      <point x="544" y="132"/>
      <point x="555" y="132"/>
      <point x="566" y="131" type="curve"/>
      <point x="549" y="48"/>
      <point x="545" y="17"/>
      <point x="545" y="8" type="curve" smooth="yes"/>
      <point x="545" y="-14"/>
      <point x="567" y="-25"/>
    </contour>
    <contour>
      <point x="507" y="177" type="curve"/>
      <point x="527" y="198"/>
      <point x="532" y="202"/>
      <point x="567" y="233" type="curve" smooth="yes"/>
      <point x="595" y="258" type="line"/>
      <point x="587" y="232"/>
      <point x="586" y="224"/>
      <point x="577" y="176" type="curve"/>
      <point x="546" y="176"/>
      <point x="523" y="177"/>
    </contour>
  </outline>
</glyph>
<glyph name="AE" format="2">
  <advance width="790"/>
  <unicode hex="00C6"/>
  <outline>
    <contour>
      <point x="45" y="-87" type="curve"/>
      <point x="96" y="31"/>
      <point x="157" y="156"/>
      <point x="221" y="269" type="curve"/>
      <point x="262" y="264"/>
      <point x="305" y="259"/>
      <point x="364" y="250" type="curve"/>
      <point x="356" y="206"/>
      <point x="350" y="164"/>
      <point x="350" y="126" type="curve" smooth="yes"/>
      <point x="350" y="68"/>
      <point x="360" y="16"/>
      <point x="387" y="-8" type="curve"/>
      <point x="429" y="-12"/>
      <point x="487" y="-12"/>
      <point x="545" y="-12" type="curve" smooth="yes"/>
      <point x="632" y="-12"/>
      <point x="716" y="-4"/>
      <point x="730" y="36" type="curve"/>
      <point x="670" y="51"/>
      <point x="530" y="54"/>
      <point x="442" y="67" type="curve"/>
      <point x="441" y="76"/>
      <point x="439" y="87"/>
      <point x="439" y="100" type="curve" smooth="yes"/>
      <point x="439" y="164"/>
      <point x="453" y="257"/>
      <point x="474" y="351" type="curve"/>
      <point x="489" y="350"/>
      <point x="501" y="350"/>
      <point x="525" y="350" type="curve" smooth="yes"/>
      <point x="612" y="350"/>
      <point x="695" y="358"/>
      <point x="711" y="399" type="curve"/>
      <point x="659" y="404"/>
      <point x="589" y="420"/>
      <point x="493" y="423" type="curve"/>
      <point x="518" y="520"/>
      <point x="549" y="608"/>
      <point x="571" y="652" type="curve"/>
      <point x="604" y="651"/>
      <point x="637" y="650"/>
      <point x="675" y="650" type="curve" smooth="yes"/>
      <point x="762" y="650"/>
      <point x="846" y="658"/>
      <point x="861" y="699" type="curve"/>
      <point x="799" y="707"/>
      <point x="640" y="722"/>
      <point x="528" y="722" type="curve" smooth="yes"/>
      <point x="481" y="722"/>
      <point x="329" y="540"/>
      <point x="189" y="338" type="curve"/>
      <point x="162" y="341"/>
      <point x="138" y="344"/>
      <point x="116" y="344" type="curve" smooth="yes"/>
      <point x="60" y="344"/>
      <point x="17" y="327"/>
      <point x="-1" y="279" type="curve"/>
      <point x="46" y="279" type="line" smooth="yes"/>
      <point x="69" y="279"/>
      <point x="101" y="278"/>
      <point x="146" y="275" type="curve"/>
      <point x="62" y="146"/>
      <point x="-1" y="28"/>
      <point x="-1" y="-26" type="curve" smooth="yes"/>
      <point x="-1" y="-41"/>
      <point x="5" y="-66"/>
    </contour>
    <contour>
      <point x="374" y="299" type="curve"/>
      <point x="341" y="305"/>
      <point x="296" y="318"/>
      <point x="253" y="326" type="curve"/>
      <point x="336" y="469"/>
      <point x="419" y="586"/>
      <point x="480" y="634" type="curve"/>
      <point x="442" y="545"/>
      <point x="399" y="417"/>
    </contour>
  </outline>
</glyph>
<glyph name="Eth" format="2">
  <advance width="688"/>
  <unicode hex="00D0"/>
  <outline>
    <contour>
      <point x="192" y="-87" type="curve" smooth="yes"/>
      <point x="435" y="-87"/>
      <point x="686" y="148"/>
      <point x="686" y="435" type="curve" smooth="yes"/>
      <point x="686" y="591"/>
      <point x="612" y="720"/>
      <point x="415" y="720" type="curve" smooth="yes"/>
      <point x="232" y="720"/>
      <point x="85" y="608"/>
      <point x="85" y="515" type="curve" smooth="yes"/>
      <point x="85" y="479"/>
      <point x="107" y="451"/>
      <point x="165" y="451" type="curve"/>
      <point x="158" y="467"/>
      <point x="156" y="484"/>
      <point x="156" y="499" type="curve" smooth="yes"/>
      <point x="156" y="601"/>
      <point x="252" y="679"/>
      <point x="383" y="679" type="curve" smooth="yes"/>
      <point x="510" y="679"/>
      <point x="597" y="606"/>
      <point x="597" y="446" type="curve" smooth="yes"/>
      <point x="597" y="208"/>
      <point x="403" y="-47"/>
      <point x="189" y="-47" type="curve" smooth="yes"/>
      <point x="176" y="-47"/>
      <point x="166" y="-46"/>
      <point x="151" y="-44" type="curve"/>
      <point x="171" y="49"/>
      <point x="202" y="163"/>
      <point x="239" y="279" type="curve"/>
      <point x="311" y="279" type="line" smooth="yes"/>
      <point x="341" y="279"/>
      <point x="388" y="286"/>
      <point x="438" y="320" type="curve"/>
      <point x="401" y="323"/>
      <point x="325" y="330"/>
      <point x="255" y="330" type="curve"/>
      <point x="288" y="432"/>
      <point x="326" y="534"/>
      <point x="364" y="620" type="curve"/>
      <point x="349" y="630"/>
      <point x="336" y="634"/>
      <point x="326" y="634" type="curve" smooth="yes"/>
      <point x="280" y="634"/>
      <point x="249" y="559"/>
      <point x="241" y="537" type="curve" smooth="yes"/>
      <point x="229" y="506"/>
      <point x="199" y="420"/>
      <point x="170" y="328" type="curve"/>
      <point x="103" y="324"/>
      <point x="51" y="310"/>
      <point x="28" y="265" type="curve"/>
      <point x="72" y="271"/>
      <point x="118" y="277"/>
      <point x="154" y="278" type="curve"/>
      <point x="121" y="172"/>
      <point x="88" y="54"/>
      <point x="70" y="-37" type="curve"/>
      <point x="101" y="-78"/>
      <point x="144" y="-87"/>
    </contour>
  </outline>
</glyph>
<glyph name="eth" format="2">
  <advance width="488"/>
  <unicode hex="00F0"/>
  <outline>
    <contour>
      <point x="59" y="-30" type="curve" smooth="yes"/>
      <point x="121" y="-30"/>
      <point x="203" y="48"/>
      <point x="264" y="136" type="curve"/>
      <point x="260" y="114"/>
      <point x="255" y="87"/>
      <point x="255" y="62" type="curve" smooth="yes"/>
      <point x="255" y="16"/>
      <point x="273" y="-26"/>
      <point x="328" y="-26" type="curve" smooth="yes"/>
      <point x="405" y="-26"/>
      <point x="488" y="54"/>
      <point x="535" y="166" type="curve"/>
      <point x="516" y="178" type="line"/>
      <point x="474" y="87"/>
      <point x="402" y="28"/>
      <point x="361" y="28" type="curve" smooth="yes"/>
      <point x="342" y="28"/>
      <point x="337" y="42"/>
      <point x="337" y="65" type="curve" smooth="yes"/>
      <point x="337" y="173"/>
      <point x="445" y="362"/>
      <point x="445" y="489" type="curve" smooth="yes"/>
      <point x="445" y="506"/>
      <point x="443" y="517"/>
      <point x="441" y="532" type="curve"/>
      <point x="486" y="538"/>
      <point x="506" y="543"/>
      <point x="537" y="594" type="curve"/>
      <point x="511" y="586"/>
      <point x="463" y="580"/>
      <point x="431" y="577" type="curve"/>
      <point x="410" y="649"/>
      <point x="365" y="719"/>
      <point x="300" y="719" type="curve" smooth="yes"/>
      <point x="279" y="719"/>
      <point x="264" y="711"/>
      <point x="249" y="692" type="curve"/>
      <point x="299" y="653"/>
      <point x="329" y="611"/>
      <point x="344" y="568" type="curve"/>
      <point x="285" y="560"/>
      <point x="232" y="548"/>
      <point x="232" y="495" type="curve"/>
      <point x="259" y="502"/>
      <point x="325" y="516"/>
      <point x="356" y="521" type="curve"/>
      <point x="359" y="502"/>
      <point x="360" y="493"/>
      <point x="360" y="478" type="curve" smooth="yes"/>
      <point x="360" y="417"/>
      <point x="343" y="352"/>
      <point x="317" y="290" type="curve" smooth="yes"/>
      <point x="258" y="149"/>
      <point x="151" y="27"/>
      <point x="95" y="27" type="curve" smooth="yes"/>
      <point x="75" y="27"/>
      <point x="64" y="43"/>
      <point x="64" y="69" type="curve" smooth="yes"/>
      <point x="64" y="145"/>
      <point x="157" y="323"/>
      <point x="259" y="323" type="curve" smooth="yes"/>
      <point x="281" y="323"/>
      <point x="296" y="315"/>
      <point x="308" y="300" type="curve"/>
      <point x="313" y="310"/>
      <point x="316" y="318"/>
      <point x="316" y="326" type="curve" smooth="yes"/>
      <point x="316" y="348"/>
      <point x="295" y="367"/>
      <point x="255" y="367" type="curve" smooth="yes"/>
      <point x="126" y="367"/>
      <point x="-19" y="171"/>
      <point x="-19" y="58" type="curve" smooth="yes"/>
      <point x="-19" y="-2"/>
      <point x="22" y="-30"/>
    </contour>
  </outline>
</glyph>
<glyph name="divide" format="2">
  <advance width="491"/>
  <unicode hex="00F7"/>
  <outline>
    <contour>
      <point x="26" y="116" type="curve"/>
      <point x="112" y="127"/>
      <point x="170" y="128"/>
      <point x="228" y="128" type="curve" smooth="yes"/>
      <point x="340" y="128"/>
      <point x="384" y="139"/>
      <point x="428" y="169" type="curve"/>
      <point x="391" y="172"/>
      <point x="307" y="179"/>
      <point x="235" y="179" type="curve" smooth="yes"/>
      <point x="135" y="179"/>
      <point x="42" y="175"/>
    </contour>
    <contour>
      <point x="185" y="-15" type="curve" smooth="yes"/>
      <point x="214" y="-15"/>
      <point x="243" y="12"/>
      <point x="243" y="34" type="curve" smooth="yes"/>
      <point x="243" y="57"/>
      <point x="229" y="65"/>
      <point x="209" y="65" type="curve" smooth="yes"/>
      <point x="180" y="65"/>
      <point x="144" y="43"/>
      <point x="144" y="18" type="curve" smooth="yes"/>
      <point x="144" y="-5"/>
      <point x="165" y="-15"/>
    </contour>
    <contour>
      <point x="243" y="234" type="curve" smooth="yes"/>
      <point x="273" y="234"/>
      <point x="301" y="261"/>
      <point x="301" y="283" type="curve" smooth="yes"/>
      <point x="301" y="306"/>
      <point x="287" y="314"/>
      <point x="267" y="314" type="curve" smooth="yes"/>
      <point x="238" y="314"/>
      <point x="202" y="292"/>
      <point x="202" y="267" type="curve" smooth="yes"/>
      <point x="202" y="244"/>
      <point x="223" y="234"/>
    </contour>
  </outline>
</glyph>
<glyph name="oslash" format="2">
  <advance width="372"/>
  <unicode hex="00F8"/>
  <anchor x="246" y="352" name="topright"/>
  <outline>
    <contour>
      <point x="66" y="-32" type="curve" smooth="yes"/>
      <point x="126" y="-32"/>
      <point x="188" y="14"/>
      <point x="233" y="68" type="curve"/>
      <point x="248" y="63"/>
      <point x="266" y="59"/>
      <point x="283" y="59" type="curve" smooth="yes"/>
      <point x="330" y="59"/>
      <point x="383" y="89"/>
      <point x="413" y="157" type="curve"/>
      <point x="395" y="170" type="line"/>
      <point x="371" y="119"/>
      <point x="333" y="91"/>
      <point x="295" y="91" type="curve" smooth="yes"/>
      <point x="282" y="91"/>
      <point x="270" y="94"/>
      <point x="258" y="101" type="curve"/>
      <point x="294" y="156"/>
      <point x="324" y="221"/>
      <point x="324" y="271" type="curve" smooth="yes"/>
      <point x="324" y="283"/>
      <point x="322" y="295"/>
      <point x="319" y="305" type="curve"/>
      <point x="350" y="345"/>
      <point x="374" y="377"/>
      <point x="380" y="386" type="curve"/>
      <point x="372" y="388"/>
      <point x="363" y="389"/>
      <point x="356" y="389" type="curve" smooth="yes"/>
      <point x="335" y="389"/>
      <point x="318" y="383"/>
      <point x="312" y="374" type="curve" smooth="yes"/>
      <point x="304" y="363"/>
      <point x="296" y="353"/>
      <point x="288" y="342" type="curve"/>
      <point x="277" y="348"/>
      <point x="263" y="352"/>
      <point x="246" y="352" type="curve" smooth="yes"/>
      <point x="181" y="352"/>
      <point x="139" y="307"/>
      <point x="139" y="240" type="curve" smooth="yes"/>
      <point x="139" y="209"/>
      <point x="143" y="184"/>
      <point x="150" y="162" type="curve"/>
      <point x="123" y="127"/>
      <point x="94" y="93"/>
      <point x="68" y="62" type="curve"/>
      <point x="68" y="125"/>
      <point x="114" y="232"/>
      <point x="138" y="245" type="curve"/>
      <point x="126" y="250"/>
      <point x="118" y="254"/>
      <point x="108" y="254" type="curve" smooth="yes"/>
      <point x="48" y="254"/>
      <point x="-12" y="147"/>
      <point x="-12" y="62" type="curve" smooth="yes"/>
      <point x="-12" y="37"/>
      <point x="-7" y="13"/>
      <point x="6" y="-5" type="curve"/>
      <point x="-13" y="-25"/>
      <point x="-31" y="-40"/>
      <point x="-45" y="-48" type="curve"/>
      <point x="-39" y="-50"/>
      <point x="-33" y="-51"/>
      <point x="-26" y="-51" type="curve" smooth="yes"/>
      <point x="-5" y="-51"/>
      <point x="17" y="-43"/>
      <point x="40" y="-28" type="curve"/>
      <point x="47" y="-31"/>
      <point x="56" y="-32"/>
    </contour>
    <contour>
      <point x="198" y="90" type="curve"/>
      <point x="166" y="52"/>
      <point x="127" y="19"/>
      <point x="102" y="19" type="curve" smooth="yes"/>
      <point x="99" y="19"/>
      <point x="96" y="19"/>
      <point x="93" y="20" type="curve"/>
      <point x="117" y="47"/>
      <point x="141" y="80"/>
      <point x="172" y="119" type="curve"/>
      <point x="179" y="108"/>
      <point x="188" y="99"/>
    </contour>
    <contour>
      <point x="224" y="122" type="curve"/>
      <point x="216" y="131"/>
      <point x="209" y="145"/>
      <point x="205" y="160" type="curve"/>
      <point x="230" y="193"/>
      <point x="256" y="225"/>
      <point x="281" y="258" type="curve"/>
      <point x="277" y="215"/>
      <point x="253" y="163"/>
    </contour>
    <contour>
      <point x="266" y="312" type="curve"/>
      <point x="242" y="281"/>
      <point x="219" y="249"/>
      <point x="195" y="218" type="curve"/>
      <point x="195" y="274"/>
      <point x="228" y="315"/>
      <point x="254" y="315" type="curve" smooth="yes"/>
      <point x="258" y="315"/>
      <point x="263" y="314"/>
    </contour>
  </outline>
</glyph>
<glyph name="dcroat" format="2">
  <advance width="492"/>
  <unicode hex="0111"/>
  <outline>
    <contour>
      <point x="247" y="515" type="curve"/>
      <point x="300" y="524"/>
      <point x="342" y="528"/>
      <point x="520" y="529" type="curve" smooth="yes"/>
      <point x="550" y="529"/>
      <point x="597" y="536"/>
      <point x="647" y="570" type="curve"/>
      <point x="604" y="573"/>
      <point x="509" y="582"/>
      <point x="432" y="579" type="curve" smooth="yes"/>
      <point x="345" y="579"/>
      <point x="275" y="571"/>
    </contour>
    <component base="d"/>
  </outline>
</glyph>
<glyph name="hbar" format="2">
  <advance width="495"/>
  <unicode hex="0127"/>
  <outline>
    <contour>
      <point x="46" y="-38" type="curve" smooth="yes"/>
      <point x="125" y="-38"/>
      <point x="148" y="233"/>
      <point x="250" y="233" type="curve" smooth="yes"/>
      <point x="270" y="233"/>
      <point x="286" y="223"/>
      <point x="286" y="191" type="curve" smooth="yes"/>
      <point x="286" y="149"/>
      <point x="257" y="87"/>
      <point x="257" y="46" type="curve" smooth="yes"/>
      <point x="257" y="6"/>
      <point x="284" y="-24"/>
      <point x="335" y="-24" type="curve" smooth="yes"/>
      <point x="420" y="-24"/>
      <point x="491" y="59"/>
      <point x="537" y="160" type="curve"/>
      <point x="521" y="177" type="line"/>
      <point x="479" y="89"/>
      <point x="404" y="16"/>
      <point x="360" y="16" type="curve" smooth="yes"/>
      <point x="345" y="16"/>
      <point x="333" y="24"/>
      <point x="333" y="48" type="curve" smooth="yes"/>
      <point x="333" y="92"/>
      <point x="375" y="143"/>
      <point x="375" y="207" type="curve" smooth="yes"/>
      <point x="375" y="252"/>
      <point x="355" y="306"/>
      <point x="287" y="306" type="curve" smooth="yes"/>
      <point x="153" y="306"/>
      <point x="98" y="94"/>
      <point x="86" y="75" type="curve"/>
      <point x="85" y="84"/>
      <point x="85" y="96"/>
      <point x="85" y="106" type="curve" smooth="yes"/>
      <point x="85" y="266"/>
      <point x="209" y="553"/>
      <point x="355" y="707" type="curve"/>
      <point x="287" y="707"/>
      <point x="236" y="664"/>
      <point x="199" y="607" type="curve" smooth="yes"/>
      <point x="104" y="461"/>
      <point x="5" y="203"/>
      <point x="5" y="75" type="curve" smooth="yes"/>
      <point x="5" y="15"/>
      <point x="17" y="-38"/>
    </contour>
    <contour>
      <point x="28" y="515" type="curve"/>
      <point x="81" y="524"/>
      <point x="130" y="529"/>
      <point x="311" y="529" type="curve" smooth="yes"/>
      <point x="341" y="529"/>
      <point x="388" y="536"/>
      <point x="438" y="570" type="curve"/>
      <point x="395" y="573"/>
      <point x="300" y="580"/>
      <point x="223" y="579" type="curve" smooth="yes"/>
      <point x="131" y="577"/>
      <point x="57" y="571"/>
    </contour>
  </outline>
</glyph>
<glyph name="idotless" format="2">
  <advance width="244"/>
  <unicode hex="0131"/>
  <anchor x="220" y="10" name="ogonek"/>
  <outline>
    <contour>
      <point x="80" y="-30" type="curve" smooth="yes"/>
      <point x="163" y="-30"/>
      <point x="238" y="38"/>
      <point x="285" y="156" type="curve"/>
      <point x="270" y="172" type="line"/>
      <point x="212" y="58"/>
      <point x="158" y="19"/>
      <point x="113" y="19" type="curve" smooth="yes"/>
      <point x="84" y="19"/>
      <point x="68" y="29"/>
      <point x="68" y="72" type="curve" smooth="yes"/>
      <point x="68" y="160"/>
      <point x="171" y="277"/>
      <point x="171" y="311" type="curve" smooth="yes"/>
      <point x="171" y="330"/>
      <point x="157" y="340"/>
      <point x="141" y="340" type="curve" smooth="yes"/>
      <point x="66" y="340"/>
      <point x="-8" y="135"/>
      <point x="-8" y="59" type="curve" smooth="yes"/>
      <point x="-8" y="10"/>
      <point x="21" y="-30"/>
    </contour>
  </outline>
</glyph>
<glyph name="kgreenlandic" format="2">
  <advance width="391"/>
  <unicode hex="0138"/>
  <outline>
    <contour>
      <point x="240" y="-38" type="curve" smooth="yes"/>
      <point x="330" y="-38"/>
      <point x="397" y="60"/>
      <point x="433" y="161" type="curve"/>
      <point x="416" y="178" type="line"/>
      <point x="371" y="86"/>
      <point x="322" y="10"/>
      <point x="260" y="10" type="curve" smooth="yes"/>
      <point x="204" y="10"/>
      <point x="173" y="72"/>
      <point x="173" y="124" type="curve" smooth="yes"/>
      <point x="173" y="175"/>
      <point x="200" y="220"/>
      <point x="248" y="220" type="curve" smooth="yes"/>
      <point x="275" y="220"/>
      <point x="289" y="203"/>
      <point x="289" y="177" type="curve"/>
      <point x="329" y="179"/>
      <point x="362" y="195"/>
      <point x="362" y="239" type="curve" smooth="yes"/>
      <point x="362" y="269"/>
      <point x="338" y="292"/>
      <point x="297" y="292" type="curve" smooth="yes"/>
      <point x="223" y="292"/>
      <point x="154" y="225"/>
      <point x="100" y="156" type="curve"/>
      <point x="111" y="196"/>
      <point x="117" y="229"/>
      <point x="117" y="245" type="curve" smooth="yes"/>
      <point x="117" y="264"/>
      <point x="104" y="275"/>
      <point x="82" y="275" type="curve" smooth="yes"/>
      <point x="61" y="275"/>
      <point x="39" y="261"/>
      <point x="30" y="251" type="curve"/>
      <point x="30" y="165"/>
      <point x="-35" y="28"/>
      <point x="-38" y="14" type="curve"/>
      <point x="-22" y="-7"/>
      <point x="2" y="-15"/>
      <point x="27" y="-15" type="curve"/>
      <point x="56" y="33"/>
      <point x="99" y="104"/>
      <point x="145" y="155" type="curve"/>
      <point x="124" y="175" type="line"/>
      <point x="116" y="152"/>
      <point x="113" y="132"/>
      <point x="113" y="107" type="curve" smooth="yes"/>
      <point x="113" y="30"/>
      <point x="162" y="-38"/>
    </contour>
  </outline>
</glyph>
<glyph name="ldot" format="2">
  <advance width="336"/>
  <unicode hex="0140"/>
  <outline>
    <contour>
      <point x="105" y="-30" type="curve" smooth="yes"/>
      <point x="216" y="-30"/>
      <point x="329" y="63"/>
      <point x="417" y="201" type="curve"/>
      <point x="393" y="214" type="line"/>
      <point x="329" y="116"/>
      <point x="220" y="16"/>
      <point x="143" y="16" type="curve" smooth="yes"/>
      <point x="106" y="16"/>
      <point x="81" y="40"/>
      <point x="81" y="95" type="curve" smooth="yes"/>
      <point x="81" y="118"/>
      <point x="86" y="149"/>
      <point x="92" y="179" type="curve"/>
      <point x="244" y="299"/>
      <point x="362" y="551"/>
      <point x="362" y="640" type="curve" smooth="yes"/>
      <point x="362" y="671"/>
      <point x="345" y="720"/>
      <point x="320" y="720" type="curve" smooth="yes"/>
      <point x="244" y="720"/>
      <point x="2" y="279"/>
      <point x="2" y="86" type="curve" smooth="yes"/>
      <point x="2" y="23"/>
      <point x="33" y="-30"/>
    </contour>
    <contour>
      <point x="110" y="241" type="curve"/>
      <point x="167" y="422"/>
      <point x="292" y="635"/>
      <point x="316" y="629" type="curve" smooth="yes"/>
      <point x="322" y="628"/>
      <point x="319" y="616"/>
      <point x="318" y="608" type="curve" smooth="yes"/>
      <point x="303" y="527"/>
      <point x="213" y="353"/>
    </contour>
    <contour>
      <point x="318" y="292" type="curve" smooth="yes"/>
      <point x="352" y="292"/>
      <point x="374" y="333"/>
      <point x="374" y="349" type="curve" smooth="yes"/>
      <point x="374" y="373"/>
      <point x="356" y="378"/>
      <point x="341" y="378" type="curve" smooth="yes"/>
      <point x="314" y="378"/>
      <point x="277" y="351"/>
      <point x="277" y="329" type="curve" smooth="yes"/>
      <point x="277" y="311"/>
      <point x="286" y="292"/>
    </contour>
  </outline>
</glyph>
<glyph name="Eng" format="2">
  <advance width="698"/>
  <unicode hex="014A"/>
  <outline>
    <contour>
      <point x="250" y="-244" type="curve" smooth="yes"/>
      <point x="437" y="-244"/>
      <point x="531" y="-78"/>
      <point x="596" y="127" type="curve" smooth="yes"/>
      <point x="641" y="267"/>
      <point x="686" y="435"/>
      <point x="686" y="556" type="curve" smooth="yes"/>
      <point x="686" y="652"/>
      <point x="634" y="708"/>
      <point x="544" y="708" type="curve" smooth="yes"/>
      <point x="447" y="708"/>
      <point x="379" y="644"/>
      <point x="331" y="555" type="curve"/>
      <point x="346" y="594"/>
      <point x="356" y="639"/>
      <point x="356" y="665" type="curve" smooth="yes"/>
      <point x="356" y="693"/>
      <point x="343" y="720"/>
      <point x="300" y="720" type="curve" smooth="yes"/>
      <point x="217" y="720"/>
      <point x="90" y="616"/>
      <point x="90" y="526" type="curve" smooth="yes"/>
      <point x="90" y="487"/>
      <point x="113" y="460"/>
      <point x="169" y="460" type="curve"/>
      <point x="161" y="483"/>
      <point x="159" y="494"/>
      <point x="159" y="505" type="curve" smooth="yes"/>
      <point x="159" y="566"/>
      <point x="215" y="678"/>
      <point x="265" y="678" type="curve" smooth="yes"/>
      <point x="277" y="678"/>
      <point x="280" y="670"/>
      <point x="280" y="658" type="curve" smooth="yes"/>
      <point x="280" y="628"/>
      <point x="271" y="568"/>
      <point x="249" y="494" type="curve" smooth="yes"/>
      <point x="198" y="316"/>
      <point x="97" y="24"/>
      <point x="97" y="-40" type="curve" smooth="yes"/>
      <point x="97" y="-79"/>
      <point x="135" y="-99"/>
      <point x="181" y="-99" type="curve"/>
      <point x="211" y="45"/>
      <point x="254" y="205"/>
      <point x="309" y="393" type="curve" smooth="yes"/>
      <point x="339" y="496"/>
      <point x="404" y="654"/>
      <point x="514" y="654" type="curve" smooth="yes"/>
      <point x="574" y="654"/>
      <point x="597" y="607"/>
      <point x="597" y="545" type="curve" smooth="yes"/>
      <point x="597" y="441"/>
      <point x="561" y="313"/>
      <point x="509" y="132" type="curve" smooth="yes"/>
      <point x="442" y="-83"/>
      <point x="356" y="-210"/>
      <point x="209" y="-210" type="curve" smooth="yes"/>
      <point x="194" y="-210"/>
      <point x="187" y="-214"/>
      <point x="187" y="-221" type="curve" smooth="yes"/>
      <point x="187" y="-233"/>
      <point x="212" y="-244"/>
    </contour>
  </outline>
</glyph>
<glyph name="eng" format="2">
  <advance width="474"/>
  <unicode hex="014B"/>
  <outline>
    <contour>
      <point x="58" y="-212" type="curve" smooth="yes"/>
      <point x="243" y="-212"/>
      <point x="373" y="4"/>
      <point x="373" y="192" type="curve" smooth="yes"/>
      <point x="373" y="245"/>
      <point x="346" y="292"/>
      <point x="289" y="292" type="curve" smooth="yes"/>
      <point x="221" y="292"/>
      <point x="152" y="225"/>
      <point x="100" y="156" type="curve"/>
      <point x="111" y="196"/>
      <point x="117" y="229"/>
      <point x="117" y="245" type="curve" smooth="yes"/>
      <point x="117" y="264"/>
      <point x="104" y="275"/>
      <point x="82" y="275" type="curve" smooth="yes"/>
      <point x="61" y="275"/>
      <point x="39" y="261"/>
      <point x="30" y="251" type="curve"/>
      <point x="30" y="165"/>
      <point x="-35" y="28"/>
      <point x="-38" y="14" type="curve"/>
      <point x="-22" y="-7"/>
      <point x="2" y="-15"/>
      <point x="27" y="-15" type="curve"/>
      <point x="78" y="69"/>
      <point x="169" y="220"/>
      <point x="250" y="220" type="curve" smooth="yes"/>
      <point x="274" y="220"/>
      <point x="285" y="204"/>
      <point x="285" y="172" type="curve" smooth="yes"/>
      <point x="285" y="-5"/>
      <point x="166" y="-182"/>
      <point x="8" y="-182" type="curve" smooth="yes"/>
      <point x="-7" y="-182"/>
      <point x="-14" y="-184"/>
      <point x="-14" y="-190" type="curve" smooth="yes"/>
      <point x="-14" y="-203"/>
      <point x="18" y="-212"/>
    </contour>
  </outline>
</glyph>
<glyph name="oe" format="2">
  <advance width="553"/>
  <unicode hex="0153"/>
  <outline>
    <contour>
      <point x="56" y="-47" type="curve" smooth="yes"/>
      <point x="105" y="-47"/>
      <point x="149" y="-13"/>
      <point x="203" y="53" type="curve"/>
      <point x="211" y="1"/>
      <point x="250" y="-44"/>
      <point x="330" y="-44" type="curve" smooth="yes"/>
      <point x="437" y="-44"/>
      <point x="543" y="37"/>
      <point x="597" y="157" type="curve"/>
      <point x="580" y="172" type="line"/>
      <point x="530" y="78"/>
      <point x="437" y="-1"/>
      <point x="353" y="-1" type="curve" smooth="yes"/>
      <point x="291" y="-1"/>
      <point x="279" y="42"/>
      <point x="279" y="76" type="curve" smooth="yes"/>
      <point x="279" y="78"/>
      <point x="279" y="90"/>
      <point x="281" y="100" type="curve"/>
      <point x="401" y="113"/>
      <point x="533" y="193"/>
      <point x="533" y="294" type="curve" smooth="yes"/>
      <point x="533" y="347"/>
      <point x="496" y="360"/>
      <point x="463" y="360" type="curve" smooth="yes"/>
      <point x="418" y="360"/>
      <point x="364" y="336"/>
      <point x="323" y="305" type="curve"/>
      <point x="311" y="328"/>
      <point x="294" y="344"/>
      <point x="254" y="344" type="curve" smooth="yes"/>
      <point x="119" y="344"/>
      <point x="-28" y="158"/>
      <point x="-28" y="41" type="curve" smooth="yes"/>
      <point x="-28" y="-18"/>
      <point x="10" y="-47"/>
    </contour>
    <contour>
      <point x="78" y="6" type="curve" smooth="yes"/>
      <point x="64" y="6"/>
      <point x="53" y="14"/>
      <point x="53" y="35" type="curve" smooth="yes"/>
      <point x="53" y="85"/>
      <point x="89" y="165"/>
      <point x="134" y="222" type="curve"/>
      <point x="134" y="211"/>
      <point x="136" y="200"/>
      <point x="138" y="190" type="curve" smooth="yes"/>
      <point x="146" y="155"/>
      <point x="168" y="124"/>
      <point x="204" y="111" type="curve"/>
      <point x="203" y="105" type="line"/>
      <point x="183" y="71"/>
      <point x="112" y="6"/>
    </contour>
    <contour>
      <point x="215" y="152" type="curve"/>
      <point x="196" y="166"/>
      <point x="184" y="181"/>
      <point x="184" y="207" type="curve" smooth="yes"/>
      <point x="184" y="251"/>
      <point x="217" y="306"/>
      <point x="256" y="306" type="curve" smooth="yes"/>
      <point x="276" y="306"/>
      <point x="290" y="292"/>
      <point x="296" y="277" type="curve"/>
      <point x="259" y="241"/>
      <point x="232" y="196"/>
    </contour>
    <contour>
      <point x="291" y="137" type="curve"/>
      <point x="319" y="219"/>
      <point x="399" y="315"/>
      <point x="459" y="315" type="curve" smooth="yes"/>
      <point x="473" y="315"/>
      <point x="476" y="310"/>
      <point x="476" y="299" type="curve" smooth="yes"/>
      <point x="476" y="229"/>
      <point x="365" y="164"/>
    </contour>
  </outline>
</glyph>
<glyph name="tbar" format="2">
  <advance width="289"/>
  <unicode hex="0167"/>
  <outline>
    <contour>
      <point x="91" y="-46" type="curve" smooth="yes"/>
      <point x="187" y="-46"/>
      <point x="279" y="45"/>
      <point x="332" y="164" type="curve"/>
      <point x="318" y="174" type="line"/>
      <point x="266" y="70"/>
      <point x="190" y="5"/>
      <point x="124" y="5" type="curve" smooth="yes"/>
      <point x="87" y="5"/>
      <point x="70" y="25"/>
      <point x="70" y="80" type="curve" smooth="yes"/>
      <point x="70" y="144"/>
      <point x="89" y="206"/>
      <point x="134" y="306" type="curve" smooth="yes"/>
      <point x="190" y="424"/>
      <point x="269" y="527"/>
      <point x="269" y="568" type="curve" smooth="yes"/>
      <point x="269" y="586"/>
      <point x="254" y="597"/>
      <point x="241" y="597" type="curve" smooth="yes"/>
      <point x="195" y="597"/>
      <point x="114" y="457"/>
      <point x="56" y="310" type="curve" smooth="yes"/>
      <point x="17" y="203"/>
      <point x="-7" y="114"/>
      <point x="-7" y="59" type="curve" smooth="yes"/>
      <point x="-7" y="-12"/>
      <point x="32" y="-46"/>
    </contour>
    <contour>
      <point x="181" y="223" type="curve" smooth="yes"/>
      <point x="217" y="223"/>
      <point x="251" y="227"/>
      <point x="281" y="251" type="curve"/>
      <point x="226" y="259"/>
      <point x="110" y="271"/>
      <point x="59" y="271" type="curve" smooth="yes"/>
      <point x="1" y="271"/>
      <point x="-30" y="260"/>
      <point x="-40" y="231" type="curve"/>
      <point x="-26" y="234"/>
      <point x="-6" y="235"/>
      <point x="15" y="235" type="curve" smooth="yes"/>
      <point x="75" y="235"/>
      <point x="150" y="223"/>
    </contour>
    <contour>
      <point x="124" y="318" type="curve"/>
      <point x="183" y="318"/>
      <point x="246" y="322"/>
      <point x="325" y="330" type="curve"/>
      <point x="325" y="363" type="line"/>
      <point x="259" y="358"/>
      <point x="194" y="356"/>
      <point x="111" y="356" type="curve" smooth="yes"/>
      <point x="81" y="356"/>
      <point x="55" y="359"/>
      <point x="15" y="364" type="curve"/>
      <point x="15" y="333" type="line"/>
      <point x="37" y="326"/>
      <point x="79" y="318"/>
    </contour>
  </outline>
</glyph>
<glyph name="jdotless" format="2">
  <advance width="228"/>
  <unicode hex="0237"/>
  <outline>
    <contour>
      <point x="-134" y="-280" type="curve" smooth="yes"/>
      <point x="-48" y="-280"/>
      <point x="22" y="-160"/>
      <point x="67" y="-39" type="curve"/>
      <point x="129" y="0"/>
      <point x="205" y="25"/>
      <point x="268" y="154" type="curve"/>
      <point x="250" y="166" type="line"/>
      <point x="194" y="71"/>
      <point x="140" y="38"/>
      <point x="83" y="6" type="curve"/>
      <point x="129" y="143"/>
      <point x="155" y="284"/>
      <point x="155" y="313" type="curve" smooth="yes"/>
      <point x="155" y="334"/>
      <point x="142" y="350"/>
      <point x="124" y="350" type="curve" smooth="yes"/>
      <point x="74" y="350"/>
      <point x="54" y="230"/>
      <point x="5" y="140" type="curve"/>
      <point x="22" y="113" type="line"/>
      <point x="33" y="133"/>
      <point x="46" y="151"/>
      <point x="57" y="170" type="curve"/>
      <point x="42" y="90"/>
      <point x="22" y="22"/>
      <point x="0" y="-33" type="curve"/>
      <point x="-23" y="-42"/>
      <point x="-44" y="-52"/>
      <point x="-65" y="-64" type="curve" smooth="yes"/>
      <point x="-143" y="-108"/>
      <point x="-197" y="-169"/>
      <point x="-197" y="-221" type="curve" smooth="yes"/>
      <point x="-197" y="-256"/>
      <point x="-173" y="-280"/>
    </contour>
    <contour>
      <point x="-145" y="-232" type="curve" smooth="yes"/>
      <point x="-152" y="-232"/>
      <point x="-157" y="-228"/>
      <point x="-157" y="-215" type="curve" smooth="yes"/>
      <point x="-157" y="-179"/>
      <point x="-112" y="-130"/>
      <point x="-23" y="-85" type="curve"/>
      <point x="-71" y="-183"/>
      <point x="-121" y="-232"/>
    </contour>
  </outline>
</glyph>
<glyph name="schwa" format="2">
  <advance width="440"/>
  <unicode hex="0259"/>
  <outline>
    <contour>
      <point x="132" y="-44" type="curve" smooth="yes"/>
      <point x="255" y="-44"/>
      <point x="388" y="122"/>
      <point x="388" y="240" type="curve" smooth="yes"/>
      <point x="388" y="309"/>
      <point x="340" y="361"/>
      <point x="251" y="361" type="curve" smooth="yes"/>
      <point x="158" y="361"/>
      <point x="75" y="306"/>
      <point x="75" y="246" type="curve" smooth="yes"/>
      <point x="75" y="222"/>
      <point x="97" y="209"/>
      <point x="119" y="207" type="curve"/>
      <point x="142" y="279"/>
      <point x="184" y="318"/>
      <point x="242" y="318" type="curve" smooth="yes"/>
      <point x="291" y="318"/>
      <point x="310" y="280"/>
      <point x="310" y="240" type="curve" smooth="yes"/>
      <point x="310" y="159"/>
      <point x="215" y="-1"/>
      <point x="132" y="-1" type="curve" smooth="yes"/>
      <point x="116" y="-1"/>
      <point x="106" y="8"/>
      <point x="106" y="25" type="curve" smooth="yes"/>
      <point x="106" y="97"/>
      <point x="234" y="178"/>
      <point x="305" y="181" type="curve"/>
      <point x="319" y="218" type="line"/>
      <point x="189" y="209"/>
      <point x="42" y="132"/>
      <point x="42" y="34" type="curve" smooth="yes"/>
      <point x="42" y="-15"/>
      <point x="77" y="-44"/>
    </contour>
  </outline>
</glyph>
<glyph name="commaturnedabovecomb" format="2">
  <unicode hex="0312"/>
  <outline>
    <contour>
      <point x="25" y="385" type="curve" smooth="yes"/>
      <point x="33" y="385"/>
      <point x="39" y="387"/>
      <point x="44" y="391" type="curve"/>
      <point x="60" y="429"/>
      <point x="84" y="476"/>
      <point x="108" y="511" type="curve"/>
      <point x="102" y="516"/>
      <point x="96" y="519"/>
      <point x="87" y="519" type="curve" smooth="yes"/>
      <point x="49" y="519"/>
      <point x="-5" y="457"/>
      <point x="-5" y="418" type="curve" smooth="yes"/>
      <point x="-5" y="396"/>
      <point x="11" y="385"/>
    </contour>
  </outline>
</glyph>
<glyph name="Germandbls" format="2">
  <advance width="600"/>
  <unicode hex="1E9E"/>
  <outline>
    <contour>
      <point x="133" y="-87" type="curve" smooth="yes"/>
      <point x="283" y="-87"/>
      <point x="568" y="10"/>
      <point x="568" y="205" type="curve" smooth="yes"/>
      <point x="568" y="277"/>
      <point x="539" y="369"/>
      <point x="363" y="378" type="curve"/>
      <point x="434" y="434"/>
      <point x="493" y="495"/>
      <point x="536" y="552" type="curve" smooth="yes"/>
      <point x="555" y="576"/>
      <point x="570" y="604"/>
      <point x="570" y="631" type="curve" smooth="yes"/>
      <point x="570" y="679"/>
      <point x="506" y="720"/>
      <point x="425" y="720" type="curve" smooth="yes"/>
      <point x="325" y="720"/>
      <point x="255" y="677"/>
      <point x="189" y="520" type="curve" smooth="yes"/>
      <point x="123" y="363"/>
      <point x="59" y="177"/>
      <point x="44" y="131" type="curve" smooth="yes"/>
      <point x="39" y="114"/>
      <point x="30" y="90"/>
      <point x="30" y="74" type="curve" smooth="yes"/>
      <point x="30" y="46"/>
      <point x="63" y="24"/>
      <point x="104" y="24" type="curve"/>
      <point x="134" y="132"/>
      <point x="165" y="243"/>
      <point x="199" y="354" type="curve" smooth="yes"/>
      <point x="222" y="433"/>
      <point x="242" y="494"/>
      <point x="262" y="547" type="curve" smooth="yes"/>
      <point x="299" y="646"/>
      <point x="357" y="685"/>
      <point x="425" y="685" type="curve" smooth="yes"/>
      <point x="469" y="685"/>
      <point x="510" y="669"/>
      <point x="510" y="641" type="curve" smooth="yes"/>
      <point x="510" y="619"/>
      <point x="500" y="597"/>
      <point x="486" y="577" type="curve" smooth="yes"/>
      <point x="447" y="520"/>
      <point x="385" y="453"/>
      <point x="316" y="392" type="curve" smooth="yes"/>
      <point x="307" y="384"/>
      <point x="303" y="378"/>
      <point x="303" y="370" type="curve" smooth="yes"/>
      <point x="303" y="357"/>
      <point x="313" y="349"/>
      <point x="341" y="349" type="curve" smooth="yes"/>
      <point x="428" y="349"/>
      <point x="506" y="320"/>
      <point x="506" y="229" type="curve" smooth="yes"/>
      <point x="506" y="112"/>
      <point x="342" y="0"/>
      <point x="118" y="0" type="curve" smooth="yes"/>
      <point x="49" y="0"/>
      <point x="32" y="9"/>
      <point x="20" y="9" type="curve" smooth="yes"/>
      <point x="13" y="9"/>
      <point x="9" y="6"/>
      <point x="9" y="-1" type="curve" smooth="yes"/>
      <point x="9" y="-62"/>
      <point x="52" y="-87"/>
    </contour>
  </outline>
</glyph>
<glyph name="endash" format="2">
  <advance width="755"/>
  <unicode hex="2013"/>
  <outline>
    <contour>
      <point x="50" y="105" type="curve"/>
      <point x="102" y="123"/>
      <point x="162" y="128"/>
      <point x="255" y="128" type="curve" smooth="yes"/>
      <point x="316" y="128"/>
      <point x="346" y="120"/>
      <point x="485" y="120" type="curve" smooth="yes"/>
      <point x="525" y="120"/>
      <point x="589" y="135"/>
      <point x="658" y="180" type="curve"/>
      <point x="530" y="183"/>
      <point x="491" y="199"/>
      <point x="307" y="199" type="curve" smooth="yes"/>
      <point x="122" y="199"/>
      <point x="61" y="183"/>
    </contour>
  </outline>
</glyph>
<glyph name="quoteleft" format="2">
  <advance width="183"/>
  <unicode hex="2018"/>
  <outline>
    <contour>
      <point x="221" y="573" type="curve"/>
      <point x="237" y="582"/>
      <point x="255" y="598"/>
      <point x="255" y="614" type="curve" smooth="yes"/>
      <point x="255" y="646"/>
      <point x="197" y="687"/>
      <point x="185" y="724" type="curve"/>
      <point x="166" y="724"/>
      <point x="147" y="707"/>
      <point x="147" y="689" type="curve" smooth="yes"/>
      <point x="148" y="660"/>
      <point x="196" y="610"/>
    </contour>
  </outline>
</glyph>
<glyph name="quotedblright" format="2">
  <advance width="290"/>
  <unicode hex="201D"/>
  <outline>
    <contour>
      <point x="302" y="573" type="curve"/>
      <point x="327" y="610"/>
      <point x="375" y="660"/>
      <point x="376" y="689" type="curve" smooth="yes"/>
      <point x="376" y="707"/>
      <point x="357" y="724"/>
      <point x="338" y="724" type="curve"/>
      <point x="326" y="687"/>
      <point x="268" y="646"/>
      <point x="268" y="614" type="curve" smooth="yes"/>
      <point x="268" y="598"/>
      <point x="286" y="582"/>
    </contour>
    <contour>
      <point x="178" y="573" type="curve"/>
      <point x="203" y="610"/>
      <point x="251" y="660"/>
      <point x="252" y="689" type="curve" smooth="yes"/>
      <point x="252" y="707"/>
      <point x="233" y="724"/>
      <point x="214" y="724" type="curve"/>
      <point x="202" y="687"/>
      <point x="144" y="646"/>
      <point x="144" y="614" type="curve" smooth="yes"/>
      <point x="144" y="598"/>
      <point x="162" y="582"/>
    </contour>
  </outline>
</glyph>
<glyph name="quotedblbase" format="2">
  <advance width="326"/>
  <unicode hex="201E"/>
  <outline>
    <contour>
      <point x="142" y="-88" type="curve"/>
      <point x="166" y="-39"/>
      <point x="178" y="-10"/>
      <point x="210" y="26" type="curve"/>
      <point x="210" y="43"/>
      <point x="195" y="59"/>
      <point x="178" y="59" type="curve" smooth="yes"/>
      <point x="145" y="59"/>
      <point x="115" y="-4"/>
      <point x="115" y="-44" type="curve" smooth="yes"/>
      <point x="115" y="-61"/>
      <point x="124" y="-77"/>
    </contour>
    <contour>
      <point x="32" y="-88" type="curve"/>
      <point x="56" y="-39"/>
      <point x="68" y="-10"/>
      <point x="100" y="26" type="curve"/>
      <point x="100" y="43"/>
      <point x="85" y="59"/>
      <point x="68" y="59" type="curve" smooth="yes"/>
      <point x="35" y="59"/>
      <point x="5" y="-4"/>
      <point x="5" y="-44" type="curve" smooth="yes"/>
      <point x="5" y="-61"/>
      <point x="14" y="-77"/>
    </contour>
  </outline>
</glyph>
<glyph name="colonsign" format="2">
  <advance width="600"/>
  <unicode hex="20A1"/>
  <outline>
    <contour>
      <point x="250" y="-56" type="curve" smooth="yes"/>
      <point x="392" y="-56"/>
      <point x="507" y="42"/>
      <point x="577" y="160" type="curve"/>
      <point x="551" y="175" type="line"/>
      <point x="497" y="76"/>
      <point x="382" y="-13"/>
      <point x="274" y="-13" type="curve" smooth="yes"/>
      <point x="169" y="-13"/>
      <point x="129" y="69"/>
      <point x="129" y="154" type="curve" smooth="yes"/>
      <point x="129" y="346"/>
      <point x="311" y="615"/>
      <point x="454" y="615" type="curve" smooth="yes"/>
      <point x="487" y="615"/>
      <point x="499" y="602"/>
      <point x="499" y="581" type="curve" smooth="yes"/>
      <point x="499" y="538"/>
      <point x="457" y="465"/>
      <point x="457" y="432" type="curve" smooth="yes"/>
      <point x="457" y="401"/>
      <point x="481" y="389"/>
      <point x="505" y="383" type="curve"/>
      <point x="534" y="435"/>
      <point x="561" y="503"/>
      <point x="561" y="574" type="curve" smooth="yes"/>
      <point x="561" y="632"/>
      <point x="516" y="654"/>
      <point x="457" y="654" type="curve" smooth="yes"/>
      <point x="252" y="654"/>
      <point x="32" y="393"/>
      <point x="32" y="162" type="curve" smooth="yes"/>
      <point x="32" y="54"/>
      <point x="97" y="-56"/>
    </contour>
    <contour>
      <point x="81" y="-162" type="curve"/>
      <point x="199" y="-162"/>
      <point x="222" y="24"/>
      <point x="278" y="303" type="curve" smooth="yes"/>
      <point x="306" y="443"/>
      <point x="327" y="581"/>
      <point x="352" y="720" type="curve"/>
      <point x="309" y="710"/>
      <point x="303" y="695"/>
      <point x="288" y="632" type="curve" smooth="yes"/>
      <point x="270" y="555"/>
      <point x="250" y="438"/>
      <point x="225" y="321" type="curve" smooth="yes"/>
      <point x="186" y="138"/>
      <point x="132" y="-98"/>
    </contour>
    <contour>
      <point x="191" y="-162" type="curve"/>
      <point x="309" y="-162"/>
      <point x="333" y="16"/>
      <point x="388" y="303" type="curve" smooth="yes"/>
      <point x="415" y="443"/>
      <point x="437" y="581"/>
      <point x="462" y="720" type="curve"/>
      <point x="419" y="710"/>
      <point x="413" y="695"/>
      <point x="398" y="632" type="curve" smooth="yes"/>
      <point x="380" y="555"/>
      <point x="360" y="438"/>
      <point x="335" y="321" type="curve" smooth="yes"/>
      <point x="296" y="138"/>
      <point x="242" y="-98"/>
    </contour>
  </outline>
</glyph>
<glyph name="lira" format="2">
  <advance width="692"/>
  <unicode hex="20A4"/>
  <outline>
    <contour>
      <point x="491" y="-87" type="curve" smooth="yes"/>
      <point x="546" y="-87"/>
      <point x="584" y="-57"/>
      <point x="611" y="18" type="curve"/>
      <point x="580" y="3"/>
      <point x="555" y="-4"/>
      <point x="522" y="-4" type="curve" smooth="yes"/>
      <point x="452" y="-4"/>
      <point x="345" y="28"/>
      <point x="258" y="54" type="curve"/>
      <point x="280" y="86"/>
      <point x="299" y="126"/>
      <point x="318" y="169" type="curve"/>
      <point x="472" y="172"/>
      <point x="493" y="173"/>
      <point x="526" y="217" type="curve"/>
      <point x="456" y="219"/>
      <point x="407" y="227"/>
      <point x="343" y="232" type="curve"/>
      <point x="357" y="268" type="line"/>
      <point x="492" y="270"/>
      <point x="512" y="272"/>
      <point x="545" y="316" type="curve"/>
      <point x="479" y="316"/>
      <point x="436" y="324"/>
      <point x="378" y="329" type="curve"/>
      <point x="384" y="350"/>
      <point x="388" y="361"/>
      <point x="395" y="380" type="curve"/>
      <point x="585" y="380"/>
      <point x="660" y="521"/>
      <point x="660" y="612" type="curve" smooth="yes"/>
      <point x="660" y="698"/>
      <point x="593" y="720"/>
      <point x="550" y="720" type="curve" smooth="yes"/>
      <point x="443" y="720"/>
      <point x="380" y="585"/>
      <point x="329" y="429" type="curve"/>
      <point x="297" y="448"/>
      <point x="277" y="480"/>
      <point x="277" y="524" type="curve" smooth="yes"/>
      <point x="277" y="543"/>
      <point x="281" y="569"/>
      <point x="296" y="589" type="curve"/>
      <point x="243" y="589"/>
      <point x="213" y="541"/>
      <point x="213" y="502" type="curve" smooth="yes"/>
      <point x="213" y="458"/>
      <point x="253" y="415"/>
      <point x="317" y="394" type="curve"/>
      <point x="296" y="332" type="line"/>
      <point x="214" y="332"/>
      <point x="135" y="301"/>
      <point x="135" y="263" type="curve"/>
      <point x="182" y="268"/>
      <point x="262" y="265"/>
      <point x="275" y="263" type="curve"/>
      <point x="266" y="234" type="line"/>
      <point x="188" y="232"/>
      <point x="126" y="213"/>
      <point x="123" y="150" type="curve"/>
      <point x="189" y="159"/>
      <point x="210" y="161"/>
      <point x="242" y="165" type="curve"/>
      <point x="229" y="129"/>
      <point x="213" y="97"/>
      <point x="198" y="70" type="curve"/>
      <point x="152" y="82"/>
      <point x="108" y="90"/>
      <point x="72" y="90" type="curve" smooth="yes"/>
      <point x="10" y="90"/>
      <point x="-10" y="66"/>
      <point x="-10" y="40" type="curve" smooth="yes"/>
      <point x="-10" y="3"/>
      <point x="32" y="-53"/>
      <point x="103" y="-53" type="curve" smooth="yes"/>
      <point x="147" y="-53"/>
      <point x="185" y="-32"/>
      <point x="219" y="4" type="curve"/>
      <point x="310" y="-34"/>
      <point x="417" y="-87"/>
    </contour>
    <contour>
      <point x="89" y="-18" type="curve" smooth="yes"/>
      <point x="52" y="-18"/>
      <point x="21" y="16"/>
      <point x="21" y="31" type="curve" smooth="yes"/>
      <point x="21" y="43"/>
      <point x="39" y="50"/>
      <point x="61" y="50" type="curve" smooth="yes"/>
      <point x="88" y="50"/>
      <point x="126" y="39"/>
      <point x="167" y="24" type="curve"/>
      <point x="147" y="2"/>
      <point x="117" y="-18"/>
    </contour>
    <contour>
      <point x="406" y="413" type="curve"/>
      <point x="454" y="558"/>
      <point x="499" y="681"/>
      <point x="558" y="681" type="curve" smooth="yes"/>
      <point x="575" y="681"/>
      <point x="591" y="671"/>
      <point x="591" y="636" type="curve" smooth="yes"/>
      <point x="591" y="564"/>
      <point x="522" y="422"/>
    </contour>
  </outline>
</glyph>
<glyph name="peso" format="2">
  <advance width="711"/>
  <unicode hex="20B1"/>
  <outline>
    <contour>
      <point x="117" y="-56" type="curve"/>
      <point x="239" y="315"/>
      <point x="275" y="473"/>
      <point x="363" y="624" type="curve"/>
      <point x="455" y="620"/>
      <point x="545" y="574"/>
      <point x="545" y="469" type="curve" smooth="yes"/>
      <point x="545" y="311"/>
      <point x="353" y="246"/>
      <point x="181" y="239" type="curve"/>
      <point x="173" y="203" type="line"/>
      <point x="186" y="203" type="line" smooth="yes"/>
      <point x="266" y="203"/>
      <point x="628" y="228"/>
      <point x="628" y="454" type="curve" smooth="yes"/>
      <point x="628" y="588"/>
      <point x="475" y="655"/>
      <point x="349" y="655" type="curve" smooth="yes"/>
      <point x="260" y="655"/>
      <point x="169" y="626"/>
      <point x="114" y="605" type="curve"/>
      <point x="114" y="593"/>
      <point x="141" y="571"/>
      <point x="152" y="571" type="curve" smooth="yes"/>
      <point x="167" y="571"/>
      <point x="210" y="602"/>
      <point x="286" y="617" type="curve"/>
      <point x="185" y="420"/>
      <point x="130" y="266"/>
      <point x="47" y="44" type="curve" smooth="yes"/>
      <point x="41" y="28"/>
      <point x="34" y="10"/>
      <point x="34" y="-5" type="curve" smooth="yes"/>
      <point x="34" y="-34"/>
      <point x="77" y="-56"/>
    </contour>
    <contour>
      <point x="101" y="330" type="curve"/>
      <point x="157" y="342"/>
      <point x="224" y="346"/>
      <point x="349" y="346" type="curve" smooth="yes"/>
      <point x="567" y="346"/>
      <point x="657" y="350"/>
      <point x="668" y="397" type="curve"/>
      <point x="562" y="403"/>
      <point x="453" y="405"/>
      <point x="321" y="405" type="curve" smooth="yes"/>
      <point x="214" y="405"/>
      <point x="104" y="378"/>
    </contour>
    <contour>
      <point x="138" y="460" type="curve"/>
      <point x="194" y="472"/>
      <point x="261" y="476"/>
      <point x="386" y="476" type="curve" smooth="yes"/>
      <point x="590" y="476"/>
      <point x="675" y="480"/>
      <point x="685" y="527" type="curve"/>
      <point x="585" y="533"/>
      <point x="482" y="535"/>
      <point x="358" y="535" type="curve" smooth="yes"/>
      <point x="251" y="535"/>
      <point x="141" y="508"/>
    </contour>
  </outline>
</glyph>
<glyph name="guarani" format="2">
  <advance width="586"/>
  <unicode hex="20B2"/>
  <outline>
    <contour>
      <point x="488" y="-61" type="curve"/>
      <point x="487" y="-25"/>
      <point x="485" y="-2"/>
      <point x="485" y="22" type="curve" smooth="yes"/>
      <point x="485" y="77"/>
      <point x="496" y="110"/>
      <point x="552" y="262" type="curve"/>
      <point x="511" y="282"/>
      <point x="468" y="300"/>
      <point x="428" y="300" type="curve" smooth="yes"/>
      <point x="393" y="300"/>
      <point x="367" y="281"/>
      <point x="363" y="245" type="curve"/>
      <point x="379" y="246"/>
      <point x="394" y="247"/>
      <point x="408" y="247" type="curve" smooth="yes"/>
      <point x="429" y="247"/>
      <point x="444" y="244"/>
      <point x="461" y="237" type="curve"/>
      <point x="450" y="126"/>
      <point x="372" y="-13"/>
      <point x="262" y="-13" type="curve" smooth="yes"/>
      <point x="188" y="-13"/>
      <point x="128" y="49"/>
      <point x="128" y="156" type="curve" smooth="yes"/>
      <point x="128" y="342"/>
      <point x="312" y="615"/>
      <point x="463" y="615" type="curve" smooth="yes"/>
      <point x="501" y="615"/>
      <point x="517" y="597"/>
      <point x="517" y="574" type="curve" smooth="yes"/>
      <point x="517" y="531"/>
      <point x="466" y="464"/>
      <point x="437" y="446" type="curve"/>
      <point x="450" y="424"/>
      <point x="463" y="417"/>
      <point x="479" y="417" type="curve" smooth="yes"/>
      <point x="531" y="417"/>
      <point x="573" y="487"/>
      <point x="573" y="550" type="curve" smooth="yes"/>
      <point x="573" y="604"/>
      <point x="541" y="654"/>
      <point x="454" y="654" type="curve" smooth="yes"/>
      <point x="252" y="654"/>
      <point x="32" y="391"/>
      <point x="32" y="165" type="curve" smooth="yes"/>
      <point x="32" y="25"/>
      <point x="125" y="-56"/>
      <point x="238" y="-56" type="curve" smooth="yes"/>
      <point x="314" y="-56"/>
      <point x="374" y="-19"/>
      <point x="421" y="31" type="curve"/>
      <point x="420" y="25"/>
      <point x="420" y="19"/>
      <point x="420" y="13" type="curve" smooth="yes"/>
      <point x="420" y="-17"/>
      <point x="427" y="-55"/>
    </contour>
    <contour>
      <point x="131" y="-162" type="curve"/>
      <point x="254" y="-162"/>
      <point x="284" y="16"/>
      <point x="336" y="303" type="curve" smooth="yes"/>
      <point x="361" y="442"/>
      <point x="380" y="581"/>
      <point x="402" y="720" type="curve"/>
      <point x="359" y="710"/>
      <point x="353" y="695"/>
      <point x="338" y="632" type="curve" smooth="yes"/>
      <point x="320" y="555"/>
      <point x="300" y="438"/>
      <point x="275" y="321" type="curve" smooth="yes"/>
      <point x="236" y="138"/>
      <point x="182" y="-98"/>
    </contour>
  </outline>
</glyph>
<glyph name="cedi" format="2">
  <advance width="571"/>
  <unicode hex="20B5"/>
  <outline>
    <contour>
      <point x="250" y="-56" type="curve" smooth="yes"/>
      <point x="392" y="-56"/>
      <point x="507" y="42"/>
      <point x="577" y="160" type="curve"/>
      <point x="551" y="175" type="line"/>
      <point x="497" y="76"/>
      <point x="382" y="-13"/>
      <point x="274" y="-13" type="curve" smooth="yes"/>
      <point x="169" y="-13"/>
      <point x="129" y="69"/>
      <point x="129" y="154" type="curve" smooth="yes"/>
      <point x="129" y="346"/>
      <point x="311" y="615"/>
      <point x="454" y="615" type="curve" smooth="yes"/>
      <point x="487" y="615"/>
      <point x="499" y="602"/>
      <point x="499" y="581" type="curve" smooth="yes"/>
      <point x="499" y="538"/>
      <point x="457" y="465"/>
      <point x="457" y="432" type="curve" smooth="yes"/>
      <point x="457" y="401"/>
      <point x="481" y="389"/>
      <point x="505" y="383" type="curve"/>
      <point x="534" y="435"/>
      <point x="561" y="503"/>
      <point x="561" y="574" type="curve" smooth="yes"/>
      <point x="561" y="632"/>
      <point x="516" y="654"/>
      <point x="457" y="654" type="curve" smooth="yes"/>
      <point x="252" y="654"/>
      <point x="32" y="393"/>
      <point x="32" y="162" type="curve" smooth="yes"/>
      <point x="32" y="54"/>
      <point x="97" y="-56"/>
    </contour>
    <contour>
      <point x="161" y="-162" type="curve"/>
      <point x="284" y="-162"/>
      <point x="314" y="16"/>
      <point x="366" y="303" type="curve" smooth="yes"/>
      <point x="391" y="442"/>
      <point x="410" y="581"/>
      <point x="432" y="720" type="curve"/>
      <point x="389" y="710"/>
      <point x="383" y="695"/>
      <point x="368" y="632" type="curve" smooth="yes"/>
      <point x="350" y="555"/>
      <point x="330" y="438"/>
      <point x="305" y="321" type="curve" smooth="yes"/>
      <point x="266" y="138"/>
      <point x="212" y="-98"/>
    </contour>
  </outline>
</glyph>
<glyph name="rupeeIndian" format="2">
  <advance width="633"/>
  <unicode hex="20B9"/>
  <outline>
    <contour>
      <point x="441" y="-84" type="curve" smooth="yes"/>
      <point x="462" y="-84"/>
      <point x="496" y="-70"/>
      <point x="502" y="-46" type="curve"/>
      <point x="331" y="69"/>
      <point x="265" y="175"/>
      <point x="179" y="294" type="curve"/>
      <point x="274" y="296"/>
      <point x="558" y="319"/>
      <point x="558" y="486" type="curve" smooth="yes"/>
      <point x="558" y="575"/>
      <point x="478" y="624"/>
      <point x="387" y="645" type="curve"/>
      <point x="393" y="617" type="line"/>
      <point x="477" y="608"/>
      <point x="526" y="597"/>
      <point x="592" y="597" type="curve" smooth="yes"/>
      <point x="639" y="597"/>
      <point x="660" y="623"/>
      <point x="669" y="656" type="curve"/>
      <point x="637" y="651"/>
      <point x="604" y="649"/>
      <point x="572" y="649" type="curve" smooth="yes"/>
      <point x="490" y="649"/>
      <point x="407" y="662"/>
      <point x="325" y="662" type="curve" smooth="yes"/>
      <point x="228" y="662"/>
      <point x="148" y="643"/>
      <point x="80" y="606" type="curve"/>
      <point x="80" y="593"/>
      <point x="109" y="572"/>
      <point x="120" y="572" type="curve" smooth="yes"/>
      <point x="161" y="572"/>
      <point x="211" y="623"/>
      <point x="330" y="623" type="curve" smooth="yes"/>
      <point x="420" y="623"/>
      <point x="475" y="574"/>
      <point x="475" y="503" type="curve" smooth="yes"/>
      <point x="475" y="380"/>
      <point x="310" y="320"/>
      <point x="162" y="320" type="curve" smooth="yes"/>
      <point x="138" y="320"/>
      <point x="127" y="310"/>
      <point x="127" y="295" type="curve" smooth="yes"/>
      <point x="127" y="284"/>
      <point x="132" y="272"/>
      <point x="138" y="262" type="curve" smooth="yes"/>
      <point x="203" y="144"/>
      <point x="358" y="-84"/>
    </contour>
    <contour>
      <point x="135" y="434" type="curve"/>
      <point x="193" y="446"/>
      <point x="263" y="450"/>
      <point x="393" y="450" type="curve" smooth="yes"/>
      <point x="563" y="450"/>
      <point x="634" y="454"/>
      <point x="642" y="501" type="curve"/>
      <point x="557" y="507"/>
      <point x="470" y="509"/>
      <point x="365" y="509" type="curve" smooth="yes"/>
      <point x="253" y="509"/>
      <point x="139" y="482"/>
    </contour>
  </outline>
</glyph>
<glyph name="manat" format="2">
  <advance width="724"/>
  <unicode hex="20BC"/>
  <outline>
    <contour>
      <point x="406" y="-54" type="curve" smooth="yes"/>
      <point x="548" y="-54"/>
      <point x="644" y="144"/>
      <point x="644" y="294" type="curve" smooth="yes"/>
      <point x="644" y="454"/>
      <point x="558" y="556"/>
      <point x="413" y="556" type="curve" smooth="yes"/>
      <point x="206" y="556"/>
      <point x="35" y="344"/>
      <point x="35" y="134" type="curve" smooth="yes"/>
      <point x="35" y="63"/>
      <point x="53" y="-4"/>
      <point x="129" y="-4" type="curve"/>
      <point x="123" y="27"/>
      <point x="121" y="58"/>
      <point x="121" y="89" type="curve" smooth="yes"/>
      <point x="121" y="270"/>
      <point x="242" y="521"/>
      <point x="414" y="521" type="curve" smooth="yes"/>
      <point x="516" y="521"/>
      <point x="558" y="441"/>
      <point x="558" y="326" type="curve" smooth="yes"/>
      <point x="558" y="218"/>
      <point x="483" y="34"/>
      <point x="378" y="-51" type="curve"/>
      <point x="385" y="-53"/>
      <point x="397" y="-54"/>
    </contour>
    <contour>
      <point x="200" y="-72" type="curve"/>
      <point x="294" y="-72"/>
      <point x="329" y="27"/>
      <point x="411" y="321" type="curve" smooth="yes"/>
      <point x="449" y="457"/>
      <point x="467" y="559"/>
      <point x="504" y="728" type="curve"/>
      <point x="448" y="725"/>
      <point x="433" y="704"/>
      <point x="417" y="640" type="curve" smooth="yes"/>
      <point x="389" y="530"/>
      <point x="369" y="453"/>
      <point x="338" y="339" type="curve" smooth="yes"/>
      <point x="291" y="167"/>
      <point x="232" y="-16"/>
    </contour>
  </outline>
</glyph>
<glyph name="trademark" format="2">
  <advance width="581"/>
  <unicode hex="2122"/>
  <outline>
    <contour>
      <point x="227" y="392" type="curve"/>
      <point x="224" y="400"/>
      <point x="223" y="410"/>
      <point x="223" y="420" type="curve" smooth="yes"/>
      <point x="223" y="495"/>
      <point x="277" y="613"/>
      <point x="297" y="675" type="curve"/>
      <point x="315" y="677"/>
      <point x="364" y="678"/>
      <point x="391" y="678" type="curve" smooth="yes"/>
      <point x="410" y="678"/>
      <point x="418" y="678"/>
      <point x="418" y="669" type="curve" smooth="yes"/>
      <point x="418" y="665"/>
      <point x="416" y="659"/>
      <point x="413" y="652" type="curve"/>
      <point x="376" y="566"/>
      <point x="335" y="485"/>
      <point x="293" y="392" type="curve"/>
      <point x="337" y="392"/>
      <point x="356" y="431"/>
      <point x="433" y="610" type="curve"/>
      <point x="433" y="569"/>
      <point x="429" y="508"/>
      <point x="429" y="483" type="curve" smooth="yes"/>
      <point x="429" y="448"/>
      <point x="437" y="424"/>
      <point x="453" y="424" type="curve" smooth="yes"/>
      <point x="456" y="424"/>
      <point x="462" y="425"/>
      <point x="465" y="427" type="curve"/>
      <point x="481" y="440"/>
      <point x="501" y="501"/>
      <point x="540" y="578" type="curve"/>
      <point x="530" y="530"/>
      <point x="522" y="482"/>
      <point x="522" y="447" type="curve" smooth="yes"/>
      <point x="522" y="405"/>
      <point x="534" y="392"/>
      <point x="582" y="392" type="curve"/>
      <point x="575" y="411"/>
      <point x="573" y="435"/>
      <point x="573" y="457" type="curve" smooth="yes"/>
      <point x="573" y="541"/>
      <point x="601" y="644"/>
      <point x="623" y="700" type="curve"/>
      <point x="610" y="708"/>
      <point x="602" y="711"/>
      <point x="595" y="711" type="curve" smooth="yes"/>
      <point x="550" y="711"/>
      <point x="520" y="600"/>
      <point x="478" y="529" type="curve"/>
      <point x="480" y="553"/>
      <point x="482" y="582"/>
      <point x="482" y="610" type="curve" smooth="yes"/>
      <point x="482" y="696"/>
      <point x="463" y="716"/>
      <point x="429" y="716" type="curve" smooth="yes"/>
      <point x="350" y="716" type="line" smooth="yes"/>
      <point x="241" y="716"/>
      <point x="149" y="712"/>
      <point x="148" y="668" type="curve"/>
      <point x="191" y="671"/>
      <point x="212" y="674"/>
      <point x="254" y="674" type="curve"/>
      <point x="212" y="585"/>
      <point x="167" y="455"/>
      <point x="167" y="426" type="curve" smooth="yes"/>
      <point x="167" y="408"/>
      <point x="183" y="392"/>
    </contour>
  </outline>
</glyph>
<glyph name="IJacute" format="2">
  <advance width="473"/>
  <outline>
    <contour>
      <point x="111" y="-280" type="curve" smooth="yes"/>
      <point x="197" y="-280"/>
      <point x="267" y="-160"/>
      <point x="312" y="-39" type="curve"/>
      <point x="374" y="0"/>
      <point x="450" y="25"/>
      <point x="513" y="154" type="curve"/>
      <point x="495" y="166" type="line"/>
      <point x="439" y="71"/>
      <point x="385" y="38"/>
      <point x="328" y="6" type="curve"/>
      <point x="374" y="143"/>
      <point x="400" y="284"/>
      <point x="400" y="313" type="curve" smooth="yes"/>
      <point x="400" y="334"/>
      <point x="387" y="350"/>
      <point x="369" y="350" type="curve" smooth="yes"/>
      <point x="318" y="350"/>
      <point x="303" y="228"/>
      <point x="251" y="138" type="curve" smooth="yes"/>
      <point x="200" y="48"/>
      <point x="153" y="19"/>
      <point x="113" y="19" type="curve" smooth="yes"/>
      <point x="84" y="19"/>
      <point x="68" y="29"/>
      <point x="68" y="72" type="curve" smooth="yes"/>
      <point x="68" y="160"/>
      <point x="171" y="277"/>
      <point x="171" y="311" type="curve" smooth="yes"/>
      <point x="171" y="330"/>
      <point x="157" y="340"/>
      <point x="141" y="340" type="curve" smooth="yes"/>
      <point x="66" y="340"/>
      <point x="-8" y="135"/>
      <point x="-8" y="59" type="curve" smooth="yes"/>
      <point x="-8" y="10"/>
      <point x="21" y="-30"/>
      <point x="80" y="-30" type="curve" smooth="yes"/>
      <point x="177" y="-30"/>
      <point x="235" y="49"/>
      <point x="302" y="170" type="curve"/>
      <point x="287" y="90"/>
      <point x="267" y="22"/>
      <point x="245" y="-33" type="curve"/>
      <point x="220" y="-43"/>
      <point x="196" y="-54"/>
      <point x="175" y="-67" type="curve" smooth="yes"/>
      <point x="100" y="-111"/>
      <point x="48" y="-170"/>
      <point x="48" y="-221" type="curve" smooth="yes"/>
      <point x="48" y="-256"/>
      <point x="72" y="-280"/>
    </contour>
    <contour>
      <point x="100" y="-232" type="curve" smooth="yes"/>
      <point x="93" y="-232"/>
      <point x="88" y="-228"/>
      <point x="88" y="-215" type="curve" smooth="yes"/>
      <point x="88" y="-179"/>
      <point x="133" y="-130"/>
      <point x="222" y="-85" type="curve"/>
      <point x="174" y="-183"/>
      <point x="124" y="-232"/>
    </contour>
    <component base="acutecomb" xOffset="349"/>
    <component base="acutecomb" xOffset="139"/>
  </outline>
</glyph>
<glyph name="U.salt" format="2">
  <advance width="779"/>
  <anchor x="396" y="-56" name="ogonek"/>
  <anchor x="693" y="714" name="topright"/>
  <outline>
    <contour>
      <point x="287" y="-87" type="curve" smooth="yes"/>
      <point x="386" y="-87"/>
      <point x="452" y="-13"/>
      <point x="502" y="77" type="curve"/>
      <point x="500" y="54"/>
      <point x="498" y="25"/>
      <point x="498" y="13" type="curve" smooth="yes"/>
      <point x="499" y="-27"/>
      <point x="515" y="-87"/>
      <point x="570" y="-87" type="curve" smooth="yes"/>
      <point x="653" y="-87"/>
      <point x="734" y="50"/>
      <point x="778" y="153" type="curve"/>
      <point x="755" y="170" type="line"/>
      <point x="703" y="54"/>
      <point x="640" y="-26"/>
      <point x="608" y="-26" type="curve" smooth="yes"/>
      <point x="588" y="-26"/>
      <point x="580" y="6"/>
      <point x="580" y="51" type="curve" smooth="yes"/>
      <point x="580" y="243"/>
      <point x="726" y="654"/>
      <point x="764" y="680" type="curve"/>
      <point x="738" y="704"/>
      <point x="713" y="720"/>
      <point x="699" y="720" type="curve" smooth="yes"/>
      <point x="640" y="720"/>
      <point x="568" y="420"/>
      <point x="522" y="228" type="curve" smooth="yes"/>
      <point x="497" y="125"/>
      <point x="426" y="-33"/>
      <point x="317" y="-33" type="curve" smooth="yes"/>
      <point x="256" y="-33"/>
      <point x="234" y="16"/>
      <point x="234" y="75" type="curve" smooth="yes"/>
      <point x="234" y="212"/>
      <point x="352" y="451"/>
      <point x="352" y="592" type="curve" smooth="yes"/>
      <point x="352" y="670"/>
      <point x="316" y="720"/>
      <point x="236" y="720" type="curve" smooth="yes"/>
      <point x="122" y="720"/>
      <point x="33" y="619"/>
      <point x="33" y="537" type="curve" smooth="yes"/>
      <point x="33" y="493"/>
      <point x="59" y="460"/>
      <point x="124" y="460" type="curve"/>
      <point x="114" y="480"/>
      <point x="110" y="501"/>
      <point x="110" y="522" type="curve" smooth="yes"/>
      <point x="110" y="583"/>
      <point x="143" y="678"/>
      <point x="210" y="678" type="curve" smooth="yes"/>
      <point x="248" y="678"/>
      <point x="265" y="647"/>
      <point x="265" y="592" type="curve" smooth="yes"/>
      <point x="265" y="447"/>
      <point x="145" y="179"/>
      <point x="145" y="55" type="curve" smooth="yes"/>
      <point x="145" y="-26"/>
      <point x="197" y="-87"/>
    </contour>
  </outline>
</glyph>
<glyph name="brevecomb.case" format="2">
  <outline>
    <contour>
      <point x="78" y="370" type="curve" smooth="yes"/>
      <point x="134" y="370"/>
      <point x="185" y="404"/>
      <point x="185" y="450" type="curve" smooth="yes"/>
      <point x="185" y="460"/>
      <point x="182" y="474"/>
      <point x="171" y="483" type="curve"/>
      <point x="156" y="460"/>
      <point x="128" y="434"/>
      <point x="80" y="434" type="curve" smooth="yes"/>
      <point x="25" y="434"/>
      <point x="1" y="475"/>
      <point x="-6" y="514" type="curve"/>
      <point x="-23" y="504"/>
      <point x="-34" y="489"/>
      <point x="-34" y="465" type="curve" smooth="yes"/>
      <point x="-34" y="427"/>
      <point x="-5" y="370"/>
    </contour>
  </outline>
</glyph>
